<?xml version="1.0" standalone="no"?>
<!DOCTYPE svg PUBLIC "-//W3C//DTD SVG 1.1//EN" "http://www.w3.org/Graphics/SVG/1.1/DTD/svg11.dtd" >
<svg>
<metadata>
Created by FontForge 20090622 at Mon Aug 28 15:54:13 2017
 By deploy user
Copyright (c) 2010-13 by Vernon Adams
</metadata>
<defs>
<font id="Oswald-ExtraLight" horiz-adv-x="777" >
  <font-face 
    font-family="Oswald"
    font-weight="200"
    font-stretch="normal"
    units-per-em="2048"
    panose-1="2 0 3 3 0 0 0 0 0 0"
    ascent="1638"
    descent="-410"
    x-height="1184"
    cap-height="1658"
    bbox="-192 -515 1842 2196"
    underline-thickness="21"
    underline-position="-67"
    unicode-range="U+0020-U+FB04"
  />
<missing-glyph horiz-adv-x="748" 
d="M68 0v1365h544v-1365h-544zM136 68h408v1229h-408v-1229z" />
    <glyph glyph-name=".notdef" horiz-adv-x="748" 
d="M68 0v1365h544v-1365h-544zM136 68h408v1229h-408v-1229z" />
    <glyph glyph-name=".null" horiz-adv-x="0" 
 />
    <glyph glyph-name="nonmarkingreturn" horiz-adv-x="682" 
 />
    <glyph glyph-name="space" unicode=" " horiz-adv-x="388" 
 />
    <glyph glyph-name="exclam" unicode="!" horiz-adv-x="404" 
d="M182 356l-41 1302h124l-44 -1302h-39zM139 0v151h123v-151h-123z" />
    <glyph glyph-name="quotedbl" unicode="&#x22;" horiz-adv-x="699" 
d="M432 1188v470h111l-52 -470h-59zM162 1188v470h112l-52 -470h-60z" />
    <glyph glyph-name="numbersign" unicode="#" horiz-adv-x="928" 
d="M342 678h214l56 344h-214zM131 0l95 599h-130v79h143l56 344h-162v79h175l89 557h103l-89 -557h214l89 557h103l-89 -557h117v-79h-129l-57 -344h148v-79h-160l-96 -599h-103l96 599h-214l-96 -599h-103z" />
    <glyph glyph-name="dollar" unicode="$" horiz-adv-x="923" 
d="M476 -192v171q-356 6 -391 430l98 31q9 -71 21.5 -123t35.5 -100.5t55 -79t80.5 -48.5t111.5 -18q265 0 265 267q0 102 -51.5 186t-164.5 196l-303 302q-144 144 -144 315q0 156 91 244t246 95v194h61v-194q162 -8 250 -104t101 -311l-94 -22q-16 180 -78.5 264
t-200.5 84h-10q-121 -2 -193 -61.5t-72 -180.5q0 -65 28 -124.5t94 -126.5l299 -295q115 -114 180.5 -223.5t65.5 -231.5q0 -166 -86.5 -258t-235.5 -105v-173h-59z" />
    <glyph glyph-name="percent" unicode="%" horiz-adv-x="1302" 
d="M320 0l567 1680h99l-565 -1680h-101zM1007 -13q-209 0 -209 279v291q0 274 209 274t209 -271v-296q0 -277 -209 -277zM1007 72q110 0 110 188v302q0 184 -110 184t-110 -185v-301q0 -92 25 -140t85 -48zM296 855q-209 0 -209 279v291q0 274 209 274q208 0 208 -271v-296
q0 -277 -208 -277zM296 940q110 0 110 188v302q0 184 -110 184q-60 0 -85 -48t-25 -137v-301q0 -92 25 -140t85 -48z" />
    <glyph glyph-name="ampersand" unicode="&#x26;" horiz-adv-x="1232" 
d="M466 916q141 132 222 247.5t81 228.5q0 93 -62 143.5t-168 50.5q-118 0 -179 -69t-61 -177q0 -89 37.5 -179.5t129.5 -244.5zM513 70q82 0 151.5 33.5t140.5 107.5l-364 571q-119 -126 -167 -224.5t-48 -200.5q0 -42 9 -81t30.5 -77t53.5 -66.5t82 -45.5t112 -17z
M511 -22q-128 0 -219 53.5t-133 138t-42 188.5q0 117 62.5 234.5t215.5 268.5q-117 189 -159.5 283t-42.5 193q0 163 93.5 251.5t255.5 88.5q155 0 244 -77.5t89 -211.5q0 -119 -93 -249.5t-276 -290.5l361 -570q65 82 111 214t49 227h99q0 -113 -54.5 -260t-144.5 -251
q54 -69 100.5 -94t104.5 -25v-101q-25 0 -45 4q-123 14 -225 149q-64 -71 -154 -117t-197 -46z" />
    <glyph glyph-name="quotesingle" unicode="'" horiz-adv-x="487" 
d="M162 1188v470h112l-52 -470h-60z" />
    <glyph glyph-name="parenleft" unicode="(" horiz-adv-x="545" 
d="M482 -302q-57 5 -102 26t-77.5 64.5t-56 87.5t-38 121.5t-23 138.5t-12.5 167t-5 179.5t-1 200.5q0 128 1 202t5 181.5t12.5 169.5t23 140t38 122t56 86.5t77.5 62t102 22.5v-79q-30 -4 -55 -17.5t-44.5 -39t-35 -52t-26.5 -72.5t-19 -83t-13 -100t-8 -109t-4 -123.5
t-1.5 -129t-0.5 -140.5v-41v-54q0 -109 0.5 -172.5t3 -154.5t8.5 -144t15.5 -120t25 -105.5t36.5 -76t51 -56.5t67 -24v-78z" />
    <glyph glyph-name="parenright" unicode=")" horiz-adv-x="522" 
d="M63 -302v78q30 4 55 17.5t44.5 39t35 52t26.5 72.5t19 83.5t13 100.5t8 108.5t4 123.5t1.5 129.5t0.5 140.5v41v41q0 112 -0.5 175t-3 156.5t-8 146.5t-15 121.5t-25 107t-37 77t-51 57.5t-67.5 24v79q57 -3 102 -22.5t77.5 -62t56 -86.5t38 -121.5t23 -140t12.5 -169.5
t5 -181t1 -202q0 -127 -1 -200.5t-5 -179.5t-12.5 -167.5t-23 -139t-38 -121.5t-56 -87t-77.5 -64.5t-102 -26.5z" />
    <glyph glyph-name="asterisk" unicode="*" horiz-adv-x="730" 
d="M205 1008l-69 44l188 246l-264 107l29 71l256 -123l-13 304h87l-16 -304l253 123l29 -71l-263 -107l188 -249l-69 -41l-169 261z" />
    <glyph glyph-name="plus" unicode="+" horiz-adv-x="745" 
d="M329 492v318h-283v82h283v313h85v-313h285v-82h-285v-318h-85z" />
    <glyph glyph-name="comma" unicode="," horiz-adv-x="363" 
d="M141 -220l-28 47q51 38 68.5 74t17.5 99h-74v216h132v-193q0 -96 -25 -148t-91 -95z" />
    <glyph glyph-name="hyphen" unicode="-" horiz-adv-x="580" 
d="M79 653v90h423v-90h-423z" />
    <glyph glyph-name="period" unicode="." horiz-adv-x="363" 
d="M135 0v213h122v-213h-122z" />
    <glyph glyph-name="slash" unicode="/" horiz-adv-x="674" 
d="M44 0l488 1658h97l-487 -1658h-98z" />
    <glyph glyph-name="zero" unicode="0" horiz-adv-x="1009" 
d="M504 -22q-89 0 -156.5 24t-110.5 66t-70 104.5t-38 133.5t-11 160v725q0 112 19.5 197.5t63 152t120 101.5t183.5 35t184 -35t120.5 -101.5t63 -152t19.5 -197.5v-725q0 -113 -18 -197t-60 -152t-119.5 -103.5t-189.5 -35.5zM504 62q149 0 211.5 101.5t62.5 284.5v761
q0 183 -62.5 283.5t-211.5 100.5q-148 0 -211 -101t-63 -283v-761q0 -88 13.5 -155.5t44.5 -121t85 -81.5t131 -28z" />
    <glyph glyph-name="one" unicode="1" horiz-adv-x="825" 
d="M427 0v1510q-32 -47 -106 -83.5t-132 -54.5v94q58 16 132 69.5t122 122.5h93v-1658h-109z" />
    <glyph glyph-name="two" unicode="2" horiz-adv-x="1001" 
d="M111 0v82l461 701q98 149 129 211q68 138 68 281q0 146 -66 228t-187 82q-86 0 -144 -26.5t-89 -78.5t-43.5 -115t-13.5 -150v-28h-107v34q0 232 94.5 344t298.5 112q177 0 271 -109.5t94 -307.5q0 -70 -16 -137.5t-51 -137.5t-62.5 -116t-77.5 -121l-434 -655h608v-93
h-733z" />
    <glyph glyph-name="three" unicode="3" horiz-adv-x="994" 
d="M488 -22q-348 0 -348 390v31h102v-32q1 -149 60 -225t186 -76q61 0 107.5 17.5t85 58.5t59 116t20.5 182q0 376 -266 380h-48v95h47q144 1 205.5 85t61.5 270q0 320 -249 320q-137 0 -202.5 -70.5t-66.5 -231.5v-24h-103v27q0 184 87 285t284 101q93 0 163.5 -31t113 -87
t64 -128.5t21.5 -161.5q0 -181 -64.5 -282t-171.5 -122q43 -11 82 -38t75 -74.5t57.5 -127.5t21.5 -182q0 -217 -93 -341t-291 -124z" />
    <glyph glyph-name="four" unicode="4" horiz-adv-x="1009" 
d="M230 611h397v889zM627 0v509h-512v105l494 1044h127v-1047h191v-102h-191v-509h-109z" />
    <glyph glyph-name="five" unicode="5" horiz-adv-x="1000" 
d="M515 -19q-182 0 -266 105.5t-84 319.5h107q0 -177 58.5 -258t190.5 -81q142 0 199 102.5t57 337.5q0 172 -29 271.5t-82 138t-141 38.5q-142 0 -234 -139h-89v842h603l-3 -94h-507l-4 -644q86 120 262 120q171 0 250.5 -130.5t79.5 -391.5q0 -277 -89 -407t-279 -130z
" />
    <glyph glyph-name="six" unicode="6" horiz-adv-x="1008" 
d="M518 70q69 0 116.5 17t83.5 59t53 116.5t17 185.5q0 102 -6 167t-22 120t-46.5 84t-77.5 44.5t-118 15.5q-66 0 -141.5 -27.5t-117.5 -56.5v-310q0 -121 16 -202.5t50.5 -127.5t80.5 -65.5t112 -19.5zM518 -22q-192 0 -280 125t-88 380v724q0 470 367 470
q182 0 266.5 -91t86.5 -282v-38h-105q0 179 -56 250t-185 71q-59 0 -104 -17t-83 -56t-58 -111t-20 -175v-350q52 34 127.5 61t154.5 27q83 0 141.5 -16.5t101.5 -51.5t68 -95t36.5 -142.5t11.5 -198.5q0 -239 -90.5 -361.5t-291.5 -122.5z" />
    <glyph glyph-name="seven" unicode="7" horiz-adv-x="946" 
d="M355 0l337 1568h-537v90h649v-54l-343 -1604h-106z" />
    <glyph glyph-name="eight" unicode="8" horiz-adv-x="1001" 
d="M501 916q138 9 197.5 97.5t59.5 249.5q0 166 -63.5 244.5t-193.5 78.5q-131 0 -194 -78.5t-63 -244.5q0 -161 59.5 -249.5t197.5 -97.5zM501 66q131 0 200 85.5t69 282.5q0 177 -63.5 273.5t-205.5 113.5q-143 -17 -207 -113.5t-64 -273.5q0 -197 70 -282.5t201 -85.5z
M501 -23q-379 0 -379 455q0 68 9.5 125t22.5 97t37 74t42.5 53.5t50 38.5t48.5 27t48 21q-114 34 -179 134.5t-65 264.5q0 90 19 161.5t60 129t113.5 88.5t172.5 31q99 0 171.5 -32t113.5 -90t60 -130.5t19 -162.5q0 -163 -64.5 -261t-179.5 -133q31 -13 48 -21t48 -27.5
t50 -39t43 -53.5t37 -73.5t22.5 -96.5t9.5 -125q0 -455 -378 -455z" />
    <glyph glyph-name="nine" unicode="9" horiz-adv-x="1008" 
d="M507 776q153 0 259 84v310q0 160 -30 252.5t-83.5 127.5t-142.5 35q-137 0 -205 -85.5t-68 -292.5q0 -102 6 -167t22 -120t46.5 -84t77.5 -44.5t118 -15.5zM516 -22q-183 0 -271.5 92t-89.5 282v37h105q0 -181 57 -251t202 -70q59 0 102 16.5t77 56.5t51 111t17 175v349
q-40 -34 -111.5 -60.5t-170.5 -26.5q-203 0 -281.5 110t-78.5 394q0 238 92.5 361t293.5 123q192 0 278.5 -125t86.5 -380v-724q0 -229 -85 -349.5t-274 -120.5z" />
    <glyph glyph-name="colon" unicode=":" horiz-adv-x="392" 
d="M154 877v211h120v-211h-120zM154 155v210h120v-210h-120z" />
    <glyph glyph-name="semicolon" unicode=";" horiz-adv-x="417" 
d="M153 896v213h121v-213h-121zM166 -34l-28 47q53 35 69.5 67t16.5 95h-71v198h130v-175q0 -97 -24.5 -148t-92.5 -84z" />
    <glyph glyph-name="less" unicode="&#x3c;" horiz-adv-x="732" 
d="M615 157l-556 420v106l556 437v-117l-470 -373l470 -358v-115z" />
    <glyph glyph-name="equal" unicode="=" horiz-adv-x="802" 
d="M100 923v91h601v-91h-601zM100 590v92h601v-92h-601z" />
    <glyph glyph-name="greater" unicode="&#x3e;" horiz-adv-x="732" 
d="M117 157v116l471 374l-471 358v115l557 -421v-105z" />
    <glyph glyph-name="question" unicode="?" horiz-adv-x="955" 
d="M366 1v149h107v-149h-107zM370 410v251q203 135 290 273.5t87 310.5q0 167 -79.5 253t-195.5 86q-111 0 -179 -52.5t-68 -148.5q0 -36 8 -69l16 -73l-97 -24l-18 75q-12 52 -12 98q0 138 99.5 213.5t251.5 75.5q78 0 145.5 -27t120 -79t82.5 -136.5t30 -192.5
q0 -194 -93.5 -336t-292.5 -278v-220h-95z" />
    <glyph glyph-name="at" unicode="@" horiz-adv-x="1649" 
d="M780 340q74 2 135 64t100 172l76 541q-52 37 -120 37q-67 0 -132.5 -38t-118.5 -105.5t-86 -173t-33 -229.5q0 -143 48.5 -205.5t120.5 -62.5h10zM907 -203q-787 0 -787 883q0 195 40.5 357t111 275t168 191t211 115.5t240.5 38.5h10q337 0 502 -191.5t165 -573.5
q0 -54 -1 -82q-6 -131 -37 -231.5t-73 -157.5t-96 -93.5t-98 -48t-86 -11.5q-64 0 -114.5 45.5t-50.5 124.5q0 13 1 20q-35 -87 -98 -143.5t-147 -58.5h-9q-120 0 -192.5 92.5t-72.5 261.5q0 137 40.5 257t106.5 200t149.5 126t169.5 46q83 0 150 -52l17 42h82l-94 -686
q-7 -58 -7 -89q0 -54 19.5 -81.5t69.5 -27.5q30 0 61.5 10.5t69.5 41.5t68 80t52.5 134t27.5 194q2 33 2 95q0 187 -40.5 319.5t-118.5 208.5t-179.5 109.5t-236.5 33.5h-15q-142 -2 -263 -61.5t-211 -169.5t-141 -279t-51 -380q0 -145 22.5 -263t60 -199.5t93 -143.5
t113.5 -98t130.5 -58t136 -29.5t136.5 -7.5q179 0 379 51l28 -80q-255 -56 -414 -56z" />
    <glyph glyph-name="A" unicode="A" horiz-adv-x="959" 
d="M281 541h398l-200 982zM66 0l348 1658h128l351 -1658h-112l-86 458h-430l-89 -458h-110z" />
    <glyph glyph-name="B" unicode="B" horiz-adv-x="1000" 
d="M265 931h279q67 0 113.5 24.5t71.5 69.5t35.5 98t10.5 122q0 60 -6.5 105t-26 88.5t-53 70.5t-88.5 43.5t-131 16.5h-205v-638zM265 88h266q158 0 216.5 91.5t58.5 302.5q0 361 -260 361h-281v-755zM153 0v1658h342q89 0 157 -21.5t110.5 -57.5t69 -89.5t37 -112.5
t10.5 -132q0 -56 -8.5 -106.5t-28.5 -102.5t-60.5 -90t-97.5 -52q69 -20 117 -66t71.5 -107t33 -118.5t9.5 -119.5q0 -68 -5.5 -123t-19.5 -112.5t-40.5 -100t-66.5 -77t-100 -52.5t-138 -18h-392z" />
    <glyph glyph-name="C" unicode="C" horiz-adv-x="1001" 
d="M523 -22q-96 0 -168 26t-116.5 69.5t-72 109t-38 136t-10.5 159.5v703q0 90 11.5 162t39.5 136t73.5 106.5t116 67t164.5 24.5q106 0 180.5 -32.5t117 -96t61.5 -146t19 -192.5v-84h-106v85q0 190 -59 282.5t-213 92.5q-88 0 -147 -27.5t-90 -82.5t-43 -121.5t-12 -160.5
v-734q0 -77 8 -135t28 -107.5t53 -81t84 -49t119 -17.5q81 0 135.5 26t83.5 78t41 116.5t12 155.5v100h106v-82q0 -89 -10.5 -159.5t-37 -133t-68.5 -104t-108.5 -65.5t-153.5 -24z" />
    <glyph glyph-name="D" unicode="D" horiz-adv-x="1059" 
d="M153 0v1658h364q120 0 204.5 -36t131.5 -103t67.5 -149.5t20.5 -187.5v-688q0 -113 -20.5 -199t-66.5 -154.5t-128.5 -104.5t-199.5 -36h-373zM265 88h256q78 0 134.5 22.5t89.5 58.5t52 93t25 113t6 131v667q0 77 -8 135t-28.5 109t-55.5 83t-90 50.5t-130 18.5h-251
v-1481z" />
    <glyph glyph-name="E" unicode="E" horiz-adv-x="804" 
d="M152 0v1658h574v-89h-462v-665h379v-87h-379v-729h467v-88h-579z" />
    <glyph glyph-name="F" unicode="F" horiz-adv-x="784" 
d="M153 0v1658h571v-88h-459v-666h397v-87h-397v-817h-112z" />
    <glyph glyph-name="G" unicode="G" horiz-adv-x="1045" 
d="M517 -23q-93 0 -163 25t-114.5 68t-72 108t-38.5 138t-11 165v704q0 92 11 164t39.5 135t73.5 104.5t115.5 65t164.5 23.5q207 0 295 -121t88 -352v-58h-106v65q0 192 -60.5 283.5t-215.5 91.5q-72 0 -124 -19.5t-84 -52.5t-51 -85t-26 -108.5t-7 -131.5v-722
q0 -96 13 -165t45 -123.5t90.5 -81.5t145.5 -27q80 0 135.5 26t86 79t43.5 121.5t13 163.5v244h-264v86h369v-790h-72l-17 186q-65 -209 -302 -209z" />
    <glyph glyph-name="H" unicode="H" horiz-adv-x="1109" 
d="M152 0v1658h112v-747h581v747h112v-1658h-112v826h-581v-826h-112z" />
    <glyph glyph-name="I" unicode="I" horiz-adv-x="422" 
d="M156 0v1658h111v-1658h-111z" />
    <glyph glyph-name="J" unicode="J" horiz-adv-x="543" 
d="M16 -92v87q64 0 104.5 4t71.5 19t46.5 33.5t25.5 58.5t12 82t2 116v1350h112v-1364q0 -72 -4.5 -121t-16 -96t-33 -76t-56.5 -51.5t-85.5 -32t-120.5 -9.5h-58z" />
    <glyph glyph-name="K" unicode="K" horiz-adv-x="942" 
d="M152 0v1658h112v-930l482 930h110l-351 -701l436 -957h-112l-404 889l-161 -295v-594h-112z" />
    <glyph glyph-name="L" unicode="L" horiz-adv-x="764" 
d="M153 0v1658h112v-1570h501v-88h-613z" />
    <glyph glyph-name="M" unicode="M" horiz-adv-x="1294" 
d="M133 0l49 1658h110l352 -1496l355 1496h115l48 -1658h-97l-41 1391l-338 -1391h-81l-334 1388l-41 -1388h-97z" />
    <glyph glyph-name="N" unicode="N" horiz-adv-x="1055" 
d="M153 0v1658h89l562 -1400v1400h99v-1658h-88l-563 1403v-1403h-99z" />
    <glyph glyph-name="O" unicode="O" horiz-adv-x="1056" 
d="M528 -22q-95 0 -167 24.5t-117.5 67t-74 106.5t-40 135.5t-11.5 160.5v724q0 88 12 158.5t41.5 132t76 102.5t117 64.5t163.5 23.5q115 0 196 -35t127 -101t66.5 -150.5t20.5 -194.5v-727q0 -89 -11.5 -160t-40 -134.5t-74.5 -105.5t-117.5 -66.5t-166.5 -24.5zM528 70
q87 0 146.5 26.5t91.5 78.5t45.5 117t13.5 155v765q0 90 -13 154.5t-45.5 116t-92 77.5t-146.5 26t-146.5 -26t-92 -77.5t-45.5 -116t-13 -154.5v-765q0 -90 13 -155t45.5 -117t92 -78.5t146.5 -26.5z" />
    <glyph glyph-name="P" unicode="P" horiz-adv-x="994" 
d="M265 879h255q153 0 223.5 80.5t70.5 270.5q0 197 -65 269.5t-227 72.5h-257v-693zM153 0v1658h389q109 0 186 -31.5t119.5 -91t61.5 -134t19 -171.5q0 -69 -11 -130t-39 -118.5t-70.5 -99t-109.5 -66t-153 -24.5h-280v-792h-112z" />
    <glyph glyph-name="Q" unicode="Q" horiz-adv-x="1072" 
d="M535 70q87 0 147.5 26.5t94 78.5t48 117.5t14.5 154.5v765q0 183 -67.5 278.5t-236.5 95.5q-87 0 -147.5 -26t-94 -77t-48 -116.5t-14.5 -154.5v-765q0 -89 14.5 -154.5t48 -117.5t94 -78.5t147.5 -26.5zM879 -319q-104 50 -284 300q-29 -3 -60 -3q-95 0 -167.5 24.5
t-119.5 67t-76.5 106t-41.5 135.5t-12 161v724q0 110 21.5 195t69 150.5t129.5 100.5t197 35t197.5 -35t129.5 -101t68.5 -150.5t21.5 -194.5v-727q0 -190 -62 -311.5t-208 -160.5q46 -59 108.5 -126t98.5 -91z" />
    <glyph glyph-name="R" unicode="R" horiz-adv-x="1041" 
d="M265 921h285q78 0 130 22t80 67t39 101.5t11 138.5q0 167 -56 243.5t-205 76.5h-284v-649zM153 0v1658h403q86 0 150.5 -21t104.5 -56.5t65 -89t34.5 -111.5t9.5 -130q0 -60 -6 -110t-22.5 -99.5t-43 -85.5t-71 -62.5t-102.5 -35.5l268 -857h-111l-259 836h-308v-836
h-112z" />
    <glyph glyph-name="S" unicode="S" horiz-adv-x="926" 
d="M486 -21q-365 0 -401 430l98 31q9 -71 21.5 -123t35.5 -100.5t55 -79t80.5 -48.5t111.5 -18q265 0 265 267q0 102 -51.5 186t-164.5 196l-303 302q-144 144 -144 315q0 162 98.5 250.5t264.5 89.5h3q177 0 273 -95.5t110 -320.5l-94 -22q-16 180 -78.5 264t-200.5 84h-10
q-121 -2 -193 -61.5t-72 -180.5q0 -65 28 -124.5t94 -126.5l299 -295q115 -114 180.5 -223.5t65.5 -231.5q0 -180 -100.5 -272.5t-270.5 -92.5z" />
    <glyph glyph-name="T" unicode="T" horiz-adv-x="779" 
d="M337 0v1569h-351v89h807v-89h-344v-1569h-112z" />
    <glyph glyph-name="U" unicode="U" horiz-adv-x="1092" 
d="M546 -22q-118 0 -200.5 30.5t-127.5 88t-64.5 128.5t-19.5 164v1269h109v-1271q0 -73 14 -127.5t47.5 -99t94 -67.5t147.5 -23q303 0 303 317v1271h109v-1269q0 -411 -412 -411z" />
    <glyph glyph-name="V" unicode="V" horiz-adv-x="984" 
d="M450 0l-400 1658h109l344 -1463l323 1463h108l-379 -1658h-105z" />
    <glyph glyph-name="W" unicode="W" horiz-adv-x="1446" 
d="M358 0l-289 1657l99 1l243 -1438l266 1401h108l273 -1402l222 1439h97l-270 -1658h-93l-282 1453l-277 -1453h-97z" />
    <glyph glyph-name="X" unicode="X" horiz-adv-x="926" 
d="M30 0l366 861l-363 798h102l326 -708l317 708h111l-380 -816l387 -843h-108l-341 746l-305 -746h-112z" />
    <glyph glyph-name="Y" unicode="Y" horiz-adv-x="946" 
d="M424 0v530l-383 1128h115l325 -995l310 995h114l-370 -1128v-530h-111z" />
    <glyph glyph-name="Y" unicode="&#x4ae;" horiz-adv-x="946" 
d="M424 0v530l-383 1128h115l325 -995l310 995h114l-370 -1128v-530h-111z" />
    <glyph glyph-name="Z" unicode="Z" horiz-adv-x="822" 
d="M64 0v88l596 1482h-543v88h663v-69l-602 -1501h605v-88h-719z" />
    <glyph glyph-name="bracketleft" unicode="[" horiz-adv-x="571" 
d="M152 -297v1955h301v-66h-191v-1821h191v-68h-301z" />
    <glyph glyph-name="backslash" unicode="\" horiz-adv-x="674" 
d="M531 0l-487 1658h97l488 -1658h-98z" />
    <glyph glyph-name="bracketright" unicode="]" horiz-adv-x="553" 
d="M100 -295v66h191v1820h-191v67h301v-1953h-301z" />
    <glyph glyph-name="asciicircum" unicode="^" horiz-adv-x="748" 
d="M53 1076l262 582h118l262 -582h-92l-229 513l-229 -513h-92z" />
    <glyph glyph-name="underscore" unicode="_" horiz-adv-x="666" 
d="M0 -184v89h666v-89h-666z" />
    <glyph glyph-name="grave" unicode="`" horiz-adv-x="429" 
d="M268 1261l-165 397h110l112 -397h-57z" />
    <glyph glyph-name="a" unicode="a" 
d="M342 71q71 0 127 47t92 119v390q-201 -104 -254 -141q-84 -58 -107 -128q-14 -42 -14 -103q0 -97 45.5 -140.5t110.5 -43.5zM316 -19q-107 0 -172.5 72t-65.5 187q0 79 17.5 131.5t74 106.5t144.5 104t247 124v85q0 130 -16.5 201t-51 99.5t-96.5 28.5q-39 0 -69.5 -9
t-59.5 -31.5t-44.5 -69t-15.5 -113.5v-33l-106 2q0 28 1 32q4 161 78.5 233t219.5 72q148 0 208.5 -93t60.5 -308v-596q0 -169 5 -206h-93q-15 134 -18 157q-28 -77 -95 -126.5t-153 -49.5z" />
    <glyph glyph-name="b" unicode="b" horiz-adv-x="814" 
d="M429 66q107 0 144.5 95.5t37.5 322.5v231q0 224 -35.5 313.5t-144.5 89.5q-105 0 -205 -110v-835q88 -107 203 -107zM442 -19q-123 0 -216 117v-98h-109v1658h109v-574q91 119 227 119q64 0 111.5 -23t77 -63t47.5 -103t24.5 -134.5t6.5 -165.5v-227q0 -260 -62 -383
t-216 -123z" />
    <glyph glyph-name="c" unicode="c" horiz-adv-x="768" 
d="M393 -19q-78 0 -133.5 24.5t-87 63.5t-49.5 102.5t-23.5 125t-5.5 148.5v278q0 266 64.5 373t234.5 107q72 0 124.5 -19.5t83.5 -52t49.5 -83.5t25 -104t6.5 -124v-48h-102v47q0 174 -42.5 238t-143.5 64q-116 0 -153.5 -82.5t-37.5 -302.5v-307q0 -202 39.5 -284
t152.5 -82q114 0 149.5 73t35.5 261v46h102v-44q0 -56 -2.5 -98t-9.5 -88t-20 -78.5t-34.5 -63t-51.5 -49.5t-73.5 -30t-97.5 -11z" />
    <glyph glyph-name="d" unicode="d" horiz-adv-x="808" 
d="M388 66q105 0 194 100v849q-101 103 -198 103q-109 0 -145 -88t-36 -307v-246q0 -224 38.5 -317.5t146.5 -93.5zM372 -19q-152 0 -215 116.5t-63 388.5v211q0 264 58.5 385t214.5 121q125 -1 215 -110v565h109v-1658h-109v90q-90 -109 -210 -109z" />
    <glyph glyph-name="e" unicode="e" 
d="M203 684h378v92q0 71 -3 118t-14 94t-30.5 73.5t-53.5 43t-82 16.5q-71 0 -111 -27.5t-62 -104t-22 -215.5v-90zM396 -19q-59 0 -104 12.5t-83.5 43.5t-63 82t-38 131t-13.5 188v316q0 109 14 189t38.5 129.5t64 79t83.5 40.5t104 11q163 0 227 -106.5t64 -364.5l-2 -113
h-484v-189q0 -209 43.5 -288t148.5 -79q30 0 52.5 4t49.5 18.5t44 40t28.5 73t11.5 113.5v88h107v-78q0 -164 -67 -252.5t-225 -88.5z" />
    <glyph glyph-name="f" unicode="f" horiz-adv-x="525" 
d="M195 0v1107h-160v77h160v160q0 53 2.5 86.5t13.5 71.5t31 59.5t56.5 36t88.5 14.5q58 0 109 -14v-83q-65 12 -87 12q-66 0 -86 -39t-20 -142v-162h198v-77h-198v-1107h-108z" />
    <glyph glyph-name="g" unicode="g" horiz-adv-x="878" 
d="M423 456q227 0 227 339q0 42 -5.5 82.5t-21 86.5t-39.5 80t-66 56.5t-96 22.5t-96.5 -24t-67 -59.5t-40.5 -82t-21.5 -86t-5.5 -76.5q0 -44 4.5 -84.5t19.5 -89t39 -83.5t67.5 -58.5t101.5 -23.5zM413 -313q129 0 209.5 42.5t80.5 128.5q0 47 -19 77.5t-76.5 58
t-164.5 49.5l-130 22q-189 -108 -189 -231q0 -147 289 -147zM414 -401q-384 0 -384 209q0 83 62.5 156.5t149.5 118.5q-55 14 -99 38t-44 52q0 87 147 255q-155 109 -155 367q0 76 19 146.5t57.5 130t103.5 95.5t149 36q177 0 261 -158q22 40 66.5 79t93.5 59l29 12l32 -82
q-53 -13 -106.5 -47t-84.5 -73q15 -38 26.5 -100t11.5 -101q0 -188 -80 -302t-246 -114q-73 0 -126 22q-6 -10 -39 -58t-49.5 -80t-16.5 -54q0 -20 98 -41q33 -9 107.5 -23t86.5 -17q154 -34 232 -94.5t78 -169.5q0 -67 -30.5 -119t-84 -82.5t-120.5 -45.5t-145 -15z" />
    <glyph glyph-name="h" unicode="h" horiz-adv-x="802" 
d="M117 0v1658h109v-600q125 145 281 145q85 0 136 -62.5t51 -196.5v-944h-110v932q0 103 -31.5 144.5t-92.5 41.5q-114 0 -234 -130v-988h-109z" />
    <glyph glyph-name="i" unicode="i" horiz-adv-x="388" 
d="M134 1339v189h109v-189h-109zM134 0v1184h109v-1184h-109z" />
    <glyph glyph-name="j" unicode="j" horiz-adv-x="414" 
d="M165 1339v189h110v-189h-110zM-32 -313v87q8 -2 48 -2q41 0 70 11t44 25.5t23.5 41t10 47t1.5 52.5v1235h109v-1242q0 -137 -62.5 -198t-182.5 -61q-50 0 -61 4z" />
    <glyph glyph-name="k" unicode="k" horiz-adv-x="785" 
d="M117 1v1658h109v-1093l439 618h118l-311 -453l293 -731h-109l-266 666l-164 -222v-443h-109z" />
    <glyph glyph-name="l" unicode="l" horiz-adv-x="380" 
d="M137 0v1658h109v-1658h-109z" />
    <glyph glyph-name="m" unicode="m" horiz-adv-x="1275" 
d="M116 0v1184h104v-125q57 69 128.5 107t149.5 38q148 0 184 -158q58 76 133 117t156 41q85 0 140.5 -61t55.5 -207v-936h-105v939q0 107 -33 147.5t-93 40.5q-124 0 -245 -139q3 -24 3 -52v-936h-105v939q0 107 -33 147.5t-93 40.5q-61 0 -124 -36.5t-119 -100.5v-990
h-104z" />
    <glyph glyph-name="n" unicode="n" horiz-adv-x="801" 
d="M116 0v1184h109v-127q124 146 281 146q85 0 135.5 -62.5t50.5 -196.5v-944h-109v932q0 103 -31.5 144.5t-92.5 41.5q-58 0 -119 -35.5t-115 -95.5v-987h-109z" />
    <glyph glyph-name="o" unicode="o" horiz-adv-x="784" 
d="M392 -19q-170 0 -234 108t-64 343v320q0 234 64.5 342.5t233.5 108.5q87 0 145.5 -28t92 -87.5t47 -139.5t13.5 -196v-320q0 -235 -64 -343t-234 -108zM392 63q42 0 73.5 10.5t52 34t33.5 51.5t19.5 73.5t8.5 88.5t2 107v328q0 77 -3 126.5t-14 99t-31 77.5t-55 45
t-86 17t-86 -17t-55 -45t-31 -77.5t-14 -99t-3 -126.5v-328q0 -64 2 -107t8.5 -88.5t19.5 -73.5t33.5 -51.5t52 -34t73.5 -10.5z" />
    <glyph glyph-name="p" unicode="p" horiz-adv-x="819" 
d="M430 66q107 0 144.5 95.5t37.5 322.5v231q0 224 -35.5 313.5t-145.5 89.5q-105 0 -205 -110v-835q90 -107 204 -107zM117 -390v1574h109v-101q93 120 227 120q80 0 133.5 -33.5t82 -101t40 -151.5t11.5 -203v-227q0 -260 -61.5 -383t-215.5 -123q-122 0 -217 117v-488
h-109z" />
    <glyph glyph-name="q" unicode="q" horiz-adv-x="812" 
d="M393 66q105 0 195 101v847q-99 104 -199 104q-109 0 -145 -88t-36 -307v-246q0 -224 38.5 -317.5t146.5 -93.5zM588 -390v481q-91 -110 -211 -110q-152 0 -215 116.5t-63 388.5v211q0 264 58.5 385t214.5 121q127 -1 216 -111v92h109v-1574h-109z" />
    <glyph glyph-name="r" unicode="r" horiz-adv-x="580" 
d="M132 0v1184h108v-160q50 83 128 127.5t152 44.5q1 0 9.5 -0.5t10.5 -0.5v-113q-18 6 -44 6q-166 0 -256 -153v-935h-108z" />
    <glyph glyph-name="s" unicode="s" horiz-adv-x="730" 
d="M384 -19q-138 0 -220 90t-95 248l92 27q21 -283 228 -283q88 0 138 49.5t50 139.5q0 135 -173 281l-137 116q-91 76 -131 144t-40 154q0 121 72.5 188.5t196.5 67.5q128 0 195.5 -82t72.5 -229l-81 -24q-8 253 -182 253q-79 0 -126.5 -41t-47.5 -116q0 -70 24.5 -118
t96.5 -109l141 -125q51 -44 80.5 -73t65 -75t52.5 -98t18 -113q0 -128 -78 -200t-212 -72z" />
    <glyph glyph-name="t" unicode="t" horiz-adv-x="538" 
d="M376 -13q-48 0 -82.5 13t-55 33.5t-32 54t-15 67t-3.5 79.5v878h-155v72h155v378h108v-378h201v-72h-201v-865q0 -101 20 -137.5t84 -36.5q31 0 87 10v-82q-51 -14 -111 -14z" />
    <glyph glyph-name="u" unicode="u" horiz-adv-x="808" 
d="M292 -19q-85 0 -135.5 62.5t-50.5 196.5v944h109v-932q0 -103 31.5 -144.5t92.5 -41.5t124.5 38.5t119.5 103.5v976h108v-1184h-108v139q-59 -74 -134 -116t-157 -42z" />
    <glyph glyph-name="v" unicode="v" horiz-adv-x="731" 
d="M311 0l-272 1184h110l222 -1046l216 1046h105l-259 -1184h-122z" />
    <glyph glyph-name="w" unicode="w" horiz-adv-x="1160" 
d="M263 0l-196 1184h96l165 -1060l202 1060h106l207 -1055l154 1055h96l-189 -1184h-113l-206 1039l-199 -1039h-123z" />
    <glyph glyph-name="x" unicode="x" horiz-adv-x="767" 
d="M41 0l289 617l-271 567h112l221 -470l219 470h112l-280 -578l285 -606h-103l-242 504l-235 -504h-107z" />
    <glyph glyph-name="y" unicode="y" horiz-adv-x="767" 
d="M76 -295v88q104 0 161.5 17t76 45t18.5 76q0 16 -1 25q-3 31 -34 164l-248 1064h107l234 -1081l224 1081h109l-289 -1281q-24 -105 -97 -151.5t-216 -46.5h-45z" />
    <glyph glyph-name="z" unicode="z" horiz-adv-x="666" 
d="M66 0v79l427 1021h-382v84h494v-71l-424 -1030h416v-83h-531z" />
    <glyph glyph-name="braceleft" unicode="{" horiz-adv-x="475" 
d="M439 -305q-38 0 -65 1t-51.5 7t-41 11.5t-31 21.5t-22.5 28.5t-15 41t-10 51.5t-5 68t-2.5 82t-0.5 101v250q0 172 -22.5 229t-96.5 57v94q74 0 96.5 57t22.5 229v237q0 64 0.5 101t2.5 82t5 68t10 51.5t15 41t22.5 28.5t31 21.5t41 11.5t51.5 7t65 1v-82
q-101 0 -119 -46t-18 -285v-269q0 -153 -24 -217t-87 -84q63 -20 87 -84t24 -217v-282q0 -238 18 -284t119 -46v-83z" />
    <glyph glyph-name="bar" unicode="|" horiz-adv-x="418" 
d="M158 -289v1947h102v-1947h-102z" />
    <glyph glyph-name="braceright" unicode="}" horiz-adv-x="487" 
d="M48 -305v83q101 0 119 46t18 284v282q0 153 24 217t87 84q-63 20 -87 84t-24 217v269q0 239 -18 285t-119 46v82q38 0 65 -1t51.5 -7t41 -11.5t31 -21.5t22.5 -28.5t15 -41t10 -51.5t5 -68t2.5 -82t0.5 -101v-237q0 -172 22.5 -229t96.5 -57v-94q-74 0 -96.5 -57
t-22.5 -229v-250q0 -64 -0.5 -101t-2.5 -82t-5 -68t-10 -51.5t-15 -41t-22.5 -28.5t-31 -21.5t-41 -11.5t-51.5 -7t-65 -1z" />
    <glyph glyph-name="asciitilde" unicode="~" horiz-adv-x="783" 
d="M527 781q-41 0 -139.5 56t-129.5 56q-47 0 -135 -85l-40 50q102 117 182 117q40 0 137.5 -55t126.5 -55q27 0 52 15t79 58l40 -50q-107 -107 -173 -107z" />
    <glyph glyph-name="uni00A0" unicode="&#xa0;" horiz-adv-x="388" 
 />
    <glyph glyph-name="exclamdown" unicode="&#xa1;" horiz-adv-x="404" 
d="M142 1092v151h123v-151h-123zM139 -415l44 1301h39l41 -1301h-124z" />
    <glyph glyph-name="cent" unicode="&#xa2;" horiz-adv-x="776" 
d="M349 -229v212q-66 6 -113 33.5t-74.5 67t-43 101t-20 120.5t-4.5 140v278q0 254 57.5 361.5t208.5 117.5v207h57v-207q66 -4 114 -25t76.5 -53.5t45.5 -82.5t23 -101.5t6 -119.5v-48h-102v47q0 174 -42.5 238t-143.5 64q-116 0 -153.5 -82.5t-37.5 -302.5v-307
q0 -202 39.5 -284t152.5 -82q114 0 149.5 73t35.5 261v46h102v-44q0 -79 -5 -133.5t-21.5 -111.5t-45.5 -91.5t-80.5 -57t-123.5 -24.5v-210h-57z" />
    <glyph glyph-name="sterling" unicode="&#xa3;" horiz-adv-x="740" 
d="M32 0v56l127 23v725h-127v80h127v261q0 76 2.5 131.5t10 114t21 99.5t36 78.5t54 60t76 35.5t101.5 13q61 0 105.5 -17t71.5 -44.5t43 -71.5t21.5 -89.5t6.5 -106.5v-41h-83q0 159 -32.5 223t-134.5 64q-38 0 -67.5 -10.5t-49.5 -26.5t-34 -46t-21.5 -59t-12 -76.5
t-5.5 -86t-1 -100.5v-305h289v-80h-289v-725h436v-79h-671z" />
    <glyph glyph-name="currency" unicode="&#xa4;" horiz-adv-x="1048" 
d="M527 486q155 0 261.5 111.5t106.5 268.5q0 158 -106 269t-262 111q-155 0 -261.5 -111t-106.5 -269q0 -157 106.5 -268.5t261.5 -111.5zM72 381l-30 30l163 162q-111 124 -111 293t111 293l-163 162l30 30l162 -162q121 115 289 115h4h4q168 0 289 -115l162 162l30 -30
l-162 -162q110 -125 110 -293q0 -169 -111 -293l163 -162l-30 -30l-162 162q-121 -115 -289 -115h-4h-4q-168 0 -289 115z" />
    <glyph glyph-name="yen" unicode="&#xa5;" horiz-adv-x="860" 
d="M387 0v219h-217v74h217v215h-217v73h200l-366 1077h115l325 -995l310 995h114l-353 -1077h196v-73h-213v-215h213v-74h-213v-219h-111z" />
    <glyph glyph-name="brokenbar" unicode="&#xa6;" horiz-adv-x="401" 
d="M153 801v857h96v-857h-96zM153 -368v857h96v-857h-96z" />
    <glyph glyph-name="section" unicode="&#xa7;" horiz-adv-x="787" 
d="M501 555q52 23 92.5 64t46.5 96q2 18 2 27q0 58 -32 110t-102 113l-186 164q-66 -20 -105.5 -63t-39.5 -106q0 -72 75 -149zM401 -19q-65 0 -118.5 26t-91 71.5t-62.5 100t-41 119.5l84 28q25 -111 85 -185t147 -74q83 0 135 47t53 126v11q0 51 -34 110.5t-145 170.5
l-226 210q-113 101 -113 215q0 87 53 145t133 85q-66 63 -103 119.5t-37 120.5q0 109 74.5 178.5t201.5 69.5q61 0 110.5 -25.5t83.5 -71.5t55 -90t40 -101l-88 -28q-11 34 -21 59.5t-29 59.5t-39 56t-50.5 37.5t-65.5 15.5q-73 0 -120 -43t-47 -122q0 -89 140 -218
l210 -176q78 -69 118 -134.5t40 -149.5q0 -9 -2 -29q-6 -83 -50 -132.5t-116 -86.5q68 -80 89 -118q34 -61 35 -122v-6q0 -124 -79.5 -196.5t-208.5 -72.5z" />
    <glyph glyph-name="dieresis" unicode="&#xa8;" horiz-adv-x="762" 
d="M477 1504v154h114v-154h-114zM151 1504v154h113v-154h-113z" />
    <glyph glyph-name="copyright" unicode="&#xa9;" horiz-adv-x="1765" 
d="M883 -22q-122 0 -229.5 26t-190 72.5t-150 111t-114 140.5t-78.5 162t-46.5 174t-14.5 179q0 129 29 250.5t93 234t158 196.5t233.5 134t309.5 50q142 0 263.5 -35t210 -97t156.5 -144t109.5 -179.5t62 -200t20.5 -209.5q0 -91 -14.5 -179.5t-46 -174.5t-78 -161.5
t-114 -140t-150 -111t-189.5 -72.5t-230 -26zM885 39q152 0 277.5 45t212 121.5t146 180.5t87 219.5t27.5 239.5q0 125 -27.5 240t-87 218t-146 178.5t-212 120t-277.5 44.5t-278.5 -44.5t-212.5 -120t-145.5 -178.5t-87 -218t-27.5 -240q0 -124 27.5 -239.5t87 -219.5
t145.5 -180.5t212.5 -121.5t278.5 -45zM857 245q-72 0 -127 16t-90.5 49.5t-59 74.5t-35 101t-16 117t-4.5 135v241q0 117 10 199.5t32.5 144t61.5 96.5t94 52t133 17q80 0 137.5 -19t91.5 -51t53.5 -84.5t26 -107t6.5 -132.5v-56h-105v55q0 98 -11.5 159t-39.5 93.5
t-63.5 43.5t-94.5 11q-131 0 -173.5 -85.5t-42.5 -322.5v-271q0 -217 45.5 -302.5t171.5 -85.5q54 0 90 11t60 32.5t36.5 64t17 95t4.5 134.5v56h105v-53q0 -62 -2 -105.5t-9.5 -91.5t-21 -80t-37 -63t-56.5 -49t-80 -28.5t-108 -10.5z" />
    <glyph glyph-name="ordfeminine" unicode="&#xaa;" horiz-adv-x="803" 
d="M374 794q122 0 194 133v291q-189 -86 -238 -119q-69 -47 -84 -109q-6 -25 -6 -59q0 -72 39.5 -104.5t94.5 -32.5zM354 719q-95 0 -152 55t-57 147q0 61 16 101t66.5 81t126 77.5t214.5 92.5v78q0 144 -31 200t-108 56q-165 0 -165 -185l-90 2q6 256 255 256
q132 0 183 -78.5t51 -259.5v-609h-82l-8 119q-27 -59 -87 -96t-132 -37z" />
    <glyph glyph-name="guillemotleft" unicode="&#xab;" horiz-adv-x="837" 
d="M724 232l-345 426v43l345 425v-140l-245 -306l245 -308v-140zM428 232l-344 426v43l344 425v-140l-245 -303l245 -311v-140z" />
    <glyph glyph-name="logicalnot" unicode="&#xac;" horiz-adv-x="715" 
d="M577 582v230h-493v90h570v-320h-77z" />
    <glyph glyph-name="uni00AD" unicode="&#xad;" horiz-adv-x="672" 
d="M117 639v85h450v-85h-450z" />
    <glyph glyph-name="registered" unicode="&#xae;" horiz-adv-x="1780" 
d="M891 -24q-169 0 -309 50t-233 134t-157.5 196.5t-93 233.5t-28.5 249q0 106 20.5 208.5t62 200t109.5 179.5t156.5 143.5t209.5 96.5t263 35q169 0 308 -50t232.5 -133.5t157.5 -196t92.5 -234t28.5 -249.5q0 -129 -28.5 -250t-92.5 -233.5t-157 -196t-232.5 -133.5
t-308.5 -50zM891 42q150 0 274.5 44.5t210 120.5t144.5 178.5t86 217t27 237.5q0 124 -27 238t-86 216t-144.5 177.5t-210 119.5t-274.5 44q-151 0 -276 -44t-210.5 -119.5t-144.5 -177.5t-86 -216t-27 -238q0 -123 27 -237.5t86 -217t144.5 -178.5t210.5 -120.5t276 -44.5z
M718 908h228q62 0 102.5 16.5t61.5 51.5t28.5 77t7.5 105q0 122 -42 180.5t-149 58.5h-237v-489zM621 226v1245h344q281 0 281 -314q0 -56 -10 -103.5t-32.5 -89t-63 -69.5t-96.5 -38l211 -631h-101l-202 615h-234v-615h-97z" />
    <glyph glyph-name="macron" unicode="&#xaf;" horiz-adv-x="758" 
d="M209 1583v75h350v-75h-350z" />
    <glyph glyph-name="degree" unicode="&#xb0;" horiz-adv-x="797" 
d="M399 1127q-53 0 -100.5 15.5t-87.5 47.5t-63.5 86.5t-23.5 125.5q0 137 80.5 205.5t194.5 68.5q53 0 100.5 -15.5t87.5 -47.5t63.5 -86t23.5 -125q0 -137 -81 -206t-194 -69zM399 1202q79 0 133 50t54 149q0 101 -54.5 151.5t-133.5 50.5t-132.5 -50.5t-53.5 -151.5
q0 -99 54 -149t133 -50z" />
    <glyph glyph-name="plusminus" unicode="&#xb1;" horiz-adv-x="659" 
d="M100 0v98h478v-98h-478zM288 375v188h-188v98h188v187h102v-187h188v-98h-188v-188h-102z" />
    <glyph glyph-name="twosuperior" unicode="&#xb2;" horiz-adv-x="820" 
d="M165 722v74l282 428q8 13 29.5 45.5t29.5 45.5t22.5 40.5t20.5 47t11 48.5t5 60q0 189 -144 189q-58 0 -96.5 -36t-53 -86t-14.5 -110h-86v23q0 146 60 217.5t188 71.5q115 0 178.5 -68t63.5 -196q0 -86 -30 -155.5t-95 -167.5l-261 -389h354v-82h-464z" />
    <glyph glyph-name="threesuperior" unicode="&#xb3;" horiz-adv-x="823" 
d="M408 709q-238 0 -238 259v30h102v-35q0 -167 138 -167q72 0 115 49.5t43 153.5q0 98 -38.5 158t-103.5 60h-81v84h80q137 0 137 221q0 86 -35.5 130t-102.5 44q-77 0 -112.5 -40t-35.5 -120v-37h-103v33q0 115 61.5 181.5t187.5 66.5q118 0 177.5 -71t59.5 -191
q0 -109 -40 -175t-95 -79q141 -51 141 -258q0 -135 -65.5 -216t-191.5 -81z" />
    <glyph glyph-name="acute" unicode="&#xb4;" horiz-adv-x="422" 
d="M87 1261l132 397h110l-184 -397h-58z" />
    <glyph glyph-name="mu" unicode="&#xb5;" horiz-adv-x="835" 
d="M106 -353v1537h109v-932q0 -103 31.5 -144.5t92.5 -41.5t124.5 38.5t119.5 103.5v976h108v-1184h-108v139q-114 -146 -267 -155q-63 0 -100 33v-370h-110z" />
    <glyph glyph-name="paragraph" unicode="&#xb6;" horiz-adv-x="984" 
d="M412 -192v1295h-7q-165 0 -257.5 71.5t-92.5 203.5q0 130 86.5 205t267.5 75h421v-1850h-82v1777h-254v-1777h-82z" />
    <glyph glyph-name="periodcentered" unicode="&#xb7;" horiz-adv-x="399" 
d="M166 697v153h112v-153h-112z" />
    <glyph glyph-name="cedilla" unicode="&#xb8;" horiz-adv-x="428" 
d="M54 -378v58q18 -1 50 -1q69 0 100 17t34 56v10q0 90 -140 111v127h60v-97q76 -10 120 -53t44 -97v-8q-6 -126 -200 -126q-32 0 -68 3z" />
    <glyph glyph-name="onesuperior" unicode="&#xb9;" horiz-adv-x="800" 
d="M400 721l-1 926q-23 -33 -77.5 -57.5t-104.5 -35.5v72q125 43 193 142h81l1 -1047h-92z" />
    <glyph glyph-name="ordmasculine" unicode="&#xba;" horiz-adv-x="803" 
d="M400 787q103 0 143.5 60.5t40.5 172.5v359q0 111 -40.5 171.5t-143.5 60.5q-101 0 -142.5 -60.5t-41.5 -171.5v-359q0 -112 40.5 -172.5t143.5 -60.5zM401 718q-79 0 -133.5 21t-83.5 63t-41 93.5t-12 122.5v363q0 144 61 221.5t209 77.5q147 0 209 -78.5t62 -220.5v-363
q0 -70 -12.5 -121.5t-42 -93.5t-83.5 -63.5t-133 -21.5z" />
    <glyph glyph-name="guillemotright" unicode="&#xbb;" horiz-adv-x="850" 
d="M404 232v140l250 303l-250 311v140l349 -426v-43zM107 232v140l250 306l-250 308v140l351 -426v-43z" />
    <glyph glyph-name="onequarter" unicode="&#xbc;" horiz-adv-x="1542" 
d="M1007 358h235v557zM392 0l591 1658h98l-590 -1658h-99zM263 590v940l-153 -77v79q44 22 104 63t80 63h58v-1068h-89zM1242 -14v299h-319v70l318 706h95v-703h130v-73h-130v-299h-94z" />
    <glyph glyph-name="onehalf" unicode="&#xbd;" horiz-adv-x="1542" 
d="M395 0l591 1658h98l-590 -1658h-99zM276 590v940l-153 -77v79q44 22 104 63t80 63h58v-1068h-89zM996 -1v73l249 366q7 11 28 41l29 42t22.5 38t20.5 44.5t11 45.5t5 56q0 175 -131 175q-79 0 -112 -48t-33 -147h-87v15q1 129 58 191.5t174 62.5q107 0 167.5 -63
t60.5 -181q0 -81 -34.5 -153.5t-104.5 -167.5q-5 -5 -58 -81l-106.5 -153.5l-55.5 -80.5h334v-75h-437z" />
    <glyph glyph-name="threequarters" unicode="&#xbe;" horiz-adv-x="1542" 
d="M1024 358h235v557zM413 0l591 1658h98l-590 -1658h-99zM1259 -14v299h-320v70l319 706h92v-703h130v-73h-130v-299h-91zM283 700q-107 0 -161 60.5t-54 165.5l97 -4q0 -149 122 -149q138 0 138 190q0 92 -36 143t-101 51v75q67 0 99 45t32 150q0 163 -118 163
q-72 0 -102 -37t-30 -112l-97 -2q0 106 55.5 165.5t172.5 59.5q106 0 160.5 -66t54.5 -172t-41 -163.5t-103 -66.5q149 -36 149 -231q0 -121 -61 -193t-176 -72z" />
    <glyph glyph-name="questiondown" unicode="&#xbf;" horiz-adv-x="886" 
d="M395 1084v149h107v-149h-107zM395 -445q-78 0 -145.5 27t-120 79t-82.5 136.5t-30 192.5q0 132 44.5 240.5t126.5 196t215 177.5v220h95v-252q-203 -134 -290.5 -272.5t-87.5 -310.5q0 -167 79.5 -253t195.5 -86q112 0 180 52.5t68 148.5q0 36 -8 69l-16 73l96 24l18 -75
q12 -48 12 -99q0 -138 -99.5 -213t-250.5 -75z" />
    <glyph glyph-name="Agrave" unicode="&#xc0;" horiz-adv-x="959" 
d="M451 1799l-165 397h110l112 -397h-57zM281 541h398l-200 982zM66 0l348 1658h128l351 -1658h-112l-86 458h-430l-89 -458h-110z" />
    <glyph glyph-name="Aacute" unicode="&#xc1;" horiz-adv-x="959" 
d="M451 1799l132 397h110l-185 -397h-57zM281 541h398l-200 982zM66 0l348 1658h128l351 -1658h-112l-86 458h-430l-89 -458h-110z" />
    <glyph glyph-name="Acircumflex" unicode="&#xc2;" horiz-adv-x="959" 
d="M237 1799l177 367h136l173 -367h-77l-165 313l-164 -313h-80zM281 541h398l-200 982zM66 0l348 1658h128l351 -1658h-112l-86 458h-430l-89 -458h-110z" />
    <glyph glyph-name="Atilde" unicode="&#xc3;" horiz-adv-x="959" 
d="M568 1800q-39 3 -100 46.5t-81 46.5q-6 2 -18 2q-26 0 -41.5 -21t-15.5 -60h-75q0 13 2.5 29.5t10.5 40t21 42t37.5 31.5t55.5 13q18 0 28 -2q36 -5 98 -48t83 -46q5 -1 14 -1q61 0 65 92h70q0 -23 -4.5 -46.5t-17 -53t-41.5 -48t-71 -18.5q-13 0 -20 1zM281 541h398
l-200 982zM66 0l348 1658h128l351 -1658h-112l-86 458h-430l-89 -458h-110z" />
    <glyph glyph-name="Adieresis" unicode="&#xc4;" horiz-adv-x="959" 
d="M586 1799v154h114v-154h-114zM259 1799v154h114v-154h-114zM281 541h398l-200 982zM66 0l348 1658h128l351 -1658h-112l-86 458h-430l-89 -458h-110z" />
    <glyph glyph-name="Aring" unicode="&#xc5;" horiz-adv-x="959" 
d="M480 1728q46 0 77.5 27.5t31.5 83.5q0 57 -31.5 84.5t-77.5 27.5t-77 -27.5t-31 -84.5q0 -56 31 -83.5t77 -27.5zM480 1665q-72 0 -124.5 44t-52.5 130t52 130t125 44q71 0 123.5 -44t52.5 -130t-52.5 -130t-123.5 -44zM281 541h398l-200 982zM66 0l348 1658h128
l351 -1658h-112l-86 458h-430l-89 -458h-110z" />
    <glyph glyph-name="AE" unicode="&#xc6;" horiz-adv-x="1293" 
d="M303 548h341v941zM-31 0l643 1658h608v-97h-458v-650h327v-89h-327v-725h458v-97h-575v458h-374l-171 -458h-131z" />
    <glyph glyph-name="Ccedilla" unicode="&#xc7;" horiz-adv-x="1001" 
d="M414 -378v58q18 -1 50 -1q69 0 100 17t34 56v10q0 90 -140 111v127h60v-97q76 -10 120 -53t44 -97v-8q-6 -126 -200 -126q-32 0 -68 3zM523 -22q-96 0 -168 26t-116.5 69.5t-72 109t-38 136t-10.5 159.5v703q0 90 11.5 162t39.5 136t73.5 106.5t116 67t164.5 24.5
q106 0 180.5 -32.5t117 -96t61.5 -146t19 -192.5v-84h-106v85q0 190 -59 282.5t-213 92.5q-88 0 -147 -27.5t-90 -82.5t-43 -121.5t-12 -160.5v-734q0 -77 8 -135t28 -107.5t53 -81t84 -49t119 -17.5q81 0 135.5 26t83.5 78t41 116.5t12 155.5v100h106v-82
q0 -89 -10.5 -159.5t-37 -133t-68.5 -104t-108.5 -65.5t-153.5 -24z" />
    <glyph glyph-name="Egrave" unicode="&#xc8;" horiz-adv-x="804" 
d="M413 1799l-165 397h110l112 -397h-57zM152 0v1658h574v-89h-462v-665h379v-87h-379v-729h467v-88h-579z" />
    <glyph glyph-name="Eacute" unicode="&#xc9;" horiz-adv-x="804" 
d="M413 1799l132 397h110l-185 -397h-57zM152 0v1658h574v-89h-462v-665h379v-87h-379v-729h467v-88h-579z" />
    <glyph glyph-name="Ecircumflex" unicode="&#xca;" horiz-adv-x="804" 
d="M199 1799l177 367h136l173 -367h-77l-165 313l-164 -313h-80zM152 0v1658h574v-89h-462v-665h379v-87h-379v-729h467v-88h-579z" />
    <glyph glyph-name="Edieresis" unicode="&#xcb;" horiz-adv-x="804" 
d="M548 1799v154h114v-154h-114zM221 1799v154h114v-154h-114zM152 0v1658h574v-89h-462v-665h379v-87h-379v-729h467v-88h-579z" />
    <glyph glyph-name="Igrave" unicode="&#xcc;" horiz-adv-x="422" 
d="M183 1799l-165 397h110l112 -397h-57zM156 0v1658h111v-1658h-111z" />
    <glyph glyph-name="Iacute" unicode="&#xcd;" horiz-adv-x="422" 
d="M183 1799l132 397h110l-185 -397h-57zM156 0v1658h111v-1658h-111z" />
    <glyph glyph-name="Icircumflex" unicode="&#xce;" horiz-adv-x="422" 
d="M-31 1799l177 367h136l173 -367h-77l-165 313l-164 -313h-80zM156 0v1658h111v-1658h-111z" />
    <glyph glyph-name="Idieresis" unicode="&#xcf;" horiz-adv-x="422" 
d="M318 1799v154h114v-154h-114zM-9 1799v154h114v-154h-114zM156 0v1658h111v-1658h-111z" />
    <glyph glyph-name="Eth" unicode="&#xd0;" horiz-adv-x="1149" 
d="M153 0v836h-135v75h135v747h364q120 0 204.5 -36t131.5 -103t67.5 -149.5t20.5 -187.5v-688q0 -113 -20.5 -199t-66.5 -154.5t-128.5 -104.5t-199.5 -36h-373zM265 88h256q78 0 134.5 22.5t89.5 58.5t52 93t25 113t6 131v667q0 77 -8 135t-28.5 109t-55.5 83t-90 50.5
t-130 18.5h-251v-658h191v-75h-191v-748z" />
    <glyph glyph-name="Ntilde" unicode="&#xd1;" horiz-adv-x="1055" 
d="M617 1800q-39 3 -100 46.5t-81 46.5q-6 2 -18 2q-26 0 -41.5 -21t-15.5 -60h-75q0 13 2.5 29.5t10.5 40t21 42t37.5 31.5t55.5 13q18 0 28 -2q36 -5 98 -48t83 -46q5 -1 14 -1q61 0 65 92h70q0 -23 -4.5 -46.5t-17 -53t-41.5 -48t-71 -18.5q-13 0 -20 1zM153 0v1658h89
l562 -1400v1400h99v-1658h-88l-563 1403v-1403h-99z" />
    <glyph glyph-name="Ograve" unicode="&#xd2;" horiz-adv-x="1056" 
d="M499 1799l-165 397h110l112 -397h-57zM528 -22q-95 0 -167 24.5t-117.5 67t-74 106.5t-40 135.5t-11.5 160.5v724q0 88 12 158.5t41.5 132t76 102.5t117 64.5t163.5 23.5q115 0 196 -35t127 -101t66.5 -150.5t20.5 -194.5v-727q0 -89 -11.5 -160t-40 -134.5t-74.5 -105.5
t-117.5 -66.5t-166.5 -24.5zM528 70q87 0 146.5 26.5t91.5 78.5t45.5 117t13.5 155v765q0 90 -13 154.5t-45.5 116t-92 77.5t-146.5 26t-146.5 -26t-92 -77.5t-45.5 -116t-13 -154.5v-765q0 -90 13 -155t45.5 -117t92 -78.5t146.5 -26.5z" />
    <glyph glyph-name="Oacute" unicode="&#xd3;" horiz-adv-x="1056" 
d="M499 1799l132 397h110l-185 -397h-57zM528 -22q-95 0 -167 24.5t-117.5 67t-74 106.5t-40 135.5t-11.5 160.5v724q0 88 12 158.5t41.5 132t76 102.5t117 64.5t163.5 23.5q115 0 196 -35t127 -101t66.5 -150.5t20.5 -194.5v-727q0 -89 -11.5 -160t-40 -134.5t-74.5 -105.5
t-117.5 -66.5t-166.5 -24.5zM528 70q87 0 146.5 26.5t91.5 78.5t45.5 117t13.5 155v765q0 90 -13 154.5t-45.5 116t-92 77.5t-146.5 26t-146.5 -26t-92 -77.5t-45.5 -116t-13 -154.5v-765q0 -90 13 -155t45.5 -117t92 -78.5t146.5 -26.5z" />
    <glyph glyph-name="Ocircumflex" unicode="&#xd4;" horiz-adv-x="1056" 
d="M285 1799l177 367h136l173 -367h-77l-165 313l-164 -313h-80zM528 -22q-95 0 -167 24.5t-117.5 67t-74 106.5t-40 135.5t-11.5 160.5v724q0 88 12 158.5t41.5 132t76 102.5t117 64.5t163.5 23.5q115 0 196 -35t127 -101t66.5 -150.5t20.5 -194.5v-727q0 -89 -11.5 -160
t-40 -134.5t-74.5 -105.5t-117.5 -66.5t-166.5 -24.5zM528 70q87 0 146.5 26.5t91.5 78.5t45.5 117t13.5 155v765q0 90 -13 154.5t-45.5 116t-92 77.5t-146.5 26t-146.5 -26t-92 -77.5t-45.5 -116t-13 -154.5v-765q0 -90 13 -155t45.5 -117t92 -78.5t146.5 -26.5z" />
    <glyph glyph-name="Otilde" unicode="&#xd5;" horiz-adv-x="1056" 
d="M617 1800q-39 3 -100 46.5t-81 46.5q-6 2 -18 2q-26 0 -41.5 -21t-15.5 -60h-75q0 13 2.5 29.5t10.5 40t21 42t37.5 31.5t55.5 13q18 0 28 -2q36 -5 98 -48t83 -46q5 -1 14 -1q61 0 65 92h70q0 -23 -4.5 -46.5t-17 -53t-41.5 -48t-71 -18.5q-13 0 -20 1zM528 -22
q-95 0 -167 24.5t-117.5 67t-74 106.5t-40 135.5t-11.5 160.5v724q0 88 12 158.5t41.5 132t76 102.5t117 64.5t163.5 23.5q115 0 196 -35t127 -101t66.5 -150.5t20.5 -194.5v-727q0 -89 -11.5 -160t-40 -134.5t-74.5 -105.5t-117.5 -66.5t-166.5 -24.5zM528 70
q87 0 146.5 26.5t91.5 78.5t45.5 117t13.5 155v765q0 90 -13 154.5t-45.5 116t-92 77.5t-146.5 26t-146.5 -26t-92 -77.5t-45.5 -116t-13 -154.5v-765q0 -90 13 -155t45.5 -117t92 -78.5t146.5 -26.5z" />
    <glyph glyph-name="Odieresis" unicode="&#xd6;" horiz-adv-x="1056" 
d="M634 1799v154h114v-154h-114zM307 1799v154h114v-154h-114zM528 -22q-95 0 -167 24.5t-117.5 67t-74 106.5t-40 135.5t-11.5 160.5v724q0 88 12 158.5t41.5 132t76 102.5t117 64.5t163.5 23.5q115 0 196 -35t127 -101t66.5 -150.5t20.5 -194.5v-727q0 -89 -11.5 -160
t-40 -134.5t-74.5 -105.5t-117.5 -66.5t-166.5 -24.5zM528 70q87 0 146.5 26.5t91.5 78.5t45.5 117t13.5 155v765q0 90 -13 154.5t-45.5 116t-92 77.5t-146.5 26t-146.5 -26t-92 -77.5t-45.5 -116t-13 -154.5v-765q0 -90 13 -155t45.5 -117t92 -78.5t146.5 -26.5z" />
    <glyph glyph-name="multiply" unicode="&#xd7;" horiz-adv-x="687" 
d="M131 525l-58 58l212 213l-212 213l58 56l213 -211l212 211l58 -56l-212 -213l212 -213l-58 -58l-212 213z" />
    <glyph glyph-name="Oslash" unicode="&#xd8;" horiz-adv-x="1071" 
d="M308 151l401 1390q-68 45 -181 45q-87 0 -146.5 -26t-92 -77.5t-45.5 -116t-13 -154.5v-765q0 -209 77 -296zM528 70q87 0 146.5 26.5t91.5 78.5t45.5 117t13.5 155v765q0 48 -3.5 88t-11.5 77t-22.5 68t-34.5 55l-400 -1387q66 -43 175 -43zM264 -194l-51 15l64 222
q-86 60 -122.5 168t-36.5 261v724q0 88 12 158.5t41.5 132t76 102.5t117 64.5t163.5 23.5q123 0 209 -41l57 199l52 -14l-62 -213q154 -111 154 -412v-727q0 -89 -11.5 -160t-40 -134.5t-74.5 -105.5t-117.5 -66.5t-166.5 -24.5q-120 0 -203 38z" />
    <glyph glyph-name="Ugrave" unicode="&#xd9;" horiz-adv-x="1092" 
d="M517 1799l-165 397h110l112 -397h-57zM546 -22q-118 0 -200.5 30.5t-127.5 88t-64.5 128.5t-19.5 164v1269h109v-1271q0 -73 14 -127.5t47.5 -99t94 -67.5t147.5 -23q303 0 303 317v1271h109v-1269q0 -411 -412 -411z" />
    <glyph glyph-name="Uacute" unicode="&#xda;" horiz-adv-x="1092" 
d="M517 1799l132 397h110l-185 -397h-57zM546 -22q-118 0 -200.5 30.5t-127.5 88t-64.5 128.5t-19.5 164v1269h109v-1271q0 -73 14 -127.5t47.5 -99t94 -67.5t147.5 -23q303 0 303 317v1271h109v-1269q0 -411 -412 -411z" />
    <glyph glyph-name="Ucircumflex" unicode="&#xdb;" horiz-adv-x="1092" 
d="M303 1799l177 367h136l173 -367h-77l-165 313l-164 -313h-80zM546 -22q-118 0 -200.5 30.5t-127.5 88t-64.5 128.5t-19.5 164v1269h109v-1271q0 -73 14 -127.5t47.5 -99t94 -67.5t147.5 -23q303 0 303 317v1271h109v-1269q0 -411 -412 -411z" />
    <glyph glyph-name="Udieresis" unicode="&#xdc;" horiz-adv-x="1092" 
d="M652 1799v154h114v-154h-114zM325 1799v154h114v-154h-114zM546 -22q-118 0 -200.5 30.5t-127.5 88t-64.5 128.5t-19.5 164v1269h109v-1271q0 -73 14 -127.5t47.5 -99t94 -67.5t147.5 -23q303 0 303 317v1271h109v-1269q0 -411 -412 -411z" />
    <glyph glyph-name="Yacute" unicode="&#xdd;" horiz-adv-x="946" 
d="M445 1799l132 397h110l-185 -397h-57zM424 0v530l-383 1128h115l325 -995l310 995h114l-370 -1128v-530h-111z" />
    <glyph glyph-name="Thorn" unicode="&#xde;" horiz-adv-x="1034" 
d="M265 610h283q155 0 229 90.5t74 288.5q0 360 -294 360h-292v-739zM153 0v1658h112v-212h311q106 0 184 -36.5t121.5 -101t64 -143t20.5 -172.5q0 -71 -10 -134t-37.5 -128t-71 -112t-116 -76.5t-166.5 -29.5h-300v-513h-112z" />
    <glyph glyph-name="germandbls" unicode="&#xdf;" horiz-adv-x="958" 
d="M334 -22v91q91 0 163 17t119 49t79.5 70.5t49 87.5t23.5 94.5t7 98.5q0 63 -9.5 117.5t-32.5 106.5t-59 89t-93.5 59.5t-130.5 22.5l5 91q235 0 235 327q0 156 -56 234.5t-177 78.5q-59 0 -98.5 -14t-71.5 -51.5t-47 -110t-15 -184.5v-1252h-109v1250q0 130 21.5 218
t66 138t104 71t145.5 21q161 0 252 -101t91 -298q0 -303 -199 -366q78 -17 135 -60.5t88.5 -105t46 -129.5t14.5 -146q0 -514 -547 -514z" />
    <glyph glyph-name="agrave" unicode="&#xe0;" 
d="M348 1325l-165 397h110l112 -397h-57zM342 71q71 0 127 47t92 119v390q-201 -104 -254 -141q-84 -58 -107 -128q-14 -42 -14 -103q0 -97 45.5 -140.5t110.5 -43.5zM316 -19q-107 0 -172.5 72t-65.5 187q0 79 17.5 131.5t74 106.5t144.5 104t247 124v85q0 130 -16.5 201
t-51 99.5t-96.5 28.5q-39 0 -69.5 -9t-59.5 -31.5t-44.5 -69t-15.5 -113.5v-33l-106 2q0 28 1 32q4 161 78.5 233t219.5 72q148 0 208.5 -93t60.5 -308v-596q0 -169 5 -206h-93q-15 134 -18 157q-28 -77 -95 -126.5t-153 -49.5z" />
    <glyph glyph-name="aacute" unicode="&#xe1;" 
d="M348 1325l132 397h110l-185 -397h-57zM342 71q71 0 127 47t92 119v390q-201 -104 -254 -141q-84 -58 -107 -128q-14 -42 -14 -103q0 -97 45.5 -140.5t110.5 -43.5zM316 -19q-107 0 -172.5 72t-65.5 187q0 79 17.5 131.5t74 106.5t144.5 104t247 124v85q0 130 -16.5 201
t-51 99.5t-96.5 28.5q-39 0 -69.5 -9t-59.5 -31.5t-44.5 -69t-15.5 -113.5v-33l-106 2q0 28 1 32q4 161 78.5 233t219.5 72q148 0 208.5 -93t60.5 -308v-596q0 -169 5 -206h-93q-15 134 -18 157q-28 -77 -95 -126.5t-153 -49.5z" />
    <glyph glyph-name="acircumflex" unicode="&#xe2;" 
d="M133 1325l177 367h136l173 -367h-77l-165 313l-164 -313h-80zM342 71q71 0 127 47t92 119v390q-201 -104 -254 -141q-84 -58 -107 -128q-14 -42 -14 -103q0 -97 45.5 -140.5t110.5 -43.5zM316 -19q-107 0 -172.5 72t-65.5 187q0 79 17.5 131.5t74 106.5t144.5 104
t247 124v85q0 130 -16.5 201t-51 99.5t-96.5 28.5q-39 0 -69.5 -9t-59.5 -31.5t-44.5 -69t-15.5 -113.5v-33l-106 2q0 28 1 32q4 161 78.5 233t219.5 72q148 0 208.5 -93t60.5 -308v-596q0 -169 5 -206h-93q-15 134 -18 157q-28 -77 -95 -126.5t-153 -49.5z" />
    <glyph glyph-name="atilde" unicode="&#xe3;" 
d="M465 1326q-39 3 -100 46.5t-81 46.5q-6 2 -18 2q-26 0 -41.5 -21t-15.5 -60h-75q0 13 2.5 29.5t10.5 40t21 42t37.5 31.5t55.5 13q18 0 28 -2q36 -5 98 -48t83 -46q5 -1 14 -1q61 0 65 92h70q0 -23 -4.5 -46.5t-17 -53t-41.5 -48t-71 -18.5q-13 0 -20 1zM342 71
q71 0 127 47t92 119v390q-201 -104 -254 -141q-84 -58 -107 -128q-14 -42 -14 -103q0 -97 45.5 -140.5t110.5 -43.5zM316 -19q-107 0 -172.5 72t-65.5 187q0 79 17.5 131.5t74 106.5t144.5 104t247 124v85q0 130 -16.5 201t-51 99.5t-96.5 28.5q-39 0 -69.5 -9t-59.5 -31.5
t-44.5 -69t-15.5 -113.5v-33l-106 2q0 28 1 32q4 161 78.5 233t219.5 72q148 0 208.5 -93t60.5 -308v-596q0 -169 5 -206h-93q-15 134 -18 157q-28 -77 -95 -126.5t-153 -49.5z" />
    <glyph glyph-name="adieresis" unicode="&#xe4;" 
d="M483 1325v154h114v-154h-114zM156 1325v154h114v-154h-114zM342 71q71 0 127 47t92 119v390q-201 -104 -254 -141q-84 -58 -107 -128q-14 -42 -14 -103q0 -97 45.5 -140.5t110.5 -43.5zM316 -19q-107 0 -172.5 72t-65.5 187q0 79 17.5 131.5t74 106.5t144.5 104t247 124
v85q0 130 -16.5 201t-51 99.5t-96.5 28.5q-39 0 -69.5 -9t-59.5 -31.5t-44.5 -69t-15.5 -113.5v-33l-106 2q0 28 1 32q4 161 78.5 233t219.5 72q148 0 208.5 -93t60.5 -308v-596q0 -169 5 -206h-93q-15 134 -18 157q-28 -77 -95 -126.5t-153 -49.5z" />
    <glyph glyph-name="aring" unicode="&#xe5;" 
d="M377 1388q46 0 77.5 27.5t31.5 83.5q0 57 -31.5 84.5t-77.5 27.5t-77 -27.5t-31 -84.5q0 -56 31 -83.5t77 -27.5zM377 1325q-72 0 -124.5 44t-52.5 130t52 130t125 44q71 0 123.5 -44t52.5 -130t-52.5 -130t-123.5 -44zM342 71q71 0 127 47t92 119v390
q-201 -104 -254 -141q-84 -58 -107 -128q-14 -42 -14 -103q0 -97 45.5 -140.5t110.5 -43.5zM316 -19q-107 0 -172.5 72t-65.5 187q0 79 17.5 131.5t74 106.5t144.5 104t247 124v85q0 130 -16.5 201t-51 99.5t-96.5 28.5q-39 0 -69.5 -9t-59.5 -31.5t-44.5 -69t-15.5 -113.5
v-33l-106 2q0 28 1 32q4 161 78.5 233t219.5 72q148 0 208.5 -93t60.5 -308v-596q0 -169 5 -206h-93q-15 134 -18 157q-28 -77 -95 -126.5t-153 -49.5z" />
    <glyph glyph-name="ae" unicode="&#xe6;" horiz-adv-x="1239" 
d="M672 687l210 73q92 31 125.5 70t33.5 109q0 75 -42 126t-132 51q-103 0 -149 -71.5t-46 -258.5v-99zM342 66q33 0 63.5 10.5t59.5 38t50.5 69t34.5 108.5t13 152v145q-4 -1 -75 -29.5t-75 -29.5q-75 -30 -121.5 -60t-69.5 -63.5t-30 -64.5t-7 -77v-15q2 -97 48 -140.5
t109 -43.5zM316 -19q-107 2 -172.5 73t-65.5 186q0 48 5.5 83.5t24 76.5t51 73t89.5 65t137 62l178 62v129q0 127 -18.5 199t-54 100.5t-95.5 28.5q-192 0 -192 -232l-103 4q0 156 77 234t221 78q90 0 148.5 -50t70.5 -144q23 102 91.5 148t158.5 46q130 0 202 -76t72 -196
q0 -88 -60.5 -144.5t-179.5 -94.5l-229 -78v-157q0 -212 44.5 -301t147.5 -89q29 0 51 4t47.5 19t42 41t27.5 74t11 113v82h108v-79q0 -79 -14 -139t-46 -106.5t-89 -70.5t-138 -24q-101 0 -172 56t-88 183q-16 -65 -47 -113.5t-70.5 -74.5t-79.5 -38.5t-81 -12.5h-10z" />
    <glyph glyph-name="ccedilla" unicode="&#xe7;" horiz-adv-x="768" 
d="M314 -378v58q18 -1 50 -1q69 0 100 17t34 56v10q0 90 -140 111v127h60v-97q76 -10 120 -53t44 -97v-8q-6 -126 -200 -126q-32 0 -68 3zM393 -19q-78 0 -133.5 24.5t-87 63.5t-49.5 102.5t-23.5 125t-5.5 148.5v278q0 266 64.5 373t234.5 107q72 0 124.5 -19.5t83.5 -52
t49.5 -83.5t25 -104t6.5 -124v-48h-102v47q0 174 -42.5 238t-143.5 64q-116 0 -153.5 -82.5t-37.5 -302.5v-307q0 -202 39.5 -284t152.5 -82q114 0 149.5 73t35.5 261v46h102v-44q0 -56 -2.5 -98t-9.5 -88t-20 -78.5t-34.5 -63t-51.5 -49.5t-73.5 -30t-97.5 -11z" />
    <glyph glyph-name="egrave" unicode="&#xe8;" 
d="M363 1325l-165 397h110l112 -397h-57zM203 684h378v92q0 71 -3 118t-14 94t-30.5 73.5t-53.5 43t-82 16.5q-71 0 -111 -27.5t-62 -104t-22 -215.5v-90zM396 -19q-59 0 -104 12.5t-83.5 43.5t-63 82t-38 131t-13.5 188v316q0 109 14 189t38.5 129.5t64 79t83.5 40.5
t104 11q163 0 227 -106.5t64 -364.5l-2 -113h-484v-189q0 -209 43.5 -288t148.5 -79q30 0 52.5 4t49.5 18.5t44 40t28.5 73t11.5 113.5v88h107v-78q0 -164 -67 -252.5t-225 -88.5z" />
    <glyph glyph-name="eacute" unicode="&#xe9;" 
d="M363 1325l132 397h110l-185 -397h-57zM203 684h378v92q0 71 -3 118t-14 94t-30.5 73.5t-53.5 43t-82 16.5q-71 0 -111 -27.5t-62 -104t-22 -215.5v-90zM396 -19q-59 0 -104 12.5t-83.5 43.5t-63 82t-38 131t-13.5 188v316q0 109 14 189t38.5 129.5t64 79t83.5 40.5
t104 11q163 0 227 -106.5t64 -364.5l-2 -113h-484v-189q0 -209 43.5 -288t148.5 -79q30 0 52.5 4t49.5 18.5t44 40t28.5 73t11.5 113.5v88h107v-78q0 -164 -67 -252.5t-225 -88.5z" />
    <glyph glyph-name="ecircumflex" unicode="&#xea;" 
d="M149 1325l177 367h136l173 -367h-77l-165 313l-164 -313h-80zM203 684h378v92q0 71 -3 118t-14 94t-30.5 73.5t-53.5 43t-82 16.5q-71 0 -111 -27.5t-62 -104t-22 -215.5v-90zM396 -19q-59 0 -104 12.5t-83.5 43.5t-63 82t-38 131t-13.5 188v316q0 109 14 189t38.5 129.5
t64 79t83.5 40.5t104 11q163 0 227 -106.5t64 -364.5l-2 -113h-484v-189q0 -209 43.5 -288t148.5 -79q30 0 52.5 4t49.5 18.5t44 40t28.5 73t11.5 113.5v88h107v-78q0 -164 -67 -252.5t-225 -88.5z" />
    <glyph glyph-name="edieresis" unicode="&#xeb;" 
d="M498 1325v154h114v-154h-114zM171 1325v154h114v-154h-114zM203 684h378v92q0 71 -3 118t-14 94t-30.5 73.5t-53.5 43t-82 16.5q-71 0 -111 -27.5t-62 -104t-22 -215.5v-90zM396 -19q-59 0 -104 12.5t-83.5 43.5t-63 82t-38 131t-13.5 188v316q0 109 14 189t38.5 129.5
t64 79t83.5 40.5t104 11q163 0 227 -106.5t64 -364.5l-2 -113h-484v-189q0 -209 43.5 -288t148.5 -79q30 0 52.5 4t49.5 18.5t44 40t28.5 73t11.5 113.5v88h107v-78q0 -164 -67 -252.5t-225 -88.5z" />
    <glyph glyph-name="igrave" unicode="&#xec;" horiz-adv-x="372" 
d="M159 1325l-165 397h110l112 -397h-57zM133 0v1184h109v-1184h-109z" />
    <glyph glyph-name="iacute" unicode="&#xed;" horiz-adv-x="372" 
d="M159 1325l132 397h110l-185 -397h-57zM133 0v1184h109v-1184h-109z" />
    <glyph glyph-name="icircumflex" unicode="&#xee;" horiz-adv-x="372" 
d="M-55 1325l177 367h136l173 -367h-77l-165 313l-164 -313h-80zM133 0v1184h109v-1184h-109z" />
    <glyph glyph-name="idieresis" unicode="&#xef;" horiz-adv-x="372" 
d="M294 1325v154h114v-154h-114zM-33 1325v154h114v-154h-114zM133 0v1184h109v-1184h-109z" />
    <glyph glyph-name="eth" unicode="&#xf0;" horiz-adv-x="880" 
d="M219 527q0 -238 54 -349.5t171 -111.5q54 0 90.5 18.5t60 53.5t35.5 100.5t16.5 143t4.5 198.5q0 72 -8.5 238t-11.5 183q-98 41 -144 48q-19 3 -37 3q-78 0 -128 -49t-76.5 -166t-26.5 -310zM757 508q0 -275 -68.5 -402.5t-247.5 -127.5q-174 0 -251 122t-77 352v5v161
q1 521 312 521q98 0 201 -55q-28 198 -72 280l-209 -57v68l180 48q-43 90 -131 137t-228 60l6 75q162 -9 271 -64.5t170 -178.5l165 44v-69l-137 -36q39 -92 77.5 -286t38.5 -426v-171z" />
    <glyph glyph-name="ntilde" unicode="&#xf1;" horiz-adv-x="801" 
d="M493 1326q-39 3 -100 46.5t-81 46.5q-6 2 -18 2q-26 0 -41.5 -21t-15.5 -60h-75q0 13 2.5 29.5t10.5 40t21 42t37.5 31.5t55.5 13q18 0 28 -2q36 -5 98 -48t83 -46q5 -1 14 -1q61 0 65 92h70q0 -23 -4.5 -46.5t-17 -53t-41.5 -48t-71 -18.5q-13 0 -20 1zM116 0v1184h109
v-127q124 146 281 146q85 0 135.5 -62.5t50.5 -196.5v-944h-109v932q0 103 -31.5 144.5t-92.5 41.5q-58 0 -119 -35.5t-115 -95.5v-987h-109z" />
    <glyph glyph-name="ograve" unicode="&#xf2;" horiz-adv-x="784" 
d="M363 1325l-165 397h110l112 -397h-57zM392 -19q-170 0 -234 108t-64 343v320q0 234 64.5 342.5t233.5 108.5q87 0 145.5 -28t92 -87.5t47 -139.5t13.5 -196v-320q0 -235 -64 -343t-234 -108zM392 63q42 0 73.5 10.5t52 34t33.5 51.5t19.5 73.5t8.5 88.5t2 107v328
q0 77 -3 126.5t-14 99t-31 77.5t-55 45t-86 17t-86 -17t-55 -45t-31 -77.5t-14 -99t-3 -126.5v-328q0 -64 2 -107t8.5 -88.5t19.5 -73.5t33.5 -51.5t52 -34t73.5 -10.5z" />
    <glyph glyph-name="oacute" unicode="&#xf3;" horiz-adv-x="784" 
d="M363 1325l132 397h110l-185 -397h-57zM392 -19q-170 0 -234 108t-64 343v320q0 234 64.5 342.5t233.5 108.5q87 0 145.5 -28t92 -87.5t47 -139.5t13.5 -196v-320q0 -235 -64 -343t-234 -108zM392 63q42 0 73.5 10.5t52 34t33.5 51.5t19.5 73.5t8.5 88.5t2 107v328
q0 77 -3 126.5t-14 99t-31 77.5t-55 45t-86 17t-86 -17t-55 -45t-31 -77.5t-14 -99t-3 -126.5v-328q0 -64 2 -107t8.5 -88.5t19.5 -73.5t33.5 -51.5t52 -34t73.5 -10.5z" />
    <glyph glyph-name="ocircumflex" unicode="&#xf4;" horiz-adv-x="784" 
d="M149 1325l177 367h136l173 -367h-77l-165 313l-164 -313h-80zM392 -19q-170 0 -234 108t-64 343v320q0 234 64.5 342.5t233.5 108.5q87 0 145.5 -28t92 -87.5t47 -139.5t13.5 -196v-320q0 -235 -64 -343t-234 -108zM392 63q42 0 73.5 10.5t52 34t33.5 51.5t19.5 73.5
t8.5 88.5t2 107v328q0 77 -3 126.5t-14 99t-31 77.5t-55 45t-86 17t-86 -17t-55 -45t-31 -77.5t-14 -99t-3 -126.5v-328q0 -64 2 -107t8.5 -88.5t19.5 -73.5t33.5 -51.5t52 -34t73.5 -10.5z" />
    <glyph glyph-name="otilde" unicode="&#xf5;" horiz-adv-x="784" 
d="M481 1326q-39 3 -100 46.5t-81 46.5q-6 2 -18 2q-26 0 -41.5 -21t-15.5 -60h-75q0 13 2.5 29.5t10.5 40t21 42t37.5 31.5t55.5 13q18 0 28 -2q36 -5 98 -48t83 -46q5 -1 14 -1q61 0 65 92h70q0 -23 -4.5 -46.5t-17 -53t-41.5 -48t-71 -18.5q-13 0 -20 1zM392 -19
q-170 0 -234 108t-64 343v320q0 234 64.5 342.5t233.5 108.5q87 0 145.5 -28t92 -87.5t47 -139.5t13.5 -196v-320q0 -235 -64 -343t-234 -108zM392 63q42 0 73.5 10.5t52 34t33.5 51.5t19.5 73.5t8.5 88.5t2 107v328q0 77 -3 126.5t-14 99t-31 77.5t-55 45t-86 17t-86 -17
t-55 -45t-31 -77.5t-14 -99t-3 -126.5v-328q0 -64 2 -107t8.5 -88.5t19.5 -73.5t33.5 -51.5t52 -34t73.5 -10.5z" />
    <glyph glyph-name="odieresis" unicode="&#xf6;" horiz-adv-x="784" 
d="M498 1325v154h114v-154h-114zM171 1325v154h114v-154h-114zM392 -19q-170 0 -234 108t-64 343v320q0 234 64.5 342.5t233.5 108.5q87 0 145.5 -28t92 -87.5t47 -139.5t13.5 -196v-320q0 -235 -64 -343t-234 -108zM392 63q42 0 73.5 10.5t52 34t33.5 51.5t19.5 73.5
t8.5 88.5t2 107v328q0 77 -3 126.5t-14 99t-31 77.5t-55 45t-86 17t-86 -17t-55 -45t-31 -77.5t-14 -99t-3 -126.5v-328q0 -64 2 -107t8.5 -88.5t19.5 -73.5t33.5 -51.5t52 -34t73.5 -10.5z" />
    <glyph glyph-name="divide" unicode="&#xf7;" horiz-adv-x="678" 
d="M289 1097v161h101v-161h-101zM61 812v88h555v-88h-555zM289 431v160h101v-160h-101z" />
    <glyph glyph-name="oslash" unicode="&#xf8;" horiz-adv-x="784" 
d="M227 175l319 860q-42 86 -154 86q-51 0 -86 -17t-55 -45t-31 -77.5t-14 -99t-3 -126.5v-328q0 -180 24 -253zM392 63q42 0 73.5 10.5t52 34t33.5 51.5t19.5 73.5t8.5 88.5t2 107v328q0 139 -13 206l-313 -841q43 -58 137 -58zM160 -134l-41 16l64 174q-33 36 -53 91.5
t-28 124t-8 160.5v320q0 234 64.5 342.5t233.5 108.5q125 0 193 -60l58 155l44 -17l-66 -178q69 -102 69 -351v-320q0 -235 -64 -343t-234 -108q-108 0 -173 44z" />
    <glyph glyph-name="ugrave" unicode="&#xf9;" horiz-adv-x="808" 
d="M370 1325l-165 397h110l112 -397h-57zM292 -19q-85 0 -135.5 62.5t-50.5 196.5v944h109v-932q0 -103 31.5 -144.5t92.5 -41.5t124.5 38.5t119.5 103.5v976h108v-1184h-108v139q-59 -74 -134 -116t-157 -42z" />
    <glyph glyph-name="uacute" unicode="&#xfa;" horiz-adv-x="808" 
d="M370 1325l132 397h110l-185 -397h-57zM292 -19q-85 0 -135.5 62.5t-50.5 196.5v944h109v-932q0 -103 31.5 -144.5t92.5 -41.5t124.5 38.5t119.5 103.5v976h108v-1184h-108v139q-59 -74 -134 -116t-157 -42z" />
    <glyph glyph-name="ucircumflex" unicode="&#xfb;" horiz-adv-x="808" 
d="M155 1325l177 367h136l173 -367h-77l-165 313l-164 -313h-80zM292 -19q-85 0 -135.5 62.5t-50.5 196.5v944h109v-932q0 -103 31.5 -144.5t92.5 -41.5t124.5 38.5t119.5 103.5v976h108v-1184h-108v139q-59 -74 -134 -116t-157 -42z" />
    <glyph glyph-name="udieresis" unicode="&#xfc;" horiz-adv-x="808" 
d="M505 1325v154h114v-154h-114zM178 1325v154h114v-154h-114zM292 -19q-85 0 -135.5 62.5t-50.5 196.5v944h109v-932q0 -103 31.5 -144.5t92.5 -41.5t124.5 38.5t119.5 103.5v976h108v-1184h-108v139q-59 -74 -134 -116t-157 -42z" />
    <glyph glyph-name="yacute" unicode="&#xfd;" horiz-adv-x="767" 
d="M357 1325l132 397h110l-185 -397h-57zM76 -295v88q104 0 161.5 17t76 45t18.5 76q0 16 -1 25q-3 31 -34 164l-248 1064h107l234 -1081l224 1081h109l-289 -1281q-24 -105 -97 -151.5t-216 -46.5h-45z" />
    <glyph glyph-name="thorn" unicode="&#xfe;" horiz-adv-x="815" 
d="M431 66q106 0 143.5 95.5t37.5 322.5v231q0 90 -4 151t-15 112t-31.5 80t-52 44.5t-77.5 15.5q-105 0 -205 -110v-835q88 -107 204 -107zM118 -390v2048h109v-575q91 120 227 120q64 0 111.5 -23t77 -63t47.5 -103t24.5 -134.5t6.5 -165.5v-227q0 -260 -62 -383
t-216 -123q-123 0 -216 117v-488h-109z" />
    <glyph glyph-name="ydieresis" unicode="&#xff;" horiz-adv-x="767" 
d="M492 1325v154h114v-154h-114zM165 1325v154h114v-154h-114zM76 -295v88q104 0 161.5 17t76 45t18.5 76q0 16 -1 25q-3 31 -34 164l-248 1064h107l234 -1081l224 1081h109l-289 -1281q-24 -105 -97 -151.5t-216 -46.5h-45z" />
    <glyph glyph-name="Amacron" unicode="&#x100;" horiz-adv-x="959" 
d="M305 1799v75h350v-75h-350zM281 541h398l-200 982zM66 0l348 1658h128l351 -1658h-112l-86 458h-430l-89 -458h-110z" />
    <glyph glyph-name="amacron" unicode="&#x101;" 
d="M201 1325v75h350v-75h-350zM342 71q71 0 127 47t92 119v390q-201 -104 -254 -141q-84 -58 -107 -128q-14 -42 -14 -103q0 -97 45.5 -140.5t110.5 -43.5zM316 -19q-107 0 -172.5 72t-65.5 187q0 79 17.5 131.5t74 106.5t144.5 104t247 124v85q0 130 -16.5 201t-51 99.5
t-96.5 28.5q-39 0 -69.5 -9t-59.5 -31.5t-44.5 -69t-15.5 -113.5v-33l-106 2q0 28 1 32q4 161 78.5 233t219.5 72q148 0 208.5 -93t60.5 -308v-596q0 -169 5 -206h-93q-15 134 -18 157q-28 -77 -95 -126.5t-153 -49.5z" />
    <glyph glyph-name="Abreve" unicode="&#x102;" horiz-adv-x="959" 
d="M476 1799q-106 0 -169 57t-67 170h75q3 -82 47 -119.5t114 -37.5t115 37.5t51 119.5h76q-5 -113 -70 -170t-172 -57zM281 541h398l-200 982zM66 0l348 1658h128l351 -1658h-112l-86 458h-430l-89 -458h-110z" />
    <glyph glyph-name="abreve" unicode="&#x103;" 
d="M374 1325q-106 0 -169 57t-67 170h75q3 -82 47 -119.5t114 -37.5t115 37.5t51 119.5h76q-5 -113 -70 -170t-172 -57zM342 71q71 0 127 47t92 119v390q-201 -104 -254 -141q-84 -58 -107 -128q-14 -42 -14 -103q0 -97 45.5 -140.5t110.5 -43.5zM316 -19q-107 0 -172.5 72
t-65.5 187q0 79 17.5 131.5t74 106.5t144.5 104t247 124v85q0 130 -16.5 201t-51 99.5t-96.5 28.5q-39 0 -69.5 -9t-59.5 -31.5t-44.5 -69t-15.5 -113.5v-33l-106 2q0 28 1 32q4 161 78.5 233t219.5 72q148 0 208.5 -93t60.5 -308v-596q0 -169 5 -206h-93q-15 134 -18 157
q-28 -77 -95 -126.5t-153 -49.5z" />
    <glyph glyph-name="Aogonek" unicode="&#x104;" horiz-adv-x="959" 
d="M889 -407q-251 0 -251 163q0 71 47 141.5t115 106.5h62q-139 -139 -139 -239q0 -57 52 -83.5t133 -26.5zM281 541h398l-200 982zM66 0l348 1658h128l351 -1658h-112l-86 458h-430l-89 -458h-110z" />
    <glyph glyph-name="aogonek" unicode="&#x105;" 
d="M690 -407q-251 0 -251 163q0 71 47 141.5t115 106.5h62q-139 -139 -139 -239q0 -57 52 -83.5t133 -26.5zM342 71q71 0 127 47t92 119v390q-201 -104 -254 -141q-84 -58 -107 -128q-14 -42 -14 -103q0 -97 45.5 -140.5t110.5 -43.5zM316 -19q-107 0 -172.5 72t-65.5 187
q0 79 17.5 131.5t74 106.5t144.5 104t247 124v85q0 130 -16.5 201t-51 99.5t-96.5 28.5q-39 0 -69.5 -9t-59.5 -31.5t-44.5 -69t-15.5 -113.5v-33l-106 2q0 28 1 32q4 161 78.5 233t219.5 72q148 0 208.5 -93t60.5 -308v-596q0 -169 5 -206h-93q-15 134 -18 157
q-28 -77 -95 -126.5t-153 -49.5z" />
    <glyph glyph-name="Cacute" unicode="&#x106;" horiz-adv-x="1001" 
d="M481 1799l132 397h110l-185 -397h-57zM523 -22q-96 0 -168 26t-116.5 69.5t-72 109t-38 136t-10.5 159.5v703q0 90 11.5 162t39.5 136t73.5 106.5t116 67t164.5 24.5q106 0 180.5 -32.5t117 -96t61.5 -146t19 -192.5v-84h-106v85q0 190 -59 282.5t-213 92.5
q-88 0 -147 -27.5t-90 -82.5t-43 -121.5t-12 -160.5v-734q0 -77 8 -135t28 -107.5t53 -81t84 -49t119 -17.5q81 0 135.5 26t83.5 78t41 116.5t12 155.5v100h106v-82q0 -89 -10.5 -159.5t-37 -133t-68.5 -104t-108.5 -65.5t-153.5 -24z" />
    <glyph glyph-name="cacute" unicode="&#x107;" horiz-adv-x="768" 
d="M359 1325l132 397h110l-185 -397h-57zM393 -19q-78 0 -133.5 24.5t-87 63.5t-49.5 102.5t-23.5 125t-5.5 148.5v278q0 266 64.5 373t234.5 107q72 0 124.5 -19.5t83.5 -52t49.5 -83.5t25 -104t6.5 -124v-48h-102v47q0 174 -42.5 238t-143.5 64q-116 0 -153.5 -82.5
t-37.5 -302.5v-307q0 -202 39.5 -284t152.5 -82q114 0 149.5 73t35.5 261v46h102v-44q0 -56 -2.5 -98t-9.5 -88t-20 -78.5t-34.5 -63t-51.5 -49.5t-73.5 -30t-97.5 -11z" />
    <glyph glyph-name="Ccircumflex" unicode="&#x108;" horiz-adv-x="1001" 
d="M267 1799l177 367h136l173 -367h-77l-165 313l-164 -313h-80zM523 -22q-96 0 -168 26t-116.5 69.5t-72 109t-38 136t-10.5 159.5v703q0 90 11.5 162t39.5 136t73.5 106.5t116 67t164.5 24.5q106 0 180.5 -32.5t117 -96t61.5 -146t19 -192.5v-84h-106v85q0 190 -59 282.5
t-213 92.5q-88 0 -147 -27.5t-90 -82.5t-43 -121.5t-12 -160.5v-734q0 -77 8 -135t28 -107.5t53 -81t84 -49t119 -17.5q81 0 135.5 26t83.5 78t41 116.5t12 155.5v100h106v-82q0 -89 -10.5 -159.5t-37 -133t-68.5 -104t-108.5 -65.5t-153.5 -24z" />
    <glyph glyph-name="ccircumflex" unicode="&#x109;" horiz-adv-x="768" 
d="M145 1325l177 367h136l173 -367h-77l-165 313l-164 -313h-80zM393 -19q-78 0 -133.5 24.5t-87 63.5t-49.5 102.5t-23.5 125t-5.5 148.5v278q0 266 64.5 373t234.5 107q72 0 124.5 -19.5t83.5 -52t49.5 -83.5t25 -104t6.5 -124v-48h-102v47q0 174 -42.5 238t-143.5 64
q-116 0 -153.5 -82.5t-37.5 -302.5v-307q0 -202 39.5 -284t152.5 -82q114 0 149.5 73t35.5 261v46h102v-44q0 -56 -2.5 -98t-9.5 -88t-20 -78.5t-34.5 -63t-51.5 -49.5t-73.5 -30t-97.5 -11z" />
    <glyph glyph-name="Cdotaccent" unicode="&#x10a;" horiz-adv-x="1001" 
d="M448 1799v213h122v-213h-122zM523 -22q-96 0 -168 26t-116.5 69.5t-72 109t-38 136t-10.5 159.5v703q0 90 11.5 162t39.5 136t73.5 106.5t116 67t164.5 24.5q106 0 180.5 -32.5t117 -96t61.5 -146t19 -192.5v-84h-106v85q0 190 -59 282.5t-213 92.5q-88 0 -147 -27.5
t-90 -82.5t-43 -121.5t-12 -160.5v-734q0 -77 8 -135t28 -107.5t53 -81t84 -49t119 -17.5q81 0 135.5 26t83.5 78t41 116.5t12 155.5v100h106v-82q0 -89 -10.5 -159.5t-37 -133t-68.5 -104t-108.5 -65.5t-153.5 -24z" />
    <glyph glyph-name="cdotaccent" unicode="&#x10b;" horiz-adv-x="768" 
d="M327 1325v213h122v-213h-122zM393 -19q-78 0 -133.5 24.5t-87 63.5t-49.5 102.5t-23.5 125t-5.5 148.5v278q0 266 64.5 373t234.5 107q72 0 124.5 -19.5t83.5 -52t49.5 -83.5t25 -104t6.5 -124v-48h-102v47q0 174 -42.5 238t-143.5 64q-116 0 -153.5 -82.5t-37.5 -302.5
v-307q0 -202 39.5 -284t152.5 -82q114 0 149.5 73t35.5 261v46h102v-44q0 -56 -2.5 -98t-9.5 -88t-20 -78.5t-34.5 -63t-51.5 -49.5t-73.5 -30t-97.5 -11z" />
    <glyph glyph-name="Ccaron" unicode="&#x10c;" horiz-adv-x="1001" 
d="M467 1799l-173 332h93l122 -249l123 249h92l-175 -332h-82zM523 -22q-96 0 -168 26t-116.5 69.5t-72 109t-38 136t-10.5 159.5v703q0 90 11.5 162t39.5 136t73.5 106.5t116 67t164.5 24.5q106 0 180.5 -32.5t117 -96t61.5 -146t19 -192.5v-84h-106v85q0 190 -59 282.5
t-213 92.5q-88 0 -147 -27.5t-90 -82.5t-43 -121.5t-12 -160.5v-734q0 -77 8 -135t28 -107.5t53 -81t84 -49t119 -17.5q81 0 135.5 26t83.5 78t41 116.5t12 155.5v100h106v-82q0 -89 -10.5 -159.5t-37 -133t-68.5 -104t-108.5 -65.5t-153.5 -24z" />
    <glyph glyph-name="ccaron" unicode="&#x10d;" horiz-adv-x="768" 
d="M346 1325l-173 332h93l122 -249l123 249h92l-175 -332h-82zM393 -19q-78 0 -133.5 24.5t-87 63.5t-49.5 102.5t-23.5 125t-5.5 148.5v278q0 266 64.5 373t234.5 107q72 0 124.5 -19.5t83.5 -52t49.5 -83.5t25 -104t6.5 -124v-48h-102v47q0 174 -42.5 238t-143.5 64
q-116 0 -153.5 -82.5t-37.5 -302.5v-307q0 -202 39.5 -284t152.5 -82q114 0 149.5 73t35.5 261v46h102v-44q0 -56 -2.5 -98t-9.5 -88t-20 -78.5t-34.5 -63t-51.5 -49.5t-73.5 -30t-97.5 -11z" />
    <glyph glyph-name="Dcaron" unicode="&#x10e;" horiz-adv-x="1059" 
d="M505 1799l-173 332h93l122 -249l123 249h92l-175 -332h-82zM153 0v1658h364q120 0 204.5 -36t131.5 -103t67.5 -149.5t20.5 -187.5v-688q0 -113 -20.5 -199t-66.5 -154.5t-128.5 -104.5t-199.5 -36h-373zM265 88h256q78 0 134.5 22.5t89.5 58.5t52 93t25 113t6 131v667
q0 77 -8 135t-28.5 109t-55.5 83t-90 50.5t-130 18.5h-251v-1481z" />
    <glyph glyph-name="dcaron" unicode="&#x10f;" horiz-adv-x="886" 
d="M874 1188v470h112l-52 -470h-60zM388 66q105 0 194 100v849q-101 103 -198 103q-109 0 -145 -88t-36 -307v-246q0 -224 38.5 -317.5t146.5 -93.5zM372 -19q-152 0 -215 116.5t-63 388.5v211q0 264 58.5 385t214.5 121q125 -1 215 -110v565h109v-1658h-109v90
q-90 -109 -210 -109z" />
    <glyph glyph-name="Dcroat" unicode="&#x110;" horiz-adv-x="1060" 
d="M154 0v836h-134v75h134v747h364q97 0 171 -24.5t121 -66t77.5 -103t42.5 -130t12 -152.5v-688q0 -89 -12 -161.5t-41.5 -135.5t-76 -105.5t-118.5 -67t-166 -24.5h-374zM266 88h256q78 0 134.5 22.5t89.5 58.5t52 93t25 113t6 131v667q0 77 -8 135t-28.5 109t-55.5 83
t-90 50.5t-130 18.5h-251v-658h192v-75h-192v-748z" />
    <glyph glyph-name="dcroat" unicode="&#x111;" horiz-adv-x="839" 
d="M388 66q105 0 194 100v849q-101 103 -198 103q-109 0 -145 -88t-36 -307v-246q0 -224 38.5 -317.5t146.5 -93.5zM372 -19q-152 0 -215 116.5t-63 388.5v211q0 264 58.5 385t214.5 121q125 -1 215 -110v321h-173v70h173v174h109v-174h115v-70h-115v-1414h-109v90
q-90 -109 -210 -109z" />
    <glyph glyph-name="Emacron" unicode="&#x112;" horiz-adv-x="804" 
d="M267 1799v75h350v-75h-350zM152 0v1658h574v-89h-462v-665h379v-87h-379v-729h467v-88h-579z" />
    <glyph glyph-name="emacron" unicode="&#x113;" 
d="M217 1325v75h350v-75h-350zM203 684h378v92q0 71 -3 118t-14 94t-30.5 73.5t-53.5 43t-82 16.5q-71 0 -111 -27.5t-62 -104t-22 -215.5v-90zM396 -19q-59 0 -104 12.5t-83.5 43.5t-63 82t-38 131t-13.5 188v316q0 109 14 189t38.5 129.5t64 79t83.5 40.5t104 11
q163 0 227 -106.5t64 -364.5l-2 -113h-484v-189q0 -209 43.5 -288t148.5 -79q30 0 52.5 4t49.5 18.5t44 40t28.5 73t11.5 113.5v88h107v-78q0 -164 -67 -252.5t-225 -88.5z" />
    <glyph glyph-name="Ebreve" unicode="&#x114;" horiz-adv-x="804" 
d="M438 1799q-106 0 -169 57t-67 170h75q3 -82 47 -119.5t114 -37.5t115 37.5t51 119.5h76q-5 -113 -70 -170t-172 -57zM152 0v1658h574v-89h-462v-665h379v-87h-379v-729h467v-88h-579z" />
    <glyph glyph-name="ebreve" unicode="&#x115;" 
d="M388 1325q-106 0 -169 57t-67 170h75q3 -82 47 -119.5t114 -37.5t115 37.5t51 119.5h76q-5 -113 -70 -170t-172 -57zM203 684h378v92q0 71 -3 118t-14 94t-30.5 73.5t-53.5 43t-82 16.5q-71 0 -111 -27.5t-62 -104t-22 -215.5v-90zM396 -19q-59 0 -104 12.5t-83.5 43.5
t-63 82t-38 131t-13.5 188v316q0 109 14 189t38.5 129.5t64 79t83.5 40.5t104 11q163 0 227 -106.5t64 -364.5l-2 -113h-484v-189q0 -209 43.5 -288t148.5 -79q30 0 52.5 4t49.5 18.5t44 40t28.5 73t11.5 113.5v88h107v-78q0 -164 -67 -252.5t-225 -88.5z" />
    <glyph glyph-name="Edotaccent" unicode="&#x116;" horiz-adv-x="804" 
d="M380 1799v213h122v-213h-122zM152 0v1658h574v-89h-462v-665h379v-87h-379v-729h467v-88h-579z" />
    <glyph glyph-name="edotaccent" unicode="&#x117;" 
d="M330 1325v213h122v-213h-122zM203 684h378v92q0 71 -3 118t-14 94t-30.5 73.5t-53.5 43t-82 16.5q-71 0 -111 -27.5t-62 -104t-22 -215.5v-90zM396 -19q-59 0 -104 12.5t-83.5 43.5t-63 82t-38 131t-13.5 188v316q0 109 14 189t38.5 129.5t64 79t83.5 40.5t104 11
q163 0 227 -106.5t64 -364.5l-2 -113h-484v-189q0 -209 43.5 -288t148.5 -79q30 0 52.5 4t49.5 18.5t44 40t28.5 73t11.5 113.5v88h107v-78q0 -164 -67 -252.5t-225 -88.5z" />
    <glyph glyph-name="Eogonek" unicode="&#x118;" horiz-adv-x="804" 
d="M569 -407q-251 0 -251 163q0 71 47 141.5t115 106.5h62q-139 -139 -139 -239q0 -57 52 -83.5t133 -26.5zM152 0v1658h574v-89h-462v-665h379v-87h-379v-729h467v-88h-579z" />
    <glyph glyph-name="eogonek" unicode="&#x119;" 
d="M529 -407q-251 0 -251 163q0 71 47 141.5t115 106.5h62q-139 -139 -139 -239q0 -57 52 -83.5t133 -26.5zM203 684h378v92q0 71 -3 118t-14 94t-30.5 73.5t-53.5 43t-82 16.5q-71 0 -111 -27.5t-62 -104t-22 -215.5v-90zM396 -19q-59 0 -104 12.5t-83.5 43.5t-63 82
t-38 131t-13.5 188v316q0 109 14 189t38.5 129.5t64 79t83.5 40.5t104 11q163 0 227 -106.5t64 -364.5l-2 -113h-484v-189q0 -209 43.5 -288t148.5 -79q30 0 52.5 4t49.5 18.5t44 40t28.5 73t11.5 113.5v88h107v-78q0 -164 -67 -252.5t-225 -88.5z" />
    <glyph glyph-name="Ecaron" unicode="&#x11a;" horiz-adv-x="804" 
d="M399 1799l-173 332h93l122 -249l123 249h92l-175 -332h-82zM152 0v1658h574v-89h-462v-665h379v-87h-379v-729h467v-88h-579z" />
    <glyph glyph-name="ecaron" unicode="&#x11b;" 
d="M349 1325l-173 332h93l122 -249l123 249h92l-175 -332h-82zM203 684h378v92q0 71 -3 118t-14 94t-30.5 73.5t-53.5 43t-82 16.5q-71 0 -111 -27.5t-62 -104t-22 -215.5v-90zM396 -19q-59 0 -104 12.5t-83.5 43.5t-63 82t-38 131t-13.5 188v316q0 109 14 189t38.5 129.5
t64 79t83.5 40.5t104 11q163 0 227 -106.5t64 -364.5l-2 -113h-484v-189q0 -209 43.5 -288t148.5 -79q30 0 52.5 4t49.5 18.5t44 40t28.5 73t11.5 113.5v88h107v-78q0 -164 -67 -252.5t-225 -88.5z" />
    <glyph glyph-name="Gcircumflex" unicode="&#x11c;" horiz-adv-x="1045" 
d="M270 1799l177 367h136l173 -367h-77l-165 313l-164 -313h-80zM517 -23q-93 0 -163 25t-114.5 68t-72 108t-38.5 138t-11 165v704q0 92 11 164t39.5 135t73.5 104.5t115.5 65t164.5 23.5q207 0 295 -121t88 -352v-58h-106v65q0 192 -60.5 283.5t-215.5 91.5
q-72 0 -124 -19.5t-84 -52.5t-51 -85t-26 -108.5t-7 -131.5v-722q0 -96 13 -165t45 -123.5t90.5 -81.5t145.5 -27q80 0 135.5 26t86 79t43.5 121.5t13 163.5v244h-264v86h369v-790h-72l-17 186q-65 -209 -302 -209z" />
    <glyph glyph-name="gcircumflex" unicode="&#x11d;" horiz-adv-x="878" 
d="M223 1325l177 367h136l173 -367h-77l-165 313l-164 -313h-80zM423 456q227 0 227 339q0 42 -5.5 82.5t-21 86.5t-39.5 80t-66 56.5t-96 22.5t-96.5 -24t-67 -59.5t-40.5 -82t-21.5 -86t-5.5 -76.5q0 -44 4.5 -84.5t19.5 -89t39 -83.5t67.5 -58.5t101.5 -23.5zM413 -313
q129 0 209.5 42.5t80.5 128.5q0 47 -19 77.5t-76.5 58t-164.5 49.5l-130 22q-189 -108 -189 -231q0 -147 289 -147zM414 -401q-384 0 -384 209q0 83 62.5 156.5t149.5 118.5q-55 14 -99 38t-44 52q0 87 147 255q-155 109 -155 367q0 76 19 146.5t57.5 130t103.5 95.5t149 36
q177 0 261 -158q22 40 66.5 79t93.5 59l29 12l32 -82q-53 -13 -106.5 -47t-84.5 -73q15 -38 26.5 -100t11.5 -101q0 -188 -80 -302t-246 -114q-73 0 -126 22q-6 -10 -39 -58t-49.5 -80t-16.5 -54q0 -20 98 -41q33 -9 107.5 -23t86.5 -17q154 -34 232 -94.5t78 -169.5
q0 -67 -30.5 -119t-84 -82.5t-120.5 -45.5t-145 -15z" />
    <glyph glyph-name="Gbreve" unicode="&#x11e;" horiz-adv-x="1045" 
d="M510 1799q-106 0 -169 57t-67 170h75q3 -82 47 -119.5t114 -37.5t115 37.5t51 119.5h76q-5 -113 -70 -170t-172 -57zM517 -23q-93 0 -163 25t-114.5 68t-72 108t-38.5 138t-11 165v704q0 92 11 164t39.5 135t73.5 104.5t115.5 65t164.5 23.5q207 0 295 -121t88 -352v-58
h-106v65q0 192 -60.5 283.5t-215.5 91.5q-72 0 -124 -19.5t-84 -52.5t-51 -85t-26 -108.5t-7 -131.5v-722q0 -96 13 -165t45 -123.5t90.5 -81.5t145.5 -27q80 0 135.5 26t86 79t43.5 121.5t13 163.5v244h-264v86h369v-790h-72l-17 186q-65 -209 -302 -209z" />
    <glyph glyph-name="gbreve" unicode="&#x11f;" horiz-adv-x="878" 
d="M463 1325q-106 0 -169 57t-67 170h75q3 -82 47 -119.5t114 -37.5t115 37.5t51 119.5h76q-5 -113 -70 -170t-172 -57zM423 456q227 0 227 339q0 42 -5.5 82.5t-21 86.5t-39.5 80t-66 56.5t-96 22.5t-96.5 -24t-67 -59.5t-40.5 -82t-21.5 -86t-5.5 -76.5q0 -44 4.5 -84.5
t19.5 -89t39 -83.5t67.5 -58.5t101.5 -23.5zM413 -313q129 0 209.5 42.5t80.5 128.5q0 47 -19 77.5t-76.5 58t-164.5 49.5l-130 22q-189 -108 -189 -231q0 -147 289 -147zM414 -401q-384 0 -384 209q0 83 62.5 156.5t149.5 118.5q-55 14 -99 38t-44 52q0 87 147 255
q-155 109 -155 367q0 76 19 146.5t57.5 130t103.5 95.5t149 36q177 0 261 -158q22 40 66.5 79t93.5 59l29 12l32 -82q-53 -13 -106.5 -47t-84.5 -73q15 -38 26.5 -100t11.5 -101q0 -188 -80 -302t-246 -114q-73 0 -126 22q-6 -10 -39 -58t-49.5 -80t-16.5 -54q0 -20 98 -41
q33 -9 107.5 -23t86.5 -17q154 -34 232 -94.5t78 -169.5q0 -67 -30.5 -119t-84 -82.5t-120.5 -45.5t-145 -15z" />
    <glyph glyph-name="Gdotaccent" unicode="&#x120;" horiz-adv-x="1045" 
d="M452 1799v213h122v-213h-122zM517 -23q-93 0 -163 25t-114.5 68t-72 108t-38.5 138t-11 165v704q0 92 11 164t39.5 135t73.5 104.5t115.5 65t164.5 23.5q207 0 295 -121t88 -352v-58h-106v65q0 192 -60.5 283.5t-215.5 91.5q-72 0 -124 -19.5t-84 -52.5t-51 -85
t-26 -108.5t-7 -131.5v-722q0 -96 13 -165t45 -123.5t90.5 -81.5t145.5 -27q80 0 135.5 26t86 79t43.5 121.5t13 163.5v244h-264v86h369v-790h-72l-17 186q-65 -209 -302 -209z" />
    <glyph glyph-name="gdotaccent" unicode="&#x121;" horiz-adv-x="878" 
d="M405 1325v213h122v-213h-122zM423 456q227 0 227 339q0 42 -5.5 82.5t-21 86.5t-39.5 80t-66 56.5t-96 22.5t-96.5 -24t-67 -59.5t-40.5 -82t-21.5 -86t-5.5 -76.5q0 -44 4.5 -84.5t19.5 -89t39 -83.5t67.5 -58.5t101.5 -23.5zM413 -313q129 0 209.5 42.5t80.5 128.5
q0 47 -19 77.5t-76.5 58t-164.5 49.5l-130 22q-189 -108 -189 -231q0 -147 289 -147zM414 -401q-384 0 -384 209q0 83 62.5 156.5t149.5 118.5q-55 14 -99 38t-44 52q0 87 147 255q-155 109 -155 367q0 76 19 146.5t57.5 130t103.5 95.5t149 36q177 0 261 -158
q22 40 66.5 79t93.5 59l29 12l32 -82q-53 -13 -106.5 -47t-84.5 -73q15 -38 26.5 -100t11.5 -101q0 -188 -80 -302t-246 -114q-73 0 -126 22q-6 -10 -39 -58t-49.5 -80t-16.5 -54q0 -20 98 -41q33 -9 107.5 -23t86.5 -17q154 -34 232 -94.5t78 -169.5q0 -67 -30.5 -119
t-84 -82.5t-120.5 -45.5t-145 -15z" />
    <glyph glyph-name="Gcommaaccent" unicode="&#x122;" horiz-adv-x="1045" 
d="M466 -515l-26 43q84 55 84 173h-72v154h133l-1 -128q0 -99 -25.5 -154t-92.5 -88zM517 -23q-93 0 -163 25t-114.5 68t-72 108t-38.5 138t-11 165v704q0 92 11 164t39.5 135t73.5 104.5t115.5 65t164.5 23.5q207 0 295 -121t88 -352v-58h-106v65q0 192 -60.5 283.5
t-215.5 91.5q-72 0 -124 -19.5t-84 -52.5t-51 -85t-26 -108.5t-7 -131.5v-722q0 -96 13 -165t45 -123.5t90.5 -81.5t145.5 -27q80 0 135.5 26t86 79t43.5 121.5t13 163.5v244h-264v86h369v-790h-72l-17 186q-65 -209 -302 -209z" />
    <glyph glyph-name="gcommaaccent" unicode="&#x123;" horiz-adv-x="901" 
d="M428 451q61 0 106.5 25.5t69.5 62t39 87t19 90.5t4 83q0 50 -10.5 101.5t-35 107t-75 90.5t-119.5 35q-57 0 -101.5 -26.5t-69.5 -64.5t-41.5 -86t-22 -86t-5.5 -70q0 -35 3.5 -68.5t12 -75.5t26 -76.5t43 -64.5t66 -47t91.5 -17zM403 -332q86 0 153.5 17.5t111.5 58
t44 100.5v6q0 46 -21 77t-82 59.5t-173 54.5l-115 25q-39 -22 -67 -42t-63.5 -51.5t-55 -69.5t-19.5 -79q0 -80 77.5 -118t209.5 -38zM462 1499v120q0 98 28 155.5t95 97.5l15 -29q-45 -38 -64 -92t-19 -99h74v-153h-129zM403 -407q-185 0 -284 57.5t-99 164.5
q0 77 66 150.5t155 121.5q-155 40 -155 87q0 28 14.5 63.5t44 77.5t46.5 63.5l47 58.5q-157 109 -157 360q0 56 12 111.5t39 109.5t66 95t97.5 66t128.5 25q174 0 269 -159q27 47 70.5 86t89.5 58l30 12l31 -72q-99 -25 -188 -132q17 -39 29.5 -100t12.5 -101
q0 -121 -34.5 -212.5t-112 -147.5t-190.5 -56q-81 0 -142 27l-34.5 -50.5l-41.5 -61.5t-29.5 -53t-14.5 -48q0 -13 99 -38q29 -7 210 -48q166 -41 245 -98.5t79 -159.5q0 -83 -57 -143t-145.5 -87t-196.5 -27z" />
    <glyph glyph-name="Hcircumflex" unicode="&#x124;" horiz-adv-x="1109" 
d="M311 1799l177 367h136l173 -367h-77l-165 313l-164 -313h-80zM152 0v1658h112v-747h581v747h112v-1658h-112v826h-581v-826h-112z" />
    <glyph glyph-name="hcircumflex" unicode="&#x125;" horiz-adv-x="802" 
d="M163 1780l177 367h136l173 -367h-77l-165 313l-164 -313h-80zM117 0v1658h109v-600q125 145 281 145q85 0 136 -62.5t51 -196.5v-944h-110v932q0 103 -31.5 144.5t-92.5 41.5q-114 0 -234 -130v-988h-109z" />
    <glyph glyph-name="Hbar" unicode="&#x126;" horiz-adv-x="1109" 
d="M264 911h581v400h-581v-400zM152 0v1311h-76v66h76v281h112v-281h581v281h112v-281h77v-66h-77v-1311h-112v826h-581v-826h-112z" />
    <glyph glyph-name="hbar" unicode="&#x127;" horiz-adv-x="801" 
d="M116 0v1436h-134v70h134v152h109v-152h242v-70h-242v-378q125 145 281 145q85 0 135.5 -62.5t50.5 -196.5v-944h-109v932q0 103 -31.5 144.5t-92.5 41.5q-116 0 -234 -130v-988h-109z" />
    <glyph glyph-name="Itilde" unicode="&#x128;" horiz-adv-x="422" 
d="M300 1800q-39 3 -100 46.5t-81 46.5q-6 2 -18 2q-26 0 -41.5 -21t-15.5 -60h-75q0 13 2.5 29.5t10.5 40t21 42t37.5 31.5t55.5 13q18 0 28 -2q36 -5 98 -48t83 -46q5 -1 14 -1q61 0 65 92h70q0 -23 -4.5 -46.5t-17 -53t-41.5 -48t-71 -18.5q-13 0 -20 1zM156 0v1658h111
v-1658h-111z" />
    <glyph glyph-name="itilde" unicode="&#x129;" horiz-adv-x="372" 
d="M276 1326q-39 3 -100 46.5t-81 46.5q-6 2 -18 2q-26 0 -41.5 -21t-15.5 -60h-75q0 13 2.5 29.5t10.5 40t21 42t37.5 31.5t55.5 13q18 0 28 -2q36 -5 98 -48t83 -46q5 -1 14 -1q61 0 65 92h70q0 -23 -4.5 -46.5t-17 -53t-41.5 -48t-71 -18.5q-13 0 -20 1zM133 0v1184h109
v-1184h-109z" />
    <glyph glyph-name="Imacron" unicode="&#x12a;" horiz-adv-x="422" 
d="M37 1799v75h350v-75h-350zM156 0v1658h111v-1658h-111z" />
    <glyph glyph-name="imacron" unicode="&#x12b;" horiz-adv-x="372" 
d="M13 1325v75h350v-75h-350zM133 0v1184h109v-1184h-109z" />
    <glyph glyph-name="Ibreve" unicode="&#x12c;" horiz-adv-x="422" 
d="M208 1799q-106 0 -169 57t-67 170h75q3 -82 47 -119.5t114 -37.5t115 37.5t51 119.5h76q-5 -113 -70 -170t-172 -57zM156 0v1658h111v-1658h-111z" />
    <glyph glyph-name="ibreve" unicode="&#x12d;" horiz-adv-x="372" 
d="M184 1325q-106 0 -169 57t-67 170h75q3 -82 47 -119.5t114 -37.5t115 37.5t51 119.5h76q-5 -113 -70 -170t-172 -57zM133 0v1184h109v-1184h-109z" />
    <glyph glyph-name="Iogonek" unicode="&#x12e;" horiz-adv-x="422" 
d="M278 -407q-251 0 -251 163q0 71 47 141.5t115 106.5h62q-139 -139 -139 -239q0 -57 52 -83.5t133 -26.5zM156 0v1658h111v-1658h-111z" />
    <glyph glyph-name="iogonek" unicode="&#x12f;" horiz-adv-x="388" 
d="M254 -407q-251 0 -251 163q0 71 47 141.5t115 106.5h62q-139 -139 -139 -239q0 -57 52 -83.5t133 -26.5zM134 1339v189h109v-189h-109zM134 0v1184h109v-1184h-109z" />
    <glyph glyph-name="Idotaccent" unicode="&#x130;" horiz-adv-x="422" 
d="M150 1799v213h122v-213h-122zM156 0v1658h111v-1658h-111z" />
    <glyph glyph-name="dotlessi" unicode="&#x131;" horiz-adv-x="372" 
d="M133 0v1184h109v-1184h-109z" />
    <glyph glyph-name="ij" unicode="&#x133;" horiz-adv-x="802" 
d="M553 1339v189h110v-189h-110zM356 -313v87q8 -2 48 -2q41 0 70 11t44 25.5t23.5 41t10 47t1.5 52.5v1235h109v-1242q0 -137 -62.5 -198t-182.5 -61q-50 0 -61 4zM134 1339v189h109v-189h-109zM134 0v1184h109v-1184h-109z" />
    <glyph glyph-name="Jcircumflex" unicode="&#x134;" horiz-adv-x="543" 
d="M91 1724l177 367h136l173 -367h-77l-165 313l-164 -313h-80zM16 -92v87q64 0 104.5 4t71.5 19t46.5 33.5t25.5 58.5t12 82t2 116v1350h112v-1364q0 -72 -4.5 -121t-16 -96t-33 -76t-56.5 -51.5t-85.5 -32t-120.5 -9.5h-58z" />
    <glyph glyph-name="jcircumflex" unicode="&#x135;" horiz-adv-x="414" 
d="M-32 1254l177 367h136l173 -367h-77l-165 313l-164 -313h-80zM-32 -321v87q4 -1 48 -1q51 0 83 14t45.5 43t17 54t3.5 66v1242h109v-1250q0 -137 -62.5 -198t-182.5 -61q-50 0 -61 4z" />
    <glyph glyph-name="Kcommaaccent" unicode="&#x136;" horiz-adv-x="942" 
d="M500 -492l-26 43q84 55 84 173h-72v154h133l-1 -128q0 -99 -25.5 -154t-92.5 -88zM152 0v1658h112v-930l482 930h110l-351 -701l436 -957h-112l-404 889l-161 -295v-594h-112z" />
    <glyph glyph-name="kcommaaccent" unicode="&#x137;" horiz-adv-x="785" 
d="M404 -492l-26 43q84 55 84 173h-72v154h133l-1 -128q0 -99 -25.5 -154t-92.5 -88zM117 1v1658h109v-1093l439 618h118l-311 -453l293 -731h-109l-266 666l-164 -222v-443h-109z" />
    <glyph glyph-name="kgreenlandic" unicode="&#x138;" horiz-adv-x="841" 
d="M131 0v1184h109v-619l412 619h117l-305 -463l311 -721h-111l-277 648l-147 -209v-439h-109z" />
    <glyph glyph-name="Lacute" unicode="&#x139;" horiz-adv-x="764" 
d="M431 1799l132 397h110l-185 -397h-57zM153 0v1658h112v-1570h501v-88h-613z" />
    <glyph glyph-name="lacute" unicode="&#x13a;" horiz-adv-x="380" 
d="M163 1780l132 397h110l-185 -397h-57zM137 0v1658h109v-1658h-109z" />
    <glyph glyph-name="Lcommaaccent" unicode="&#x13b;" horiz-adv-x="764" 
d="M413 -492l-26 43q84 55 84 173h-72v154h133l-1 -128q0 -99 -25.5 -154t-92.5 -88zM153 0v1658h112v-1570h501v-88h-613z" />
    <glyph glyph-name="lcommaaccent" unicode="&#x13c;" horiz-adv-x="380" 
d="M145 -492l-26 43q84 55 84 173h-72v154h133l-1 -128q0 -99 -25.5 -154t-92.5 -88zM137 0v1658h109v-1658h-109z" />
    <glyph glyph-name="Lcaron" unicode="&#x13d;" horiz-adv-x="764" 
d="M464 1207v470h112l-52 -470h-60zM153 0v1658h112v-1570h501v-88h-613z" />
    <glyph glyph-name="lcaron" unicode="&#x13e;" horiz-adv-x="523" 
d="M429 1188v470h112l-52 -470h-60zM137 0v1658h109v-1658h-109z" />
    <glyph glyph-name="Ldot" unicode="&#x13f;" horiz-adv-x="764" 
d="M529 762v153h112v-153h-112zM153 0v1658h112v-1570h501v-88h-613z" />
    <glyph glyph-name="ldot" unicode="&#x140;" horiz-adv-x="779" 
d="M546 697v153h112v-153h-112zM137 0v1658h109v-1658h-109z" />
    <glyph glyph-name="Lslash" unicode="&#x141;" horiz-adv-x="764" 
d="M153 0v835l-147 -76v91l147 76v732h112v-672l249 129v-91l-249 -129v-807h501v-88h-613z" />
    <glyph glyph-name="lslash" unicode="&#x142;" horiz-adv-x="505" 
d="M198 0v943l-126 -70v95l126 69v621h109v-565l124 69v-94l-124 -69v-999h-109z" />
    <glyph glyph-name="Nacute" unicode="&#x143;" horiz-adv-x="1055" 
d="M499 1799l132 397h110l-185 -397h-57zM153 0v1658h89l562 -1400v1400h99v-1658h-88l-563 1403v-1403h-99z" />
    <glyph glyph-name="nacute" unicode="&#x144;" horiz-adv-x="801" 
d="M375 1325l132 397h110l-185 -397h-57zM116 0v1184h109v-127q124 146 281 146q85 0 135.5 -62.5t50.5 -196.5v-944h-109v932q0 103 -31.5 144.5t-92.5 41.5q-58 0 -119 -35.5t-115 -95.5v-987h-109z" />
    <glyph glyph-name="Ncommaaccent" unicode="&#x145;" horiz-adv-x="1055" 
d="M482 -492l-26 43q84 55 84 173h-72v154h133l-1 -128q0 -99 -25.5 -154t-92.5 -88zM153 0v1658h89l562 -1400v1400h99v-1658h-88l-563 1403v-1403h-99z" />
    <glyph glyph-name="ncommaaccent" unicode="&#x146;" horiz-adv-x="801" 
d="M358 -492l-26 43q84 55 84 173h-72v154h133l-1 -128q0 -99 -25.5 -154t-92.5 -88zM116 0v1184h109v-127q124 146 281 146q85 0 135.5 -62.5t50.5 -196.5v-944h-109v932q0 103 -31.5 144.5t-92.5 41.5q-58 0 -119 -35.5t-115 -95.5v-987h-109z" />
    <glyph glyph-name="Ncaron" unicode="&#x147;" horiz-adv-x="1055" 
d="M486 1799l-173 332h93l122 -249l123 249h92l-175 -332h-82zM153 0v1658h89l562 -1400v1400h99v-1658h-88l-563 1403v-1403h-99z" />
    <glyph glyph-name="ncaron" unicode="&#x148;" horiz-adv-x="801" 
d="M362 1325l-173 332h93l122 -249l123 249h92l-175 -332h-82zM116 0v1184h109v-127q124 146 281 146q85 0 135.5 -62.5t50.5 -196.5v-944h-109v932q0 103 -31.5 144.5t-92.5 41.5q-58 0 -119 -35.5t-115 -95.5v-987h-109z" />
    <glyph glyph-name="napostrophe" unicode="&#x149;" horiz-adv-x="801" 
d="M116 0v1184h109v-127q124 146 281 146q85 0 135.5 -62.5t50.5 -196.5v-944h-109v932q0 103 -31.5 144.5t-92.5 41.5q-58 0 -119 -35.5t-115 -95.5v-987h-109zM121 1328v470h112l-52 -470h-60z" />
    <glyph glyph-name="Eng" unicode="&#x14a;" horiz-adv-x="1101" 
d="M585 -288v78h11q126 0 167.5 38.5t41.5 142.5v54l-557 1378v-1403h-95v1658h89l566 -1400v1400h95v-1658q0 -74 -11 -124.5t-39 -89t-78.5 -56.5t-127.5 -18h-62z" />
    <glyph glyph-name="eng" unicode="&#x14b;" horiz-adv-x="794" 
d="M335 -319v88q75 0 123.5 14.5t74 45.5t35 68.5t9.5 92.5v942q0 103 -31.5 144.5t-92.5 41.5q-58 0 -119 -35.5t-115 -95.5v-987h-109v1184h109v-127q124 146 281 146q85 0 135.5 -62t50.5 -197v-956q0 -307 -324 -307h-27z" />
    <glyph glyph-name="Omacron" unicode="&#x14c;" horiz-adv-x="1056" 
d="M353 1799v75h350v-75h-350zM528 -22q-95 0 -167 24.5t-117.5 67t-74 106.5t-40 135.5t-11.5 160.5v724q0 88 12 158.5t41.5 132t76 102.5t117 64.5t163.5 23.5q115 0 196 -35t127 -101t66.5 -150.5t20.5 -194.5v-727q0 -89 -11.5 -160t-40 -134.5t-74.5 -105.5
t-117.5 -66.5t-166.5 -24.5zM528 70q87 0 146.5 26.5t91.5 78.5t45.5 117t13.5 155v765q0 90 -13 154.5t-45.5 116t-92 77.5t-146.5 26t-146.5 -26t-92 -77.5t-45.5 -116t-13 -154.5v-765q0 -90 13 -155t45.5 -117t92 -78.5t146.5 -26.5z" />
    <glyph glyph-name="omacron" unicode="&#x14d;" horiz-adv-x="784" 
d="M217 1325v75h350v-75h-350zM392 -19q-170 0 -234 108t-64 343v320q0 234 64.5 342.5t233.5 108.5q87 0 145.5 -28t92 -87.5t47 -139.5t13.5 -196v-320q0 -235 -64 -343t-234 -108zM392 63q42 0 73.5 10.5t52 34t33.5 51.5t19.5 73.5t8.5 88.5t2 107v328q0 77 -3 126.5
t-14 99t-31 77.5t-55 45t-86 17t-86 -17t-55 -45t-31 -77.5t-14 -99t-3 -126.5v-328q0 -64 2 -107t8.5 -88.5t19.5 -73.5t33.5 -51.5t52 -34t73.5 -10.5z" />
    <glyph glyph-name="Obreve" unicode="&#x14e;" horiz-adv-x="1056" 
d="M525 1799q-106 0 -169 57t-67 170h75q3 -82 47 -119.5t114 -37.5t115 37.5t51 119.5h76q-5 -113 -70 -170t-172 -57zM528 -22q-95 0 -167 24.5t-117.5 67t-74 106.5t-40 135.5t-11.5 160.5v724q0 88 12 158.5t41.5 132t76 102.5t117 64.5t163.5 23.5q115 0 196 -35
t127 -101t66.5 -150.5t20.5 -194.5v-727q0 -89 -11.5 -160t-40 -134.5t-74.5 -105.5t-117.5 -66.5t-166.5 -24.5zM528 70q87 0 146.5 26.5t91.5 78.5t45.5 117t13.5 155v765q0 90 -13 154.5t-45.5 116t-92 77.5t-146.5 26t-146.5 -26t-92 -77.5t-45.5 -116t-13 -154.5v-765
q0 -90 13 -155t45.5 -117t92 -78.5t146.5 -26.5z" />
    <glyph glyph-name="obreve" unicode="&#x14f;" horiz-adv-x="784" 
d="M389 1325q-106 0 -169 57t-67 170h75q3 -82 47 -119.5t114 -37.5t115 37.5t51 119.5h76q-5 -113 -70 -170t-172 -57zM392 -19q-170 0 -234 108t-64 343v320q0 234 64.5 342.5t233.5 108.5q87 0 145.5 -28t92 -87.5t47 -139.5t13.5 -196v-320q0 -235 -64 -343t-234 -108z
M392 63q42 0 73.5 10.5t52 34t33.5 51.5t19.5 73.5t8.5 88.5t2 107v328q0 77 -3 126.5t-14 99t-31 77.5t-55 45t-86 17t-86 -17t-55 -45t-31 -77.5t-14 -99t-3 -126.5v-328q0 -64 2 -107t8.5 -88.5t19.5 -73.5t33.5 -51.5t52 -34t73.5 -10.5z" />
    <glyph glyph-name="Ohungarumlaut" unicode="&#x150;" horiz-adv-x="1056" 
d="M587 1799l111 314h127l-175 -314h-63zM406 1799l78 314h109l-127 -314h-60zM528 -22q-95 0 -167 24.5t-117.5 67t-74 106.5t-40 135.5t-11.5 160.5v724q0 88 12 158.5t41.5 132t76 102.5t117 64.5t163.5 23.5q115 0 196 -35t127 -101t66.5 -150.5t20.5 -194.5v-727
q0 -89 -11.5 -160t-40 -134.5t-74.5 -105.5t-117.5 -66.5t-166.5 -24.5zM528 70q87 0 146.5 26.5t91.5 78.5t45.5 117t13.5 155v765q0 90 -13 154.5t-45.5 116t-92 77.5t-146.5 26t-146.5 -26t-92 -77.5t-45.5 -116t-13 -154.5v-765q0 -90 13 -155t45.5 -117t92 -78.5
t146.5 -26.5z" />
    <glyph glyph-name="ohungarumlaut" unicode="&#x151;" horiz-adv-x="784" 
d="M451 1325l111 314h127l-175 -314h-63zM270 1325l78 314h109l-127 -314h-60zM392 -19q-170 0 -234 108t-64 343v320q0 234 64.5 342.5t233.5 108.5q87 0 145.5 -28t92 -87.5t47 -139.5t13.5 -196v-320q0 -235 -64 -343t-234 -108zM392 63q42 0 73.5 10.5t52 34t33.5 51.5
t19.5 73.5t8.5 88.5t2 107v328q0 77 -3 126.5t-14 99t-31 77.5t-55 45t-86 17t-86 -17t-55 -45t-31 -77.5t-14 -99t-3 -126.5v-328q0 -64 2 -107t8.5 -88.5t19.5 -73.5t33.5 -51.5t52 -34t73.5 -10.5z" />
    <glyph glyph-name="OE" unicode="&#x152;" horiz-adv-x="1270" 
d="M547 94h146v1473h-147q-94 0 -157.5 -26.5t-97.5 -80.5t-47.5 -121.5t-13.5 -162.5v-708q0 -90 14.5 -155t49 -116.5t97.5 -77t156 -25.5zM546 0q-121 0 -206.5 34.5t-133 100t-68 146.5t-20.5 187v714q0 87 13.5 157.5t44.5 131t79 101t120.5 63.5t165.5 23h666v-92
h-403v-655h336v-87h-336v-732h405v-92h-663z" />
    <glyph glyph-name="oe" unicode="&#x153;" horiz-adv-x="1284" 
d="M700 684h379v72q0 58 -2 98.5t-8 85.5t-18.5 74t-32.5 54t-51 36.5t-72 11.5q-105 0 -150 -78t-45 -272v-82zM400 68q51 0 86.5 17t55.5 44.5t31.5 77t14.5 99t3 125.5v322q0 76 -3 125.5t-14.5 99t-31.5 77t-55.5 44.5t-86.5 17t-86 -17t-55 -44.5t-31 -77t-14 -98.5
t-3 -126v-322q0 -77 3 -126t14 -98.5t31 -77t55 -44.5t86 -17zM400 -19q-169 0 -233.5 107.5t-64.5 342.5v322q0 233 64.5 341.5t233.5 108.5q199 0 246 -183q54 183 251 183q161 0 226 -106t65 -362l-2 -114h-486v-164q0 -211 44 -299t148 -90h8q29 0 50 3.5t47 17.5
t42.5 39t28 71.5t11.5 110.5v90h108v-88q0 -160 -66.5 -245.5t-221.5 -85.5h-7q-195 2 -245 194q-45 -194 -247 -194z" />
    <glyph glyph-name="Racute" unicode="&#x154;" horiz-adv-x="1041" 
d="M519 1799l132 397h110l-185 -397h-57zM265 921h285q78 0 130 22t80 67t39 101.5t11 138.5q0 167 -56 243.5t-205 76.5h-284v-649zM153 0v1658h403q86 0 150.5 -21t104.5 -56.5t65 -89t34.5 -111.5t9.5 -130q0 -60 -6 -110t-22.5 -99.5t-43 -85.5t-71 -62.5t-102.5 -35.5
l268 -857h-111l-259 836h-308v-836h-112z" />
    <glyph glyph-name="racute" unicode="&#x155;" horiz-adv-x="580" 
d="M307 1325l132 397h110l-185 -397h-57zM132 0v1184h108v-160q50 83 128 127.5t152 44.5q1 0 9.5 -0.5t10.5 -0.5v-113q-18 6 -44 6q-166 0 -256 -153v-935h-108z" />
    <glyph glyph-name="Rcommaaccent" unicode="&#x156;" horiz-adv-x="1041" 
d="M502 -492l-26 43q84 55 84 173h-72v154h133l-1 -128q0 -99 -25.5 -154t-92.5 -88zM265 921h285q78 0 130 22t80 67t39 101.5t11 138.5q0 167 -56 243.5t-205 76.5h-284v-649zM153 0v1658h403q86 0 150.5 -21t104.5 -56.5t65 -89t34.5 -111.5t9.5 -130q0 -60 -6 -110
t-22.5 -99.5t-43 -85.5t-71 -62.5t-102.5 -35.5l268 -857h-111l-259 836h-308v-836h-112z" />
    <glyph glyph-name="rcommaaccent" unicode="&#x157;" horiz-adv-x="580" 
d="M290 -492l-26 43q84 55 84 173h-72v154h133l-1 -128q0 -99 -25.5 -154t-92.5 -88zM132 0v1184h108v-160q50 83 128 127.5t152 44.5q1 0 9.5 -0.5t10.5 -0.5v-113q-18 6 -44 6q-166 0 -256 -153v-935h-108z" />
    <glyph glyph-name="Rcaron" unicode="&#x158;" horiz-adv-x="1041" 
d="M506 1799l-173 332h93l122 -249l123 249h92l-175 -332h-82zM265 921h285q78 0 130 22t80 67t39 101.5t11 138.5q0 167 -56 243.5t-205 76.5h-284v-649zM153 0v1658h403q86 0 150.5 -21t104.5 -56.5t65 -89t34.5 -111.5t9.5 -130q0 -60 -6 -110t-22.5 -99.5t-43 -85.5
t-71 -62.5t-102.5 -35.5l268 -857h-111l-259 836h-308v-836h-112z" />
    <glyph glyph-name="rcaron" unicode="&#x159;" horiz-adv-x="580" 
d="M294 1325l-173 332h93l122 -249l123 249h92l-175 -332h-82zM132 0v1184h108v-160q50 83 128 127.5t152 44.5q1 0 9.5 -0.5t10.5 -0.5v-113q-18 6 -44 6q-166 0 -256 -153v-935h-108z" />
    <glyph glyph-name="Sacute" unicode="&#x15a;" horiz-adv-x="926" 
d="M443 1799l132 397h110l-185 -397h-57zM486 -21q-365 0 -401 430l98 31q9 -71 21.5 -123t35.5 -100.5t55 -79t80.5 -48.5t111.5 -18q265 0 265 267q0 102 -51.5 186t-164.5 196l-303 302q-144 144 -144 315q0 162 98.5 250.5t264.5 89.5h3q177 0 273 -95.5t110 -320.5
l-94 -22q-16 180 -78.5 264t-200.5 84h-10q-121 -2 -193 -61.5t-72 -180.5q0 -65 28 -124.5t94 -126.5l299 -295q115 -114 180.5 -223.5t65.5 -231.5q0 -180 -100.5 -272.5t-270.5 -92.5z" />
    <glyph glyph-name="sacute" unicode="&#x15b;" horiz-adv-x="730" 
d="M343 1325l132 397h110l-185 -397h-57zM384 -19q-138 0 -220 90t-95 248l92 27q21 -283 228 -283q88 0 138 49.5t50 139.5q0 135 -173 281l-137 116q-91 76 -131 144t-40 154q0 121 72.5 188.5t196.5 67.5q128 0 195.5 -82t72.5 -229l-81 -24q-8 253 -182 253
q-79 0 -126.5 -41t-47.5 -116q0 -70 24.5 -118t96.5 -109l141 -125q51 -44 80.5 -73t65 -75t52.5 -98t18 -113q0 -128 -78 -200t-212 -72z" />
    <glyph glyph-name="Scircumflex" unicode="&#x15c;" horiz-adv-x="926" 
d="M228 1799l177 367h136l173 -367h-77l-165 313l-164 -313h-80zM486 -21q-365 0 -401 430l98 31q9 -71 21.5 -123t35.5 -100.5t55 -79t80.5 -48.5t111.5 -18q265 0 265 267q0 102 -51.5 186t-164.5 196l-303 302q-144 144 -144 315q0 162 98.5 250.5t264.5 89.5h3
q177 0 273 -95.5t110 -320.5l-94 -22q-16 180 -78.5 264t-200.5 84h-10q-121 -2 -193 -61.5t-72 -180.5q0 -65 28 -124.5t94 -126.5l299 -295q115 -114 180.5 -223.5t65.5 -231.5q0 -180 -100.5 -272.5t-270.5 -92.5z" />
    <glyph glyph-name="scircumflex" unicode="&#x15d;" horiz-adv-x="730" 
d="M129 1325l177 367h136l173 -367h-77l-165 313l-164 -313h-80zM384 -19q-138 0 -220 90t-95 248l92 27q21 -283 228 -283q88 0 138 49.5t50 139.5q0 135 -173 281l-137 116q-91 76 -131 144t-40 154q0 121 72.5 188.5t196.5 67.5q128 0 195.5 -82t72.5 -229l-81 -24
q-8 253 -182 253q-79 0 -126.5 -41t-47.5 -116q0 -70 24.5 -118t96.5 -109l141 -125q51 -44 80.5 -73t65 -75t52.5 -98t18 -113q0 -128 -78 -200t-212 -72z" />
    <glyph glyph-name="Scedilla" unicode="&#x15e;" horiz-adv-x="926" 
d="M404 -378v58q18 -1 50 -1q69 0 100 17t34 56v10q0 90 -140 111v127h60v-97q76 -10 120 -53t44 -97v-8q-6 -126 -200 -126q-32 0 -68 3zM486 -21q-365 0 -401 430l98 31q9 -71 21.5 -123t35.5 -100.5t55 -79t80.5 -48.5t111.5 -18q265 0 265 267q0 102 -51.5 186
t-164.5 196l-303 302q-144 144 -144 315q0 162 98.5 250.5t264.5 89.5h3q177 0 273 -95.5t110 -320.5l-94 -22q-16 180 -78.5 264t-200.5 84h-10q-121 -2 -193 -61.5t-72 -180.5q0 -65 28 -124.5t94 -126.5l299 -295q115 -114 180.5 -223.5t65.5 -231.5
q0 -180 -100.5 -272.5t-270.5 -92.5z" />
    <glyph glyph-name="scedilla" unicode="&#x15f;" horiz-adv-x="730" 
d="M304 -378v58q18 -1 50 -1q69 0 100 17t34 56v10q0 90 -140 111v127h60v-97q76 -10 120 -53t44 -97v-8q-6 -126 -200 -126q-32 0 -68 3zM384 -19q-138 0 -220 90t-95 248l92 27q21 -283 228 -283q88 0 138 49.5t50 139.5q0 135 -173 281l-137 116q-91 76 -131 144t-40 154
q0 121 72.5 188.5t196.5 67.5q128 0 195.5 -82t72.5 -229l-81 -24q-8 253 -182 253q-79 0 -126.5 -41t-47.5 -116q0 -70 24.5 -118t96.5 -109l141 -125q51 -44 80.5 -73t65 -75t52.5 -98t18 -113q0 -128 -78 -200t-212 -72z" />
    <glyph glyph-name="Scaron" unicode="&#x160;" horiz-adv-x="926" 
d="M429 1799l-173 332h93l122 -249l123 249h92l-175 -332h-82zM486 -21q-365 0 -401 430l98 31q9 -71 21.5 -123t35.5 -100.5t55 -79t80.5 -48.5t111.5 -18q265 0 265 267q0 102 -51.5 186t-164.5 196l-303 302q-144 144 -144 315q0 162 98.5 250.5t264.5 89.5h3
q177 0 273 -95.5t110 -320.5l-94 -22q-16 180 -78.5 264t-200.5 84h-10q-121 -2 -193 -61.5t-72 -180.5q0 -65 28 -124.5t94 -126.5l299 -295q115 -114 180.5 -223.5t65.5 -231.5q0 -180 -100.5 -272.5t-270.5 -92.5z" />
    <glyph glyph-name="scaron" unicode="&#x161;" horiz-adv-x="730" 
d="M329 1325l-173 332h93l122 -249l123 249h92l-175 -332h-82zM384 -19q-138 0 -220 90t-95 248l92 27q21 -283 228 -283q88 0 138 49.5t50 139.5q0 135 -173 281l-137 116q-91 76 -131 144t-40 154q0 121 72.5 188.5t196.5 67.5q128 0 195.5 -82t72.5 -229l-81 -24
q-8 253 -182 253q-79 0 -126.5 -41t-47.5 -116q0 -70 24.5 -118t96.5 -109l141 -125q51 -44 80.5 -73t65 -75t52.5 -98t18 -113q0 -128 -78 -200t-212 -72z" />
    <glyph glyph-name="Tcommaaccent" unicode="&#x162;" horiz-adv-x="779" 
d="M314 -378v58q18 -1 50 -1q69 0 100 17t34 56v10q0 90 -140 111v127h60v-97q76 -10 120 -53t44 -97v-8q-6 -126 -200 -126q-32 0 -68 3zM337 0v1569h-351v89h807v-89h-344v-1569h-112z" />
    <glyph glyph-name="tcommaaccent" unicode="&#x163;" horiz-adv-x="538" 
d="M274 -378v58q18 -1 50 -1q69 0 100 17t34 56v10q0 90 -140 111v127h60v-97q76 -10 120 -53t44 -97v-8q-6 -126 -200 -126q-32 0 -68 3zM376 -13q-48 0 -82.5 13t-55 33.5t-32 54t-15 67t-3.5 79.5v878h-155v72h155v378h108v-378h201v-72h-201v-865q0 -101 20 -137.5
t84 -36.5q31 0 87 10v-82q-51 -14 -111 -14z" />
    <glyph glyph-name="Tcaron" unicode="&#x164;" horiz-adv-x="779" 
d="M347 1799l-173 332h93l122 -249l123 249h92l-175 -332h-82zM337 0v1569h-351v89h807v-89h-344v-1569h-112z" />
    <glyph glyph-name="tcaron" unicode="&#x165;" horiz-adv-x="658" 
d="M635 1092v470h112l-52 -470h-60zM376 -13q-48 0 -82.5 13t-55 33.5t-32 54t-15 67t-3.5 79.5v878h-155v72h155v378h108v-378h201v-72h-201v-865q0 -101 20 -137.5t84 -36.5q31 0 87 10v-82q-51 -14 -111 -14z" />
    <glyph glyph-name="Tbar" unicode="&#x166;" horiz-adv-x="779" 
d="M87 854v75h250v640h-351v89h807v-89h-344v-640h238v-75h-238v-854h-112v854h-250z" />
    <glyph glyph-name="tbar" unicode="&#x167;" horiz-adv-x="538" 
d="M376 -13q-48 0 -82.5 13t-55 33.5t-32 54t-15 67t-3.5 79.5v508h-128v67h128v303h-155v72h155v378h108v-378h201v-72h-201v-303h182v-67h-182v-495q0 -101 20 -137.5t84 -36.5q31 0 87 10v-82q-51 -14 -111 -14z" />
    <glyph glyph-name="Utilde" unicode="&#x168;" horiz-adv-x="1092" 
d="M635 1800q-39 3 -100 46.5t-81 46.5q-6 2 -18 2q-26 0 -41.5 -21t-15.5 -60h-75q0 13 2.5 29.5t10.5 40t21 42t37.5 31.5t55.5 13q18 0 28 -2q36 -5 98 -48t83 -46q5 -1 14 -1q61 0 65 92h70q0 -23 -4.5 -46.5t-17 -53t-41.5 -48t-71 -18.5q-13 0 -20 1zM546 -22
q-118 0 -200.5 30.5t-127.5 88t-64.5 128.5t-19.5 164v1269h109v-1271q0 -73 14 -127.5t47.5 -99t94 -67.5t147.5 -23q303 0 303 317v1271h109v-1269q0 -411 -412 -411z" />
    <glyph glyph-name="utilde" unicode="&#x169;" horiz-adv-x="808" 
d="M487 1326q-39 3 -100 46.5t-81 46.5q-6 2 -18 2q-26 0 -41.5 -21t-15.5 -60h-75q0 13 2.5 29.5t10.5 40t21 42t37.5 31.5t55.5 13q18 0 28 -2q36 -5 98 -48t83 -46q5 -1 14 -1q61 0 65 92h70q0 -23 -4.5 -46.5t-17 -53t-41.5 -48t-71 -18.5q-13 0 -20 1zM292 -19
q-85 0 -135.5 62.5t-50.5 196.5v944h109v-932q0 -103 31.5 -144.5t92.5 -41.5t124.5 38.5t119.5 103.5v976h108v-1184h-108v139q-59 -74 -134 -116t-157 -42z" />
    <glyph glyph-name="Umacron" unicode="&#x16a;" horiz-adv-x="1092" 
d="M371 1799v75h350v-75h-350zM546 -22q-118 0 -200.5 30.5t-127.5 88t-64.5 128.5t-19.5 164v1269h109v-1271q0 -73 14 -127.5t47.5 -99t94 -67.5t147.5 -23q303 0 303 317v1271h109v-1269q0 -411 -412 -411z" />
    <glyph glyph-name="umacron" unicode="&#x16b;" horiz-adv-x="808" 
d="M223 1325v75h350v-75h-350zM292 -19q-85 0 -135.5 62.5t-50.5 196.5v944h109v-932q0 -103 31.5 -144.5t92.5 -41.5t124.5 38.5t119.5 103.5v976h108v-1184h-108v139q-59 -74 -134 -116t-157 -42z" />
    <glyph glyph-name="Ubreve" unicode="&#x16c;" horiz-adv-x="1092" 
d="M543 1799q-106 0 -169 57t-67 170h75q3 -82 47 -119.5t114 -37.5t115 37.5t51 119.5h76q-5 -113 -70 -170t-172 -57zM546 -22q-118 0 -200.5 30.5t-127.5 88t-64.5 128.5t-19.5 164v1269h109v-1271q0 -73 14 -127.5t47.5 -99t94 -67.5t147.5 -23q303 0 303 317v1271h109
v-1269q0 -411 -412 -411z" />
    <glyph glyph-name="ubreve" unicode="&#x16d;" horiz-adv-x="808" 
d="M396 1325q-106 0 -169 57t-67 170h75q3 -82 47 -119.5t114 -37.5t115 37.5t51 119.5h76q-5 -113 -70 -170t-172 -57zM292 -19q-85 0 -135.5 62.5t-50.5 196.5v944h109v-932q0 -103 31.5 -144.5t92.5 -41.5t124.5 38.5t119.5 103.5v976h108v-1184h-108v139
q-59 -74 -134 -116t-157 -42z" />
    <glyph glyph-name="Uring" unicode="&#x16e;" horiz-adv-x="1092" 
d="M547 1862q46 0 77.5 27.5t31.5 83.5q0 57 -31.5 84.5t-77.5 27.5t-77 -27.5t-31 -84.5q0 -56 31 -83.5t77 -27.5zM547 1799q-72 0 -124.5 44t-52.5 130t52 130t125 44q71 0 123.5 -44t52.5 -130t-52.5 -130t-123.5 -44zM546 -22q-118 0 -200.5 30.5t-127.5 88
t-64.5 128.5t-19.5 164v1269h109v-1271q0 -73 14 -127.5t47.5 -99t94 -67.5t147.5 -23q303 0 303 317v1271h109v-1269q0 -411 -412 -411z" />
    <glyph glyph-name="uring" unicode="&#x16f;" horiz-adv-x="808" 
d="M399 1388q46 0 77.5 27.5t31.5 83.5q0 57 -31.5 84.5t-77.5 27.5t-77 -27.5t-31 -84.5q0 -56 31 -83.5t77 -27.5zM399 1325q-72 0 -124.5 44t-52.5 130t52 130t125 44q71 0 123.5 -44t52.5 -130t-52.5 -130t-123.5 -44zM292 -19q-85 0 -135.5 62.5t-50.5 196.5v944h109
v-932q0 -103 31.5 -144.5t92.5 -41.5t124.5 38.5t119.5 103.5v976h108v-1184h-108v139q-59 -74 -134 -116t-157 -42z" />
    <glyph glyph-name="Uhungarumlaut" unicode="&#x170;" horiz-adv-x="1092" 
d="M605 1799l111 314h127l-175 -314h-63zM424 1799l78 314h109l-127 -314h-60zM546 -22q-118 0 -200.5 30.5t-127.5 88t-64.5 128.5t-19.5 164v1269h109v-1271q0 -73 14 -127.5t47.5 -99t94 -67.5t147.5 -23q303 0 303 317v1271h109v-1269q0 -411 -412 -411z" />
    <glyph glyph-name="uhungarumlaut" unicode="&#x171;" horiz-adv-x="808" 
d="M458 1325l111 314h127l-175 -314h-63zM277 1325l78 314h109l-127 -314h-60zM292 -19q-85 0 -135.5 62.5t-50.5 196.5v944h109v-932q0 -103 31.5 -144.5t92.5 -41.5t124.5 38.5t119.5 103.5v976h108v-1184h-108v139q-59 -74 -134 -116t-157 -42z" />
    <glyph glyph-name="Uogonek" unicode="&#x172;" horiz-adv-x="1092" 
d="M639 -407q-251 0 -251 163q0 71 47 141.5t115 106.5h62q-139 -139 -139 -239q0 -57 52 -83.5t133 -26.5zM546 -22q-118 0 -200.5 30.5t-127.5 88t-64.5 128.5t-19.5 164v1269h109v-1271q0 -73 14 -127.5t47.5 -99t94 -67.5t147.5 -23q303 0 303 317v1271h109v-1269
q0 -411 -412 -411z" />
    <glyph glyph-name="uogonek" unicode="&#x173;" horiz-adv-x="808" 
d="M698 -407q-251 0 -251 163q0 71 47 141.5t115 106.5h62q-139 -139 -139 -239q0 -57 52 -83.5t133 -26.5zM292 -19q-85 0 -135.5 62.5t-50.5 196.5v944h109v-932q0 -103 31.5 -144.5t92.5 -41.5t124.5 38.5t119.5 103.5v976h108v-1184h-108v139q-59 -74 -134 -116
t-157 -42z" />
    <glyph glyph-name="Wcircumflex" unicode="&#x174;" horiz-adv-x="1446" 
d="M480 1799l177 367h136l173 -367h-77l-165 313l-164 -313h-80zM358 0l-289 1657l99 1l243 -1438l266 1401h108l273 -1402l222 1439h97l-270 -1658h-93l-282 1453l-277 -1453h-97z" />
    <glyph glyph-name="wcircumflex" unicode="&#x175;" horiz-adv-x="1160" 
d="M337 1325l177 367h136l173 -367h-77l-165 313l-164 -313h-80zM263 0l-196 1184h96l165 -1060l202 1060h106l207 -1055l154 1055h96l-189 -1184h-113l-206 1039l-199 -1039h-123z" />
    <glyph glyph-name="Ycircumflex" unicode="&#x176;" horiz-adv-x="946" 
d="M230 1799l177 367h136l173 -367h-77l-165 313l-164 -313h-80zM424 0v530l-383 1128h115l325 -995l310 995h114l-370 -1128v-530h-111z" />
    <glyph glyph-name="ycircumflex" unicode="&#x177;" horiz-adv-x="767" 
d="M143 1325l177 367h136l173 -367h-77l-165 313l-164 -313h-80zM76 -295v88q104 0 161.5 17t76 45t18.5 76q0 16 -1 25q-3 31 -34 164l-248 1064h107l234 -1081l224 1081h109l-289 -1281q-24 -105 -97 -151.5t-216 -46.5h-45z" />
    <glyph glyph-name="Ydieresis" unicode="&#x178;" horiz-adv-x="946" 
d="M580 1799v154h114v-154h-114zM253 1799v154h114v-154h-114zM424 0v530l-383 1128h115l325 -995l310 995h114l-370 -1128v-530h-111z" />
    <glyph glyph-name="Zacute" unicode="&#x179;" horiz-adv-x="822" 
d="M395 1799l132 397h110l-185 -397h-57zM64 0v88l596 1482h-543v88h663v-69l-602 -1501h605v-88h-719z" />
    <glyph glyph-name="zacute" unicode="&#x17a;" horiz-adv-x="666" 
d="M307 1325l132 397h110l-185 -397h-57zM66 0v79l427 1021h-382v84h494v-71l-424 -1030h416v-83h-531z" />
    <glyph glyph-name="Zdotaccent" unicode="&#x17b;" horiz-adv-x="822" 
d="M362 1799v213h122v-213h-122zM64 0v88l596 1482h-543v88h663v-69l-602 -1501h605v-88h-719z" />
    <glyph glyph-name="zdotaccent" unicode="&#x17c;" horiz-adv-x="666" 
d="M274 1325v213h122v-213h-122zM66 0v79l427 1021h-382v84h494v-71l-424 -1030h416v-83h-531z" />
    <glyph glyph-name="Zcaron" unicode="&#x17d;" horiz-adv-x="822" 
d="M381 1799l-173 332h93l122 -249l123 249h92l-175 -332h-82zM64 0v88l596 1482h-543v88h663v-69l-602 -1501h605v-88h-719z" />
    <glyph glyph-name="zcaron" unicode="&#x17e;" horiz-adv-x="666" 
d="M293 1325l-173 332h93l122 -249l123 249h92l-175 -332h-82zM66 0v79l427 1021h-382v84h494v-71l-424 -1030h416v-83h-531z" />
    <glyph glyph-name="florin" unicode="&#x192;" horiz-adv-x="758" 
d="M86 -285q-59 0 -106 14l10 83q52 -12 85 -12q66 0 91.5 39t41.5 142l166 1126h-158v77h168l26 163q8 65 19 106t35 81t67 59t108 19q57 0 107 -14l-11 -83q-62 12 -85 12q-66 0 -91.5 -39t-41.5 -142l-24 -162h186v-77h-196l-167 -1127q-7 -52 -14.5 -85.5t-24 -71
t-39.5 -59t-61.5 -35.5t-90.5 -14z" />
    <glyph glyph-name="uni01C4" unicode="&#x1c4;" horiz-adv-x="1881" 
d="M1440 1799l-173 332h93l122 -249l123 249h92l-175 -332h-82zM1123 0v88l596 1482h-543v88h663v-69l-602 -1501h605v-88h-719zM153 0v1658h364q120 0 204.5 -36t131.5 -103t67.5 -149.5t20.5 -187.5v-688q0 -113 -20.5 -199t-66.5 -154.5t-128.5 -104.5t-199.5 -36h-373z
M265 88h256q78 0 134.5 22.5t89.5 58.5t52 93t25 113t6 131v667q0 77 -8 135t-28.5 109t-55.5 83t-90 50.5t-130 18.5h-251v-1481z" />
    <glyph glyph-name="uni01C5" unicode="&#x1c5;" horiz-adv-x="1716" 
d="M1352 1325l-173 332h93l122 -249l123 249h92l-175 -332h-82zM1125 0v79l427 1021h-382v84h494v-71l-424 -1030h416v-83h-531zM153 0v1658h364q120 0 204.5 -36t131.5 -103t67.5 -149.5t20.5 -187.5v-688q0 -113 -20.5 -199t-66.5 -154.5t-128.5 -104.5t-199.5 -36h-373z
M265 88h256q78 0 134.5 22.5t89.5 58.5t52 93t25 113t6 131v667q0 77 -8 135t-28.5 109t-55.5 83t-90 50.5t-130 18.5h-251v-1481z" />
    <glyph glyph-name="uni01C6" unicode="&#x1c6;" horiz-adv-x="1465" 
d="M1101 1325l-173 332h93l122 -249l123 249h92l-175 -332h-82zM874 0v79l427 1021h-382v84h494v-71l-424 -1030h416v-83h-531zM388 66q105 0 194 100v849q-101 103 -198 103q-109 0 -145 -88t-36 -307v-246q0 -224 38.5 -317.5t146.5 -93.5zM372 -19q-152 0 -215 116.5
t-63 388.5v211q0 264 58.5 385t214.5 121q125 -1 215 -110v565h109v-1658h-109v90q-90 -109 -210 -109z" />
    <glyph glyph-name="uni01C7" unicode="&#x1c7;" horiz-adv-x="1307" 
d="M780 -92v87q64 0 104.5 4t71.5 19t46.5 33.5t25.5 58.5t12 82t2 116v1350h112v-1364q0 -72 -4.5 -121t-16 -96t-33 -76t-56.5 -51.5t-85.5 -32t-120.5 -9.5h-58zM153 0v1658h112v-1570h501v-88h-613z" />
    <glyph glyph-name="uni01C8" unicode="&#x1c8;" horiz-adv-x="1178" 
d="M929 1339v189h110v-189h-110zM732 -313v87q8 -2 48 -2q41 0 70 11t44 25.5t23.5 41t10 47t1.5 52.5v1235h109v-1242q0 -137 -62.5 -198t-182.5 -61q-50 0 -61 4zM153 0v1658h112v-1570h501v-88h-613z" />
    <glyph glyph-name="uni01C9" unicode="&#x1c9;" horiz-adv-x="794" 
d="M545 1339v189h110v-189h-110zM348 -313v87q8 -2 48 -2q41 0 70 11t44 25.5t23.5 41t10 47t1.5 52.5v1235h109v-1242q0 -137 -62.5 -198t-182.5 -61q-50 0 -61 4zM137 0v1658h109v-1658h-109z" />
    <glyph glyph-name="uni01CA" unicode="&#x1ca;" horiz-adv-x="1598" 
d="M1071 -92v87q64 0 104.5 4t71.5 19t46.5 33.5t25.5 58.5t12 82t2 116v1350h112v-1364q0 -72 -4.5 -121t-16 -96t-33 -76t-56.5 -51.5t-85.5 -32t-120.5 -9.5h-58zM153 0v1658h89l562 -1400v1400h99v-1658h-88l-563 1403v-1403h-99z" />
    <glyph glyph-name="uni01CB" unicode="&#x1cb;" horiz-adv-x="1469" 
d="M1220 1339v189h110v-189h-110zM1023 -313v87q8 -2 48 -2q41 0 70 11t44 25.5t23.5 41t10 47t1.5 52.5v1235h109v-1242q0 -137 -62.5 -198t-182.5 -61q-50 0 -61 4zM153 0v1658h89l562 -1400v1400h99v-1658h-88l-563 1403v-1403h-99z" />
    <glyph glyph-name="uni01CC" unicode="&#x1cc;" horiz-adv-x="1215" 
d="M966 1339v189h110v-189h-110zM769 -313v87q8 -2 48 -2q41 0 70 11t44 25.5t23.5 41t10 47t1.5 52.5v1235h109v-1242q0 -137 -62.5 -198t-182.5 -61q-50 0 -61 4zM116 0v1184h109v-127q124 146 281 146q85 0 135.5 -62.5t50.5 -196.5v-944h-109v932q0 103 -31.5 144.5
t-92.5 41.5q-58 0 -119 -35.5t-115 -95.5v-987h-109z" />
    <glyph glyph-name="uni01F1" unicode="&#x1f1;" horiz-adv-x="1881" 
d="M1123 0v88l596 1482h-543v88h663v-69l-602 -1501h605v-88h-719zM153 0v1658h364q120 0 204.5 -36t131.5 -103t67.5 -149.5t20.5 -187.5v-688q0 -113 -20.5 -199t-66.5 -154.5t-128.5 -104.5t-199.5 -36h-373zM265 88h256q78 0 134.5 22.5t89.5 58.5t52 93t25 113t6 131
v667q0 77 -8 135t-28.5 109t-55.5 83t-90 50.5t-130 18.5h-251v-1481z" />
    <glyph glyph-name="uni01F2" unicode="&#x1f2;" horiz-adv-x="1725" 
d="M1125 0v79l427 1021h-382v84h494v-71l-424 -1030h416v-83h-531zM153 0v1658h364q120 0 204.5 -36t131.5 -103t67.5 -149.5t20.5 -187.5v-688q0 -113 -20.5 -199t-66.5 -154.5t-128.5 -104.5t-199.5 -36h-373zM265 88h256q78 0 134.5 22.5t89.5 58.5t52 93t25 113t6 131
v667q0 77 -8 135t-28.5 109t-55.5 83t-90 50.5t-130 18.5h-251v-1481z" />
    <glyph glyph-name="uni01F3" unicode="&#x1f3;" horiz-adv-x="1474" 
d="M874 0v79l427 1021h-382v84h494v-71l-424 -1030h416v-83h-531zM388 66q105 0 194 100v849q-101 103 -198 103q-109 0 -145 -88t-36 -307v-246q0 -224 38.5 -317.5t146.5 -93.5zM372 -19q-152 0 -215 116.5t-63 388.5v211q0 264 58.5 385t214.5 121q125 -1 215 -110v565
h109v-1658h-109v90q-90 -109 -210 -109z" />
    <glyph glyph-name="uni01F4" unicode="&#x1f4;" horiz-adv-x="1045" 
d="M485 1799l132 397h110l-185 -397h-57zM517 -23q-93 0 -163 25t-114.5 68t-72 108t-38.5 138t-11 165v704q0 92 11 164t39.5 135t73.5 104.5t115.5 65t164.5 23.5q207 0 295 -121t88 -352v-58h-106v65q0 192 -60.5 283.5t-215.5 91.5q-72 0 -124 -19.5t-84 -52.5t-51 -85
t-26 -108.5t-7 -131.5v-722q0 -96 13 -165t45 -123.5t90.5 -81.5t145.5 -27q80 0 135.5 26t86 79t43.5 121.5t13 163.5v244h-264v86h369v-790h-72l-17 186q-65 -209 -302 -209z" />
    <glyph glyph-name="uni01F5" unicode="&#x1f5;" horiz-adv-x="878" 
d="M437 1325l132 397h110l-185 -397h-57zM423 456q227 0 227 339q0 42 -5.5 82.5t-21 86.5t-39.5 80t-66 56.5t-96 22.5t-96.5 -24t-67 -59.5t-40.5 -82t-21.5 -86t-5.5 -76.5q0 -44 4.5 -84.5t19.5 -89t39 -83.5t67.5 -58.5t101.5 -23.5zM413 -313q129 0 209.5 42.5
t80.5 128.5q0 47 -19 77.5t-76.5 58t-164.5 49.5l-130 22q-189 -108 -189 -231q0 -147 289 -147zM414 -401q-384 0 -384 209q0 83 62.5 156.5t149.5 118.5q-55 14 -99 38t-44 52q0 87 147 255q-155 109 -155 367q0 76 19 146.5t57.5 130t103.5 95.5t149 36q177 0 261 -158
q22 40 66.5 79t93.5 59l29 12l32 -82q-53 -13 -106.5 -47t-84.5 -73q15 -38 26.5 -100t11.5 -101q0 -188 -80 -302t-246 -114q-73 0 -126 22q-6 -10 -39 -58t-49.5 -80t-16.5 -54q0 -20 98 -41q33 -9 107.5 -23t86.5 -17q154 -34 232 -94.5t78 -169.5q0 -67 -30.5 -119
t-84 -82.5t-120.5 -45.5t-145 -15z" />
    <glyph glyph-name="uni0200" unicode="&#x200;" horiz-adv-x="959" 
d="M552 1799l-138 300h107l86 -300h-55zM352 1799l-177 300h121l114 -300h-58zM281 541h398l-200 982zM66 0l348 1658h128l351 -1658h-112l-86 458h-430l-89 -458h-110z" />
    <glyph glyph-name="uni0201" unicode="&#x201;" 
d="M449 1325l-138 300h107l86 -300h-55zM249 1325l-177 300h121l114 -300h-58zM342 71q71 0 127 47t92 119v390q-201 -104 -254 -141q-84 -58 -107 -128q-14 -42 -14 -103q0 -97 45.5 -140.5t110.5 -43.5zM316 -19q-107 0 -172.5 72t-65.5 187q0 79 17.5 131.5t74 106.5
t144.5 104t247 124v85q0 130 -16.5 201t-51 99.5t-96.5 28.5q-39 0 -69.5 -9t-59.5 -31.5t-44.5 -69t-15.5 -113.5v-33l-106 2q0 28 1 32q4 161 78.5 233t219.5 72q148 0 208.5 -93t60.5 -308v-596q0 -169 5 -206h-93q-15 134 -18 157q-28 -77 -95 -126.5t-153 -49.5z" />
    <glyph glyph-name="uni0202" unicode="&#x202;" horiz-adv-x="959" 
d="M246 1799q4 113 66.5 170t169.5 57q105 0 165.5 -56.5t65.5 -170.5h-75q-5 157 -155 157q-152 0 -161 -157h-76zM281 541h398l-200 982zM66 0l348 1658h128l351 -1658h-112l-86 458h-430l-89 -458h-110z" />
    <glyph glyph-name="uni0203" unicode="&#x203;" 
d="M143 1325q4 113 66.5 170t169.5 57q105 0 165.5 -56.5t65.5 -170.5h-75q-5 157 -155 157q-152 0 -161 -157h-76zM342 71q71 0 127 47t92 119v390q-201 -104 -254 -141q-84 -58 -107 -128q-14 -42 -14 -103q0 -97 45.5 -140.5t110.5 -43.5zM316 -19q-107 0 -172.5 72
t-65.5 187q0 79 17.5 131.5t74 106.5t144.5 104t247 124v85q0 130 -16.5 201t-51 99.5t-96.5 28.5q-39 0 -69.5 -9t-59.5 -31.5t-44.5 -69t-15.5 -113.5v-33l-106 2q0 28 1 32q4 161 78.5 233t219.5 72q148 0 208.5 -93t60.5 -308v-596q0 -169 5 -206h-93q-15 134 -18 157
q-28 -77 -95 -126.5t-153 -49.5z" />
    <glyph glyph-name="uni0204" unicode="&#x204;" horiz-adv-x="804" 
d="M514 1799l-138 300h107l86 -300h-55zM314 1799l-177 300h121l114 -300h-58zM152 0v1658h574v-89h-462v-665h379v-87h-379v-729h467v-88h-579z" />
    <glyph glyph-name="uni0205" unicode="&#x205;" 
d="M464 1325l-138 300h107l86 -300h-55zM264 1325l-177 300h121l114 -300h-58zM203 684h378v92q0 71 -3 118t-14 94t-30.5 73.5t-53.5 43t-82 16.5q-71 0 -111 -27.5t-62 -104t-22 -215.5v-90zM396 -19q-59 0 -104 12.5t-83.5 43.5t-63 82t-38 131t-13.5 188v316
q0 109 14 189t38.5 129.5t64 79t83.5 40.5t104 11q163 0 227 -106.5t64 -364.5l-2 -113h-484v-189q0 -209 43.5 -288t148.5 -79q30 0 52.5 4t49.5 18.5t44 40t28.5 73t11.5 113.5v88h107v-78q0 -164 -67 -252.5t-225 -88.5z" />
    <glyph glyph-name="uni0206" unicode="&#x206;" horiz-adv-x="804" 
d="M208 1799q4 113 66.5 170t169.5 57q105 0 165.5 -56.5t65.5 -170.5h-75q-5 157 -155 157q-152 0 -161 -157h-76zM152 0v1658h574v-89h-462v-665h379v-87h-379v-729h467v-88h-579z" />
    <glyph glyph-name="uni0207" unicode="&#x207;" 
d="M158 1325q4 113 66.5 170t169.5 57q105 0 165.5 -56.5t65.5 -170.5h-75q-5 157 -155 157q-152 0 -161 -157h-76zM203 684h378v92q0 71 -3 118t-14 94t-30.5 73.5t-53.5 43t-82 16.5q-71 0 -111 -27.5t-62 -104t-22 -215.5v-90zM396 -19q-59 0 -104 12.5t-83.5 43.5
t-63 82t-38 131t-13.5 188v316q0 109 14 189t38.5 129.5t64 79t83.5 40.5t104 11q163 0 227 -106.5t64 -364.5l-2 -113h-484v-189q0 -209 43.5 -288t148.5 -79q30 0 52.5 4t49.5 18.5t44 40t28.5 73t11.5 113.5v88h107v-78q0 -164 -67 -252.5t-225 -88.5z" />
    <glyph glyph-name="uni0208" unicode="&#x208;" horiz-adv-x="422" 
d="M284 1799l-138 300h107l86 -300h-55zM84 1799l-177 300h121l114 -300h-58zM156 0v1658h111v-1658h-111z" />
    <glyph glyph-name="uni0209" unicode="&#x209;" horiz-adv-x="372" 
d="M260 1325l-138 300h107l86 -300h-55zM60 1325l-177 300h121l114 -300h-58zM133 0v1184h109v-1184h-109z" />
    <glyph glyph-name="uni020A" unicode="&#x20a;" horiz-adv-x="422" 
d="M-22 1799q4 113 66.5 170t169.5 57q105 0 165.5 -56.5t65.5 -170.5h-75q-5 157 -155 157q-152 0 -161 -157h-76zM156 0v1658h111v-1658h-111z" />
    <glyph glyph-name="uni020B" unicode="&#x20b;" horiz-adv-x="372" 
d="M-46 1325q4 113 66.5 170t169.5 57q105 0 165.5 -56.5t65.5 -170.5h-75q-5 157 -155 157q-152 0 -161 -157h-76zM133 0v1184h109v-1184h-109z" />
    <glyph glyph-name="uni020C" unicode="&#x20c;" horiz-adv-x="1056" 
d="M600 1799l-138 300h107l86 -300h-55zM400 1799l-177 300h121l114 -300h-58zM528 -22q-95 0 -167 24.5t-117.5 67t-74 106.5t-40 135.5t-11.5 160.5v724q0 88 12 158.5t41.5 132t76 102.5t117 64.5t163.5 23.5q115 0 196 -35t127 -101t66.5 -150.5t20.5 -194.5v-727
q0 -89 -11.5 -160t-40 -134.5t-74.5 -105.5t-117.5 -66.5t-166.5 -24.5zM528 70q87 0 146.5 26.5t91.5 78.5t45.5 117t13.5 155v765q0 90 -13 154.5t-45.5 116t-92 77.5t-146.5 26t-146.5 -26t-92 -77.5t-45.5 -116t-13 -154.5v-765q0 -90 13 -155t45.5 -117t92 -78.5
t146.5 -26.5z" />
    <glyph glyph-name="uni020D" unicode="&#x20d;" horiz-adv-x="784" 
d="M464 1325l-138 300h107l86 -300h-55zM264 1325l-177 300h121l114 -300h-58zM392 -19q-170 0 -234 108t-64 343v320q0 234 64.5 342.5t233.5 108.5q87 0 145.5 -28t92 -87.5t47 -139.5t13.5 -196v-320q0 -235 -64 -343t-234 -108zM392 63q42 0 73.5 10.5t52 34t33.5 51.5
t19.5 73.5t8.5 88.5t2 107v328q0 77 -3 126.5t-14 99t-31 77.5t-55 45t-86 17t-86 -17t-55 -45t-31 -77.5t-14 -99t-3 -126.5v-328q0 -64 2 -107t8.5 -88.5t19.5 -73.5t33.5 -51.5t52 -34t73.5 -10.5z" />
    <glyph glyph-name="uni020E" unicode="&#x20e;" horiz-adv-x="1056" 
d="M295 1799q4 113 66.5 170t169.5 57q105 0 165.5 -56.5t65.5 -170.5h-75q-5 157 -155 157q-152 0 -161 -157h-76zM528 -22q-95 0 -167 24.5t-117.5 67t-74 106.5t-40 135.5t-11.5 160.5v724q0 88 12 158.5t41.5 132t76 102.5t117 64.5t163.5 23.5q115 0 196 -35t127 -101
t66.5 -150.5t20.5 -194.5v-727q0 -89 -11.5 -160t-40 -134.5t-74.5 -105.5t-117.5 -66.5t-166.5 -24.5zM528 70q87 0 146.5 26.5t91.5 78.5t45.5 117t13.5 155v765q0 90 -13 154.5t-45.5 116t-92 77.5t-146.5 26t-146.5 -26t-92 -77.5t-45.5 -116t-13 -154.5v-765
q0 -90 13 -155t45.5 -117t92 -78.5t146.5 -26.5z" />
    <glyph glyph-name="uni020F" unicode="&#x20f;" horiz-adv-x="784" 
d="M159 1325q4 113 66.5 170t169.5 57q105 0 165.5 -56.5t65.5 -170.5h-75q-5 157 -155 157q-152 0 -161 -157h-76zM392 -19q-170 0 -234 108t-64 343v320q0 234 64.5 342.5t233.5 108.5q87 0 145.5 -28t92 -87.5t47 -139.5t13.5 -196v-320q0 -235 -64 -343t-234 -108z
M392 63q42 0 73.5 10.5t52 34t33.5 51.5t19.5 73.5t8.5 88.5t2 107v328q0 77 -3 126.5t-14 99t-31 77.5t-55 45t-86 17t-86 -17t-55 -45t-31 -77.5t-14 -99t-3 -126.5v-328q0 -64 2 -107t8.5 -88.5t19.5 -73.5t33.5 -51.5t52 -34t73.5 -10.5z" />
    <glyph glyph-name="uni0210" unicode="&#x210;" horiz-adv-x="1041" 
d="M620 1799l-138 300h107l86 -300h-55zM420 1799l-177 300h121l114 -300h-58zM265 921h285q78 0 130 22t80 67t39 101.5t11 138.5q0 167 -56 243.5t-205 76.5h-284v-649zM153 0v1658h403q86 0 150.5 -21t104.5 -56.5t65 -89t34.5 -111.5t9.5 -130q0 -60 -6 -110
t-22.5 -99.5t-43 -85.5t-71 -62.5t-102.5 -35.5l268 -857h-111l-259 836h-308v-836h-112z" />
    <glyph glyph-name="uni0211" unicode="&#x211;" horiz-adv-x="580" 
d="M408 1325l-138 300h107l86 -300h-55zM208 1325l-177 300h121l114 -300h-58zM132 0v1184h108v-160q50 83 128 127.5t152 44.5q1 0 9.5 -0.5t10.5 -0.5v-113q-18 6 -44 6q-166 0 -256 -153v-935h-108z" />
    <glyph glyph-name="uni0212" unicode="&#x212;" horiz-adv-x="1041" 
d="M315 1799q4 113 66.5 170t169.5 57q105 0 165.5 -56.5t65.5 -170.5h-75q-5 157 -155 157q-152 0 -161 -157h-76zM265 921h285q78 0 130 22t80 67t39 101.5t11 138.5q0 167 -56 243.5t-205 76.5h-284v-649zM153 0v1658h403q86 0 150.5 -21t104.5 -56.5t65 -89t34.5 -111.5
t9.5 -130q0 -60 -6 -110t-22.5 -99.5t-43 -85.5t-71 -62.5t-102.5 -35.5l268 -857h-111l-259 836h-308v-836h-112z" />
    <glyph glyph-name="uni0213" unicode="&#x213;" horiz-adv-x="580" 
d="M103 1325q4 113 66.5 170t169.5 57q105 0 165.5 -56.5t65.5 -170.5h-75q-5 157 -155 157q-152 0 -161 -157h-76zM132 0v1184h108v-160q50 83 128 127.5t152 44.5q1 0 9.5 -0.5t10.5 -0.5v-113q-18 6 -44 6q-166 0 -256 -153v-935h-108z" />
    <glyph glyph-name="uni0214" unicode="&#x214;" horiz-adv-x="1092" 
d="M618 1799l-138 300h107l86 -300h-55zM418 1799l-177 300h121l114 -300h-58zM546 -22q-118 0 -200.5 30.5t-127.5 88t-64.5 128.5t-19.5 164v1269h109v-1271q0 -73 14 -127.5t47.5 -99t94 -67.5t147.5 -23q303 0 303 317v1271h109v-1269q0 -411 -412 -411z" />
    <glyph glyph-name="uni0215" unicode="&#x215;" horiz-adv-x="808" 
d="M471 1325l-138 300h107l86 -300h-55zM271 1325l-177 300h121l114 -300h-58zM292 -19q-85 0 -135.5 62.5t-50.5 196.5v944h109v-932q0 -103 31.5 -144.5t92.5 -41.5t124.5 38.5t119.5 103.5v976h108v-1184h-108v139q-59 -74 -134 -116t-157 -42z" />
    <glyph glyph-name="uni0216" unicode="&#x216;" horiz-adv-x="1092" 
d="M313 1799q4 113 66.5 170t169.5 57q105 0 165.5 -56.5t65.5 -170.5h-75q-5 157 -155 157q-152 0 -161 -157h-76zM546 -22q-118 0 -200.5 30.5t-127.5 88t-64.5 128.5t-19.5 164v1269h109v-1271q0 -73 14 -127.5t47.5 -99t94 -67.5t147.5 -23q303 0 303 317v1271h109
v-1269q0 -411 -412 -411z" />
    <glyph glyph-name="uni0217" unicode="&#x217;" horiz-adv-x="808" 
d="M165 1325q4 113 66.5 170t169.5 57q105 0 165.5 -56.5t65.5 -170.5h-75q-5 157 -155 157q-152 0 -161 -157h-76zM292 -19q-85 0 -135.5 62.5t-50.5 196.5v944h109v-932q0 -103 31.5 -144.5t92.5 -41.5t124.5 38.5t119.5 103.5v976h108v-1184h-108v139q-59 -74 -134 -116
t-157 -42z" />
    <glyph glyph-name="Scommaaccent" unicode="&#x218;" horiz-adv-x="926" 
d="M424 -513l-26 43q84 55 84 173h-72v154h133l-1 -128q0 -99 -25.5 -154t-92.5 -88zM486 -21q-365 0 -401 430l98 31q9 -71 21.5 -123t35.5 -100.5t55 -79t80.5 -48.5t111.5 -18q265 0 265 267q0 102 -51.5 186t-164.5 196l-303 302q-144 144 -144 315q0 162 98.5 250.5
t264.5 89.5h3q177 0 273 -95.5t110 -320.5l-94 -22q-16 180 -78.5 264t-200.5 84h-10q-121 -2 -193 -61.5t-72 -180.5q0 -65 28 -124.5t94 -126.5l299 -295q115 -114 180.5 -223.5t65.5 -231.5q0 -180 -100.5 -272.5t-270.5 -92.5z" />
    <glyph glyph-name="scommaaccent" unicode="&#x219;" horiz-adv-x="730" 
d="M325 -511l-26 43q84 55 84 173h-72v154h133l-1 -128q0 -99 -25.5 -154t-92.5 -88zM384 -19q-138 0 -220 90t-95 248l92 27q21 -283 228 -283q88 0 138 49.5t50 139.5q0 135 -173 281l-137 116q-91 76 -131 144t-40 154q0 121 72.5 188.5t196.5 67.5q128 0 195.5 -82
t72.5 -229l-81 -24q-8 253 -182 253q-79 0 -126.5 -41t-47.5 -116q0 -70 24.5 -118t96.5 -109l141 -125q51 -44 80.5 -73t65 -75t52.5 -98t18 -113q0 -128 -78 -200t-212 -72z" />
    <glyph glyph-name="uni021A" unicode="&#x21a;" horiz-adv-x="779" 
d="M343 -492l-26 43q84 55 84 173h-72v154h133l-1 -128q0 -99 -25.5 -154t-92.5 -88zM337 0v1569h-351v89h807v-89h-344v-1569h-112z" />
    <glyph glyph-name="uni021B" unicode="&#x21b;" horiz-adv-x="538" 
d="M218 -505l-26 43q84 55 84 173h-72v154h133l-1 -128q0 -99 -25.5 -154t-92.5 -88zM376 -13q-48 0 -82.5 13t-55 33.5t-32 54t-15 67t-3.5 79.5v878h-155v72h155v378h108v-378h201v-72h-201v-865q0 -101 20 -137.5t84 -36.5q31 0 87 10v-82q-51 -14 -111 -14z" />
    <glyph glyph-name="uni0237" unicode="&#x237;" horiz-adv-x="414" 
d="M-32 -321v87q4 -1 48 -1q51 0 83 14t45.5 43t17 54t3.5 66v1242h109v-1250q0 -137 -62.5 -198t-182.5 -61q-50 0 -61 4z" />
    <glyph glyph-name="uni02BC" unicode="&#x2bc;" horiz-adv-x="487" 
d="M162 1188v470h112l-52 -470h-60z" />
    <glyph glyph-name="circumflex" unicode="&#x2c6;" horiz-adv-x="656" 
d="M81 1283l177 375h136l173 -375h-77l-165 321l-164 -321h-80z" />
    <glyph glyph-name="caron" unicode="&#x2c7;" horiz-adv-x="567" 
d="M244 1326l-173 332h93l122 -249l123 249h92l-175 -332h-82z" />
    <glyph glyph-name="breve" unicode="&#x2d8;" horiz-adv-x="735" 
d="M368 1431q-105 0 -165.5 56.5t-65.5 170.5h76q4 -157 155 -157q150 0 161 157h75q-4 -113 -66.5 -170t-169.5 -57z" />
    <glyph glyph-name="dotaccent" unicode="&#x2d9;" horiz-adv-x="388" 
d="M-61 122v213h122v-213h-122z" />
    <glyph glyph-name="ring" unicode="&#x2da;" horiz-adv-x="589" 
d="M295 1393q46 0 77.5 27.5t31.5 83.5q0 57 -31.5 84.5t-77.5 27.5t-77 -27.5t-31 -84.5q0 -56 31 -83.5t77 -27.5zM295 1330q-72 0 -124.5 44t-52.5 130t52 130t125 44q71 0 123.5 -44t52.5 -130t-52.5 -130t-123.5 -44z" />
    <glyph glyph-name="ogonek" unicode="&#x2db;" horiz-adv-x="449" 
d="M329 -407q-251 0 -251 163q0 71 47 141.5t115 106.5h62q-139 -139 -139 -239q0 -57 52 -83.5t133 -26.5z" />
    <glyph glyph-name="tilde" unicode="&#x2dc;" horiz-adv-x="743" 
d="M457 1493q-39 3 -100 46.5t-81 46.5q-6 2 -18 2q-26 0 -41.5 -21t-15.5 -60h-75q0 13 2.5 29.5t10.5 40t21 42t37.5 31.5t55.5 13q18 0 28 -2q36 -5 98 -48t83 -46q5 -1 14 -1q61 0 65 92h70q0 -23 -4.5 -46.5t-17 -53t-41.5 -48t-71 -18.5q-13 0 -20 1z" />
    <glyph glyph-name="hungarumlaut" unicode="&#x2dd;" horiz-adv-x="536" 
d="M326 1366l111 314h127l-175 -314h-63zM145 1366l78 314h109l-127 -314h-60z" />
    <glyph glyph-name="gravecomb" unicode="&#x300;" horiz-adv-x="0" 
d="M73 1261l-165 397h110l112 -397h-57z" />
    <glyph glyph-name="acutecomb" unicode="&#x301;" horiz-adv-x="268" 
d="M41 1261l132 397h110l-185 -397h-57z" />
    <glyph glyph-name="uni0302" unicode="&#x302;" horiz-adv-x="656" 
d="M81 1291l177 367h136l173 -367h-77l-165 313l-164 -313h-80z" />
    <glyph glyph-name="tildecomb" unicode="&#x303;" horiz-adv-x="743" 
d="M457 1493q-39 3 -100 46.5t-81 46.5q-6 2 -18 2q-26 0 -41.5 -21t-15.5 -60h-75q0 13 2.5 29.5t10.5 40t21 42t37.5 31.5t55.5 13q18 0 28 -2q36 -5 98 -48t83 -46q5 -1 14 -1q61 0 65 92h70q0 -23 -4.5 -46.5t-17 -53t-41.5 -48t-71 -18.5q-13 0 -20 1z" />
    <glyph glyph-name="uni0304" unicode="&#x304;" horiz-adv-x="758" 
d="M209 1583v75h350v-75h-350z" />
    <glyph glyph-name="uni0306" unicode="&#x306;" horiz-adv-x="735" 
d="M368 1431q-106 0 -169 57t-67 170h75q3 -82 47 -119.5t114 -37.5t115 37.5t51 119.5h76q-5 -113 -70 -170t-172 -57z" />
    <glyph glyph-name="uni0307" unicode="&#x307;" horiz-adv-x="0" 
d="M-44 1445v213h122v-213h-122z" />
    <glyph glyph-name="uni0308" unicode="&#x308;" horiz-adv-x="215" 
d="M214 1504v154h114v-154h-114zM-113 1504v154h114v-154h-114z" />
    <glyph glyph-name="uni030A" unicode="&#x30a;" horiz-adv-x="589" 
d="M295 1393q46 0 77.5 27.5t31.5 83.5q0 57 -31.5 84.5t-77.5 27.5t-77 -27.5t-31 -84.5q0 -56 31 -83.5t77 -27.5zM295 1330q-72 0 -124.5 44t-52.5 130t52 130t125 44q71 0 123.5 -44t52.5 -130t-52.5 -130t-123.5 -44z" />
    <glyph glyph-name="uni030C" unicode="&#x30c;" horiz-adv-x="0" 
d="M-19 1326l-173 332h93l122 -249l123 249h92l-175 -332h-82z" />
    <glyph glyph-name="uni030F" unicode="&#x30f;" horiz-adv-x="547" 
d="M428 1358l-138 300h107l86 -300h-55zM228 1358l-177 300h121l114 -300h-58z" />
    <glyph glyph-name="uni0311" unicode="&#x311;" horiz-adv-x="735" 
d="M137 1431q4 113 66.5 170t169.5 57q105 0 165.5 -56.5t65.5 -170.5h-75q-5 157 -155 157q-152 0 -161 -157h-76z" />
    <glyph glyph-name="uni0326" unicode="&#x326;" horiz-adv-x="449" 
d="M172 -455l-26 43q84 55 84 173h-72v154h133l-1 -128q0 -99 -25.5 -154t-92.5 -88z" />
    <glyph glyph-name="Pi" unicode="&#x3a0;" horiz-adv-x="1148" 
d="M152 0v1658h845v-1658h-110v1573h-626v-1573h-109z" />
    <glyph glyph-name="pi" unicode="&#x3c0;" horiz-adv-x="883" 
d="M261 1099v-1099h-109v1099h-123v85h794v-85h-140v-794q0 -59 2 -90.5t8.5 -61t21 -41.5t37.5 -19t60 -7l-14 -91q-134 0 -179 65t-45 228v811h-313z" />
    <glyph glyph-name="uni0400" unicode="&#x400;" horiz-adv-x="804" 
d="M413 1799l-165 397h110l112 -397h-57zM152 0v1658h574v-89h-462v-665h379v-87h-379v-729h467v-88h-579z" />
    <glyph glyph-name="afii10023" unicode="&#x401;" horiz-adv-x="804" 
d="M548 1799v154h114v-154h-114zM221 1799v154h114v-154h-114zM152 0v1658h574v-89h-462v-665h379v-87h-379v-729h467v-88h-579z" />
    <glyph glyph-name="afii10051" unicode="&#x402;" horiz-adv-x="992" 
d="M506 0v86q156 0 219.5 72t63.5 221v290q0 109 -60 167.5t-154 58.5q-117 0 -215 -75v-820h-110v1569h-304v89h734v-89h-320v-674q37 38 100.5 61t132.5 23q58 0 110.5 -17.5t97 -53t71 -98t26.5 -144.5v-289q0 -194 -92.5 -285.5t-280.5 -91.5h-19z" />
    <glyph glyph-name="afii10052" unicode="&#x403;" horiz-adv-x="755" 
d="M406 1799l132 397h110l-185 -397h-57zM153 0v1658h563v-89h-451v-1569h-112z" />
    <glyph glyph-name="afii10053" unicode="&#x404;" horiz-adv-x="988" 
d="M523 -22q-96 0 -168 26t-116.5 69.5t-72 109t-38 136t-10.5 159.5v703q0 90 11.5 162t39.5 136t73.5 106.5t116 67t164.5 24.5q106 0 180.5 -32.5t117 -96t61.5 -146t19 -192.5v-64h-106v65q0 190 -59 282.5t-213 92.5q-88 0 -147 -27.5t-90 -82.5t-43 -121.5t-12 -160.5
v-276h427v-84h-427v-374q0 -77 8 -135t28 -107.5t53 -81t84 -49t119 -17.5q81 0 135.5 26t83.5 78t41 116.5t12 155.5v84h106v-66q0 -89 -10.5 -159.5t-37 -133t-68.5 -104t-108.5 -65.5t-153.5 -24z" />
    <glyph glyph-name="afii10054" unicode="&#x405;" horiz-adv-x="926" 
d="M486 -21q-365 0 -401 430l98 31q9 -71 21.5 -123t35.5 -100.5t55 -79t80.5 -48.5t111.5 -18q265 0 265 267q0 102 -51.5 186t-164.5 196l-303 302q-144 144 -144 315q0 162 98.5 250.5t264.5 89.5h3q177 0 273 -95.5t110 -320.5l-94 -22q-16 180 -78.5 264t-200.5 84h-10
q-121 -2 -193 -61.5t-72 -180.5q0 -65 28 -124.5t94 -126.5l299 -295q115 -114 180.5 -223.5t65.5 -231.5q0 -180 -100.5 -272.5t-270.5 -92.5z" />
    <glyph glyph-name="afii10055" unicode="&#x406;" horiz-adv-x="422" 
d="M156 0v1658h111v-1658h-111z" />
    <glyph glyph-name="afii10056" unicode="&#x407;" horiz-adv-x="422" 
d="M318 1799v154h114v-154h-114zM-9 1799v154h114v-154h-114zM156 0v1658h111v-1658h-111z" />
    <glyph glyph-name="afii10057" unicode="&#x408;" horiz-adv-x="543" 
d="M16 -92v87q64 0 104.5 4t71.5 19t46.5 33.5t25.5 58.5t12 82t2 116v1350h112v-1364q0 -72 -4.5 -121t-16 -96t-33 -76t-56.5 -51.5t-85.5 -32t-120.5 -9.5h-58z" />
    <glyph glyph-name="afii10058" unicode="&#x409;" horiz-adv-x="1658" 
d="M982 91h183q176 0 250 94t74 287q0 195 -75 295.5t-250 100.5h-182v-777zM44 -5v89h10q149 0 189.5 111.5t72.5 517.5l72 945h594v-699h176q227 0 335.5 -121.5t108.5 -367.5q0 -107 -24 -190.5t-75 -147.5t-137 -98t-204 -34h-293v1572h-377l-69 -859q-13 -154 -22 -238
t-25.5 -179.5t-38.5 -141t-57.5 -88.5t-85 -57.5t-119.5 -14.5h-6z" />
    <glyph glyph-name="afii10059" unicode="&#x40a;" horiz-adv-x="1533" 
d="M863 91h183q176 0 250 94t74 287q0 195 -75 295.5t-251 100.5h-181v-777zM1043 0l-292 1v867h-486v-867h-112v1658h112v-706h486v706h112v-700h176q227 0 335 -121.5t108 -367.5q0 -107 -24 -190.5t-74.5 -147.5t-136.5 -98t-204 -34z" />
    <glyph glyph-name="afii10060" unicode="&#x40b;" horiz-adv-x="898" 
d="M217 0v1569h-332v89h780v-89h-337v-676q38 35 100.5 61t137.5 26q42 0 79.5 -10.5t71 -33.5t53 -66t19.5 -101v-769h-109v759q0 151 -138 151q-113 0 -214 -92v-818h-111z" />
    <glyph glyph-name="afii10061" unicode="&#x40c;" horiz-adv-x="960" 
d="M519 1799l132 397h110l-185 -397h-57zM152 0v1658h112v-777h138l363 777h115l-380 -804l443 -854h-113l-428 815h-138v-815h-112z" />
    <glyph glyph-name="uni040D" unicode="&#x40d;" horiz-adv-x="1064" 
d="M503 1799l-165 397h110l112 -397h-57zM152 0v1658h100v-1413l568 1413h92v-1658h-100v1413l-566 -1413h-94z" />
    <glyph glyph-name="afii10062" unicode="&#x40e;" horiz-adv-x="926" 
d="M472 1799q-106 0 -169 57t-67 170h75q3 -82 47 -119.5t114 -37.5t115 37.5t51 119.5h76q-5 -113 -70 -170t-172 -57zM125 -190l2 88h29q37 0 65.5 1.5t53.5 7.5t43 11.5t33.5 19t25.5 25t19 34t14.5 41t11 52t8.5 61l8 72.5l-370 1435h110l189 -766l126 -538l112 542
l166 762h112l-330 -1444q-40 -190 -63 -247q-36 -90 -107 -124q-71 -33 -221 -33h-37z" />
    <glyph glyph-name="afii10145" unicode="&#x40f;" horiz-adv-x="1047" 
d="M497 -275l-11 275h-333v1658h112v-1573h517v1573h112v-1658h-300l-10 -275h-87z" />
    <glyph glyph-name="afii10017" unicode="&#x410;" horiz-adv-x="959" 
d="M281 541h398l-200 982zM66 0l348 1658h128l351 -1658h-112l-86 458h-430l-89 -458h-110z" />
    <glyph glyph-name="afii10018" unicode="&#x411;" horiz-adv-x="962" 
d="M264 91h189q176 0 250 94t74 287q0 195 -74.5 295.5t-250.5 100.5h-188v-777zM152 0v1658h638v-85h-526v-614h182q227 0 335.5 -121.5t108.5 -367.5q0 -220 -105 -345t-335 -125h-298z" />
    <glyph glyph-name="afii10019" unicode="&#x412;" horiz-adv-x="1000" 
d="M265 931h279q67 0 113.5 24.5t71.5 69.5t35.5 98t10.5 122q0 60 -6.5 105t-26 88.5t-53 70.5t-88.5 43.5t-131 16.5h-205v-638zM265 88h266q158 0 216.5 91.5t58.5 302.5q0 361 -260 361h-281v-755zM153 0v1658h342q89 0 157 -21.5t110.5 -57.5t69 -89.5t37 -112.5
t10.5 -132q0 -56 -8.5 -106.5t-28.5 -102.5t-60.5 -90t-97.5 -52q69 -20 117 -66t71.5 -107t33 -118.5t9.5 -119.5q0 -68 -5.5 -123t-19.5 -112.5t-40.5 -100t-66.5 -77t-100 -52.5t-138 -18h-392z" />
    <glyph glyph-name="afii10020" unicode="&#x413;" horiz-adv-x="755" 
d="M153 0v1658h563v-89h-451v-1569h-112z" />
    <glyph glyph-name="afii10021" unicode="&#x414;" horiz-adv-x="1156" 
d="M203 87h659v1485h-368l-40 -499q-14 -183 -29 -323t-29 -236.5t-32 -167t-32.5 -110.5t-37.5 -69.5t-39 -42.5t-44 -32q-5 -3 -8 -5zM18 -275v362h59q68 43 94 71q64 72 102 267q40 209 75 669l43 564h583v-1571h122v-362h-90l-12 275h-874l-12 -275h-90z" />
    <glyph glyph-name="afii10022" unicode="&#x415;" horiz-adv-x="804" 
d="M152 0v1658h574v-89h-462v-665h379v-87h-379v-729h467v-88h-579z" />
    <glyph glyph-name="afii10024" unicode="&#x416;" horiz-adv-x="1258" 
d="M43 0l427 866l-388 792h108l373 -785h15v785h102v-785h15l373 785h107l-387 -792l426 -866h-110l-403 844h-21v-844h-102v844h-22l-402 -844h-111z" />
    <glyph glyph-name="afii10025" unicode="&#x417;" horiz-adv-x="942" 
d="M487 -22q-348 0 -348 390v31h102q0 -3 0.5 -19t0.5 -19q1 -146 60 -220.5t185 -74.5q61 0 107.5 17.5t85 58.5t59 116t20.5 182q0 374 -288 381h-104v83h103q155 2 222 90t67 276q0 320 -256 320q-136 0 -204 -69t-70 -227v-30h-103v27q0 386 374 386q183 0 277 -113
t94 -296q0 -179 -67 -281.5t-174 -124.5q43 -10 82.5 -36.5t76.5 -74t59.5 -127t22.5 -181.5q0 -217 -93 -341t-291 -124z" />
    <glyph glyph-name="afii10026" unicode="&#x418;" horiz-adv-x="1064" 
d="M152 0v1658h100v-1413l568 1413h92v-1658h-100v1413l-566 -1413h-94z" />
    <glyph glyph-name="afii10027" unicode="&#x419;" horiz-adv-x="1064" 
d="M529 1799q-106 0 -169 57t-67 170h75q3 -82 47 -119.5t114 -37.5t115 37.5t51 119.5h76q-5 -113 -70 -170t-172 -57zM152 0v1658h100v-1413l568 1413h92v-1658h-100v1413l-566 -1413h-94z" />
    <glyph glyph-name="afii10028" unicode="&#x41a;" horiz-adv-x="960" 
d="M152 0v1658h112v-777h138l363 777h115l-380 -804l443 -854h-113l-428 815h-138v-815h-112z" />
    <glyph glyph-name="afii10029" unicode="&#x41b;" horiz-adv-x="1141" 
d="M51 -5v89q94 6 128 23q54 28 81 129q32 117 67 528q8 88 23 277l46 617h593v-1658h-112v1572h-377l-41 -532q-45 -529 -65 -666q-32 -216 -91 -292q-50 -66 -159 -80q-38 -6 -93 -7z" />
    <glyph glyph-name="afii10030" unicode="&#x41c;" horiz-adv-x="1294" 
d="M133 0l49 1658h104l358 -1476l360 1476h110l48 -1658h-96l-39 1366l-341 -1366h-81l-337 1362l-39 -1362h-96z" />
    <glyph glyph-name="afii10031" unicode="&#x41d;" horiz-adv-x="1109" 
d="M152 0v1658h112v-747h581v747h112v-1658h-112v826h-581v-826h-112z" />
    <glyph glyph-name="afii10032" unicode="&#x41e;" horiz-adv-x="1056" 
d="M528 -22q-95 0 -167 24.5t-117.5 67t-74 106.5t-40 135.5t-11.5 160.5v724q0 88 12 158.5t41.5 132t76 102.5t117 64.5t163.5 23.5q115 0 196 -35t127 -101t66.5 -150.5t20.5 -194.5v-727q0 -89 -11.5 -160t-40 -134.5t-74.5 -105.5t-117.5 -66.5t-166.5 -24.5zM528 70
q87 0 146.5 26.5t91.5 78.5t45.5 117t13.5 155v765q0 90 -13 154.5t-45.5 116t-92 77.5t-146.5 26t-146.5 -26t-92 -77.5t-45.5 -116t-13 -154.5v-765q0 -90 13 -155t45.5 -117t92 -78.5t146.5 -26.5z" />
    <glyph glyph-name="afii10033" unicode="&#x41f;" horiz-adv-x="1116" 
d="M153 0v1658h810v-1658h-112v1573h-586v-1573h-112z" />
    <glyph glyph-name="afii10034" unicode="&#x420;" horiz-adv-x="977" 
d="M265 879h255q153 0 223.5 80.5t70.5 270.5q0 197 -65 269.5t-227 72.5h-257v-693zM153 0v1658h389q109 0 186 -31.5t119.5 -91t61.5 -134t19 -171.5q0 -69 -11 -130t-39 -118.5t-70.5 -99t-109.5 -66t-153 -24.5h-280v-792h-112z" />
    <glyph glyph-name="afii10035" unicode="&#x421;" horiz-adv-x="1001" 
d="M523 -22q-96 0 -168 26t-116.5 69.5t-72 109t-38 136t-10.5 159.5v703q0 90 11.5 162t39.5 136t73.5 106.5t116 67t164.5 24.5q106 0 180.5 -32.5t117 -96t61.5 -146t19 -192.5v-84h-106v85q0 190 -59 282.5t-213 92.5q-88 0 -147 -27.5t-90 -82.5t-43 -121.5t-12 -160.5
v-734q0 -77 8 -135t28 -107.5t53 -81t84 -49t119 -17.5q81 0 135.5 26t83.5 78t41 116.5t12 155.5v100h106v-82q0 -89 -10.5 -159.5t-37 -133t-68.5 -104t-108.5 -65.5t-153.5 -24z" />
    <glyph glyph-name="afii10036" unicode="&#x422;" horiz-adv-x="779" 
d="M337 0v1569h-351v89h807v-89h-344v-1569h-112z" />
    <glyph glyph-name="afii10037" unicode="&#x423;" horiz-adv-x="926" 
d="M125 -190l2 88h29q37 0 65.5 1.5t53.5 7.5t43 11.5t33.5 19t25.5 25t19 34t14.5 41t11 52t8.5 61l8 72.5l-370 1435h110l189 -766l126 -538l112 542l166 762h112l-330 -1444q-40 -190 -63 -247q-36 -90 -107 -124q-71 -33 -221 -33h-37z" />
    <glyph glyph-name="afii10038" unicode="&#x424;" horiz-adv-x="1215" 
d="M748 256h9q127 0 180.5 82t53.5 257v484q0 181 -56.5 271t-188.5 90h-6q-29 0 -79 -4v-1176q36 -4 87 -4zM467 256q46 0 82 4v1176q-32 4 -74 4h-6q-132 0 -188 -90t-56 -271v-484q0 -175 53 -257t180 -82h9zM549 -114v298q-56 -4 -99 -4h-14q-318 0 -318 415v484
q0 216 86 326t256 110h9q47 0 80 -3v296h112v-295q52 4 95 4h9q165 0 248.5 -111t83.5 -327v-484q0 -415 -317 -415h-16q-56 0 -103 5v-299h-112z" />
    <glyph glyph-name="afii10039" unicode="&#x425;" horiz-adv-x="926" 
d="M30 0l366 861l-363 798h102l326 -708l317 708h111l-380 -816l387 -843h-108l-341 746l-305 -746h-112z" />
    <glyph glyph-name="afii10040" unicode="&#x426;" horiz-adv-x="1137" 
d="M991 -275l-13 275h-826v1658h112v-1573h590v1573h112v-1573h115v-360h-90z" />
    <glyph glyph-name="afii10041" unicode="&#x427;" horiz-adv-x="1034" 
d="M769 0v770q-132 -36 -244 -36q-412 0 -412 357v567h106v-566q0 -66 16.5 -115t44.5 -79.5t70.5 -49t87.5 -25.5t103 -7q121 0 228 37v805h112v-1658h-112z" />
    <glyph glyph-name="afii10042" unicode="&#x428;" horiz-adv-x="1437" 
d="M153 0v1658h112v-1573h405v1573h112v-1573h390v1573h112v-1658h-1131z" />
    <glyph glyph-name="afii10043" unicode="&#x429;" horiz-adv-x="1458" 
d="M1312 -275l-13 275h-1147v1658h112v-1573h405v1573h112v-1573h392v1573h112v-1573h117v-360h-90z" />
    <glyph glyph-name="afii10044" unicode="&#x42a;" horiz-adv-x="1109" 
d="M430 91h192q176 0 250 94t74 287q0 195 -74.5 295.5t-250.5 100.5h-191v-777zM317 0v1570h-304v88h417v-699h185q227 0 335.5 -121.5t108.5 -367.5q0 -220 -105 -345t-335 -125h-302z" />
    <glyph glyph-name="afii10045" unicode="&#x42b;" horiz-adv-x="1371" 
d="M1107 0v1658h112v-1658h-112zM264 91h193q176 0 250 94t74 287q0 195 -75 295.5t-250 100.5h-192v-777zM152 0v1658h112v-699h186q227 0 335.5 -121.5t108.5 -367.5q0 -220 -105 -345t-335 -125h-302z" />
    <glyph glyph-name="afii10046" unicode="&#x42c;" horiz-adv-x="945" 
d="M265 91h193q176 0 250 94t74 287q0 195 -75 295.5t-251 100.5h-191v-777zM153 0v1658h112v-699h186q227 0 335 -121.5t108 -367.5q0 -107 -24 -190.5t-74.5 -147.5t-136.5 -98t-204 -34h-302z" />
    <glyph glyph-name="afii10047" unicode="&#x42d;" horiz-adv-x="1020" 
d="M497 -16q-106 0 -180.5 32.5t-117 96t-61.5 146t-19 192.5v70h106v-71q0 -190 59 -282.5t213 -92.5q88 0 147 27.5t90 82.5t43 121.5t12 160.5v349h-392v80h392v305q0 197 -64 293.5t-228 96.5q-81 0 -135.5 -26t-83.5 -78t-41 -116.5t-12 -155.5v-84h-106v66
q0 112 17.5 196t59 152t117 103t184.5 35q96 0 168 -26t116.5 -69.5t71.5 -109t37.5 -136t10.5 -159.5v-702q0 -90 -11 -162t-39.5 -136.5t-73.5 -107t-115.5 -67t-164.5 -24.5z" />
    <glyph glyph-name="afii10048" unicode="&#x42e;" horiz-adv-x="1368" 
d="M846 70q86 0 145.5 26.5t92.5 78.5t47 117.5t14 154.5v765q0 89 -14.5 154t-48 116.5t-93.5 77.5t-146 26q-167 0 -234.5 -95.5t-67.5 -278.5v-765q0 -89 14 -154.5t47.5 -117.5t94.5 -78.5t149 -26.5zM843 -22q-116 0 -197.5 36.5t-126 105.5t-64 154.5t-19.5 198.5v318
h-175v-791h-108v1658h108v-776h175v311q0 112 20.5 197t66.5 151t126.5 101t193.5 35t193.5 -35.5t126.5 -102.5t66.5 -152t20.5 -195v-722q0 -89 -11.5 -160.5t-40.5 -134.5t-74.5 -105.5t-116.5 -67t-164 -24.5z" />
    <glyph glyph-name="afii10049" unicode="&#x42f;" horiz-adv-x="1079" 
d="M573 809h241v762h-245q-157 0 -237.5 -85t-80.5 -272q0 -206 75 -305.5t247 -99.5zM48 0l329 755q-120 45 -178 166t-58 294q0 94 21 169.5t67.5 139t132 99t204.5 35.5h361v-1658h-113v722h-255q-36 0 -82 6l-305 -728h-124z" />
    <glyph glyph-name="afii10065" unicode="&#x430;" 
d="M342 71q71 0 127 47t92 119v390q-201 -104 -254 -141q-84 -58 -107 -128q-14 -42 -14 -103q0 -97 45.5 -140.5t110.5 -43.5zM316 -19q-107 0 -172.5 72t-65.5 187q0 79 17.5 131.5t74 106.5t144.5 104t247 124v85q0 130 -16.5 201t-51 99.5t-96.5 28.5q-39 0 -69.5 -9
t-59.5 -31.5t-44.5 -69t-15.5 -113.5v-33l-106 2q0 28 1 32q4 161 78.5 233t219.5 72q148 0 208.5 -93t60.5 -308v-596q0 -169 5 -206h-93q-15 134 -18 157q-28 -77 -95 -126.5t-153 -49.5z" />
    <glyph glyph-name="afii10066" unicode="&#x431;" horiz-adv-x="899" 
d="M467 63q59 2 98.5 18.5t69 56t43.5 110t14 176.5v239q0 209 -42.5 289t-149.5 80q-62 0 -144.5 -36t-121.5 -75v-560q0 -150 64.5 -224t162.5 -74h6zM461 -19h-9q-64 0 -121 22.5t-104 67.5t-74.5 120t-27.5 172v750q0 127 12.5 215t40.5 140.5t61.5 81.5t87 46t104 26
t126.5 28t141 46l16 -99q-60 -24 -125.5 -39t-108.5 -21t-87 -18t-70.5 -32.5t-48 -60t-31 -106t-9.5 -165.5v-153q38 40 123 74t159 35q97 0 158.5 -44t94 -148t32.5 -276v-197q0 -134 -22.5 -225.5t-68.5 -142.5t-105.5 -73t-143.5 -24z" />
    <glyph glyph-name="afii10067" unicode="&#x432;" horiz-adv-x="768" 
d="M223 671h176q75 0 122 59.5t47 159.5q0 98 -49.5 152t-147.5 54h-148v-425zM223 84h162q113 0 158 67.5t45 194.5q0 133 -50 188t-143 55h-172v-505zM116 0v1184h261q81 0 140 -24t91 -66t46.5 -91.5t14.5 -108.5q0 -83 -35.5 -153.5t-111.5 -100.5q173 -55 173 -297
q0 -82 -12.5 -140.5t-44.5 -106.5t-92.5 -72t-149.5 -24h-280z" />
    <glyph glyph-name="afii10068" unicode="&#x433;" horiz-adv-x="571" 
d="M116 0v1184h413v-86h-304v-1098h-109z" />
    <glyph glyph-name="afii10069" unicode="&#x434;" horiz-adv-x="932" 
d="M151 79h492v1022h-272l-27 -288q-24 -374 -62 -523.5t-131 -210.5zM29 -275v351q68 37 109 111t69.5 227.5t45.5 418.5l28 351h469v-1105h105v-354h-87l-9 275h-635l-10 -275h-85z" />
    <glyph glyph-name="afii10070" unicode="&#x435;" 
d="M203 684h378v92q0 71 -3 118t-14 94t-30.5 73.5t-53.5 43t-82 16.5q-71 0 -111 -27.5t-62 -104t-22 -215.5v-90zM396 -19q-59 0 -104 12.5t-83.5 43.5t-63 82t-38 131t-13.5 188v316q0 109 14 189t38.5 129.5t64 79t83.5 40.5t104 11q163 0 227 -106.5t64 -364.5l-2 -113
h-484v-189q0 -209 43.5 -288t148.5 -79q30 0 52.5 4t49.5 18.5t44 40t28.5 73t11.5 113.5v88h107v-78q0 -164 -67 -252.5t-225 -88.5z" />
    <glyph glyph-name="afii10072" unicode="&#x436;" horiz-adv-x="1037" 
d="M8 0l356 607l-339 577h104l325 -567h20v567h92v-567h19l323 567h103l-338 -577l356 -607h-103l-340 590h-20v-590h-92v590h-21l-341 -590h-104z" />
    <glyph glyph-name="afii10073" unicode="&#x437;" horiz-adv-x="734" 
d="M367 -20q-139 1 -211 87t-72 247h100q0 -251 184 -254h2q92 0 140 64t48 184v18q-5 248 -254 248v84q135 0 190 54t61 160q0 4 0.5 10t0.5 10q0 98 -48 163.5t-136 65.5q-91 0 -142 -58t-51 -171h-99q0 155 76.5 233t217.5 78q94 0 159 -44t94 -112.5t29 -154.5
q0 -2 -0.5 -7t-0.5 -7q-2 -112 -57.5 -178.5t-143.5 -81.5q94 -29 148.5 -98.5t56.5 -202.5v-11q0 -152 -76 -239t-212 -87h-4z" />
    <glyph glyph-name="afii10074" unicode="&#x438;" horiz-adv-x="834" 
d="M116 0v1184h94v-982l418 981l91 1v-1184h-94v973l-417 -973h-92z" />
    <glyph glyph-name="afii10075" unicode="&#x439;" horiz-adv-x="834" 
d="M414 1325q-106 0 -169 57t-67 170h75q3 -82 47 -119.5t114 -37.5t115 37.5t51 119.5h76q-5 -113 -70 -170t-172 -57zM116 0v1184h94v-982l418 981l91 1v-1184h-94v973l-417 -973h-92z" />
    <glyph glyph-name="afii10076" unicode="&#x43a;" horiz-adv-x="762" 
d="M116 0v1184h109v-534h99l296 534h114l-312 -571l324 -613h-114l-308 578h-99v-578h-109z" />
    <glyph glyph-name="afii10077" unicode="&#x43b;" horiz-adv-x="906" 
d="M15 -10v83q61 2 97 22.5t65 84t46 171.5t32 294l43 539h492v-1184h-109v1099h-287l-38 -454q-13 -163 -29 -269.5t-39 -185.5t-58 -120.5t-81.5 -60.5t-114.5 -19h-19z" />
    <glyph glyph-name="afii10078" unicode="&#x43c;" horiz-adv-x="973" 
d="M107 0l10 1184h83l286 -866l284 866h88l9 -1184h-95l-5 907l-264 -782h-35l-262 779l-4 -904h-95z" />
    <glyph glyph-name="afii10079" unicode="&#x43d;" horiz-adv-x="873" 
d="M116 0v1184h109v-527h423v527h109v-1184h-109v574h-423v-574h-109z" />
    <glyph glyph-name="afii10080" unicode="&#x43e;" horiz-adv-x="784" 
d="M392 -19q-170 0 -234 108t-64 343v320q0 234 64.5 342.5t233.5 108.5q87 0 145.5 -28t92 -87.5t47 -139.5t13.5 -196v-320q0 -235 -64 -343t-234 -108zM392 63q42 0 73.5 10.5t52 34t33.5 51.5t19.5 73.5t8.5 88.5t2 107v328q0 77 -3 126.5t-14 99t-31 77.5t-55 45
t-86 17t-86 -17t-55 -45t-31 -77.5t-14 -99t-3 -126.5v-328q0 -64 2 -107t8.5 -88.5t19.5 -73.5t33.5 -51.5t52 -34t73.5 -10.5z" />
    <glyph glyph-name="afii10081" unicode="&#x43f;" horiz-adv-x="832" 
d="M116 0v1184h600v-1184h-108v1097h-383v-1097h-109z" />
    <glyph glyph-name="afii10082" unicode="&#x440;" horiz-adv-x="819" 
d="M430 66q107 0 144.5 95.5t37.5 322.5v231q0 224 -35.5 313.5t-145.5 89.5q-105 0 -205 -110v-835q90 -107 204 -107zM117 -390v1574h109v-101q93 120 227 120q80 0 133.5 -33.5t82 -101t40 -151.5t11.5 -203v-227q0 -260 -61.5 -383t-215.5 -123q-122 0 -217 117v-488
h-109z" />
    <glyph glyph-name="afii10083" unicode="&#x441;" horiz-adv-x="768" 
d="M393 -19q-78 0 -133.5 24.5t-87 63.5t-49.5 102.5t-23.5 125t-5.5 148.5v278q0 266 64.5 373t234.5 107q72 0 124.5 -19.5t83.5 -52t49.5 -83.5t25 -104t6.5 -124v-48h-102v47q0 174 -42.5 238t-143.5 64q-116 0 -153.5 -82.5t-37.5 -302.5v-307q0 -202 39.5 -284
t152.5 -82q114 0 149.5 73t35.5 261v46h102v-44q0 -56 -2.5 -98t-9.5 -88t-20 -78.5t-34.5 -63t-51.5 -49.5t-73.5 -30t-97.5 -11z" />
    <glyph glyph-name="afii10084" unicode="&#x442;" horiz-adv-x="672" 
d="M286 0v1100h-277v84h654v-84h-269v-1100h-108z" />
    <glyph glyph-name="afii10085" unicode="&#x443;" horiz-adv-x="764" 
d="M79 -299v92q140 1 198.5 50t58.5 137q0 45 -15 108l-261 1096h106l138 -626l93 -430l85 424l130 632h106l-281 -1240q-17 -73 -45 -119t-75.5 -71.5t-100 -36t-137.5 -16.5z" />
    <glyph glyph-name="afii10086" unicode="&#x444;" horiz-adv-x="1092" 
d="M652 168q49 0 81.5 5.5t67.5 25t55 55t33 99t13 153.5v225q0 88 -11 149.5t-29 97.5t-49 56t-63 26t-79 6h-76v-898h57zM439 168h56v899h-75q-47 0 -79 -6t-62.5 -26t-48.5 -56.5t-28.5 -98t-10.5 -149.5v-225q0 -90 13 -153.5t33 -99t54 -55t66.5 -25t81.5 -5.5z
M495 -390v480h-58q-60 0 -105 7.5t-92 33.5t-77 70t-49.5 122t-19.5 185v213q0 125 23 210t68 130t100.5 63t132.5 18h77v516h100v-516h81q61 0 107.5 -10.5t88.5 -38.5t68.5 -75t42 -121.5t15.5 -175.5v-213q0 -77 -10 -139t-26.5 -105.5t-42 -75t-53.5 -50t-64.5 -30
t-70 -15t-75.5 -3.5h-61v-480h-100z" />
    <glyph glyph-name="afii10087" unicode="&#x445;" horiz-adv-x="767" 
d="M41 0l289 617l-271 567h112l221 -470l219 470h112l-280 -578l285 -606h-103l-242 504l-235 -504h-107z" />
    <glyph glyph-name="afii10088" unicode="&#x446;" horiz-adv-x="840" 
d="M729 -275l-10 275h-603v1184h109v-1108h374v1108h109v-1108h103v-351h-82z" />
    <glyph glyph-name="afii10089" unicode="&#x447;" horiz-adv-x="771" 
d="M543 0v508q-115 -25 -183 -25q-127 0 -201.5 63t-74.5 195v443h109v-446q0 -175 187 -175q76 0 163 24v597h109v-1184h-109z" />
    <glyph glyph-name="afii10090" unicode="&#x448;" horiz-adv-x="1128" 
d="M116 0v1184h107v-1108h291v1108h107v-1108h284v1108h107v-1184h-896z" />
    <glyph glyph-name="afii10091" unicode="&#x449;" horiz-adv-x="1176" 
d="M1045 -275l-12 275h-917v1184h105v-1108h299v1108h105v-1108h291v1108h106v-1108h104v-351h-81z" />
    <glyph glyph-name="afii10092" unicode="&#x44a;" horiz-adv-x="904" 
d="M363 74h89q70 0 121 15t81 39t47.5 61t23.5 74t6 85t-5.5 85t-23 76t-46.5 65t-80.5 43t-120.5 17h-92v-560zM254 0v1101h-256v83h365v-476h95q92 0 161 -21t109.5 -54.5t65 -83t32.5 -97t8 -105.5q0 -56 -8.5 -101.5t-33.5 -93t-66 -79.5t-111 -52.5t-163 -20.5h-198z
" />
    <glyph glyph-name="afii10093" unicode="&#x44b;" horiz-adv-x="1079" 
d="M854 0v1184h109v-1184h-109zM225 74h89q86 0 143.5 21.5t86 62t39 85t10.5 105.5q0 48 -5.5 85t-23 76t-46.5 65t-80.5 43t-120.5 17h-92v-560zM116 0v1184h109v-476h95q92 0 161 -21.5t109 -55t64.5 -82.5t33 -96.5t8.5 -105.5q0 -56 -8.5 -101.5t-33.5 -93t-66 -79.5
t-111 -52.5t-163 -20.5h-198z" />
    <glyph glyph-name="afii10094" unicode="&#x44c;" horiz-adv-x="764" 
d="M225 74h89q86 0 143.5 21.5t86 62t39 85t10.5 105.5q0 48 -5.5 85t-23 76t-46.5 65t-80.5 43t-120.5 17h-92v-560zM116 0v1184h109v-476h95q92 0 161 -21.5t109 -55t64.5 -82.5t33 -96.5t8.5 -105.5q0 -56 -8.5 -101.5t-33.5 -93t-66 -79.5t-111 -52.5t-163 -20.5h-198z
" />
    <glyph glyph-name="afii10095" unicode="&#x44d;" horiz-adv-x="791" 
d="M400 -19q-72 0 -125 18t-84.5 47.5t-50 76.5t-25 96t-6.5 115v23h103v-22q0 -154 45.5 -213t147.5 -59q48 0 81 14.5t53.5 40.5t31 75.5t14.5 107t4 147.5v114h-330v72h330v106q0 213 -36 289.5t-150 76.5q-113 0 -152 -68t-39 -221v-29h-103v26q0 66 5.5 115.5t24 100.5
t50 84t86.5 53.5t130 20.5q56 0 100 -12t74.5 -32t52 -54t34.5 -69t20 -87t9 -98.5t2 -111.5v-263q0 -268 -63 -374t-234 -106z" />
    <glyph glyph-name="afii10096" unicode="&#x44e;" horiz-adv-x="1051" 
d="M669 63q42 0 72.5 10.5t51 34t33.5 52t19.5 73.5t8.5 88.5t2 106.5v328q0 76 -3 126t-14 99.5t-31 77.5t-54.5 45t-84.5 17t-84.5 -17t-54 -45t-30.5 -77.5t-14 -99t-3 -126.5v-328q0 -77 3 -126.5t14 -99.5t30.5 -77.5t54 -44.5t84.5 -17zM669 -19q-85 0 -141.5 28
t-88 87.5t-44.5 139t-13 196.5v114h-165v-546h-101v1184h101v-563h165v131q0 92 8 160t27.5 125t52 92.5t82 54.5t117.5 19q85 0 141.5 -28t88.5 -87.5t45 -139.5t13 -196v-320q0 -236 -62 -343.5t-226 -107.5z" />
    <glyph glyph-name="afii10097" unicode="&#x44f;" horiz-adv-x="789" 
d="M493 560h71v551h-92q-68 0 -117.5 -15t-77.5 -38.5t-44 -60.5t-20.5 -72.5t-4.5 -83.5q0 -145 66.5 -213t218.5 -68zM39 0l240 519q-49 20 -84 56t-53.5 81.5t-27 91t-8.5 94.5q0 56 7 100t30.5 91.5t62.5 78.5t107.5 51.5t161.5 20.5h198v-1184h-109v486q-140 0 -186 8
l-221 -494h-118z" />
    <glyph glyph-name="uni0450" unicode="&#x450;" 
d="M363 1325l-165 397h110l112 -397h-57zM203 684h378v92q0 71 -3 118t-14 94t-30.5 73.5t-53.5 43t-82 16.5q-71 0 -111 -27.5t-62 -104t-22 -215.5v-90zM396 -19q-59 0 -104 12.5t-83.5 43.5t-63 82t-38 131t-13.5 188v316q0 109 14 189t38.5 129.5t64 79t83.5 40.5
t104 11q163 0 227 -106.5t64 -364.5l-2 -113h-484v-189q0 -209 43.5 -288t148.5 -79q30 0 52.5 4t49.5 18.5t44 40t28.5 73t11.5 113.5v88h107v-78q0 -164 -67 -252.5t-225 -88.5z" />
    <glyph glyph-name="afii10071" unicode="&#x451;" 
d="M498 1325v154h114v-154h-114zM171 1325v154h114v-154h-114zM203 684h378v92q0 71 -3 118t-14 94t-30.5 73.5t-53.5 43t-82 16.5q-71 0 -111 -27.5t-62 -104t-22 -215.5v-90zM396 -19q-59 0 -104 12.5t-83.5 43.5t-63 82t-38 131t-13.5 188v316q0 109 14 189t38.5 129.5
t64 79t83.5 40.5t104 11q163 0 227 -106.5t64 -364.5l-2 -113h-484v-189q0 -209 43.5 -288t148.5 -79q30 0 52.5 4t49.5 18.5t44 40t28.5 73t11.5 113.5v88h107v-78q0 -164 -67 -252.5t-225 -88.5z" />
    <glyph glyph-name="afii10099" unicode="&#x452;" horiz-adv-x="832" 
d="M-8 1281v70h145v307h109v-307h255v-70h-255v-378q107 90 261 90q94 0 155 -52.5t61 -162.5v-572q0 -64 -1 -105t-5.5 -89.5t-13 -79t-23 -63t-36 -51.5t-52 -35t-71 -23t-92.5 -7h-49v80h37q40 0 69 6.5t50.5 17.5t35.5 34.5t22.5 47.5t13 67t5.5 83t1 104v575
q0 84 -35.5 118.5t-98.5 34.5q-65 0 -127.5 -24t-106.5 -66v-831h-109v1281h-145z" />
    <glyph glyph-name="afii10100" unicode="&#x453;" horiz-adv-x="571" 
d="M294 1325l132 397h110l-185 -397h-57zM116 0v1184h413v-86h-304v-1098h-109z" />
    <glyph glyph-name="afii10101" unicode="&#x454;" horiz-adv-x="770" 
d="M394 -19q-56 0 -100.5 12.5t-75.5 34t-53.5 55.5t-36 70.5t-21.5 87t-10.5 97t-2.5 107.5v278q0 266 64.5 373t234.5 107q72 0 124.5 -19t84 -50t50 -80.5t25 -102t6.5 -122.5v-30h-103v29q0 118 -20 182t-58.5 87.5t-107.5 23.5q-116 0 -153.5 -83t-37.5 -302v-96h312
v-78h-312v-133q0 -201 40 -283.5t152 -82.5q48 0 80.5 12t53.5 34.5t32 64.5t15 91t4 124v28h103v-25q0 -80 -5 -135t-22 -111t-48 -89.5t-84.5 -54.5t-129.5 -21z" />
    <glyph glyph-name="afii10102" unicode="&#x455;" horiz-adv-x="730" 
d="M384 -19q-138 0 -220 90t-95 248l92 27q21 -283 228 -283q88 0 138 49.5t50 139.5q0 135 -173 281l-137 116q-91 76 -131 144t-40 154q0 121 72.5 188.5t196.5 67.5q128 0 195.5 -82t72.5 -229l-81 -24q-8 253 -182 253q-79 0 -126.5 -41t-47.5 -116q0 -70 24.5 -118
t96.5 -109l141 -125q51 -44 80.5 -73t65 -75t52.5 -98t18 -113q0 -128 -78 -200t-212 -72z" />
    <glyph glyph-name="afii10103" unicode="&#x456;" horiz-adv-x="474" 
d="M176 1332v181h132v-181h-132zM185 0v1184h109v-1184h-109z" />
    <glyph glyph-name="afii10104" unicode="&#x457;" horiz-adv-x="372" 
d="M294 1325v154h114v-154h-114zM-33 1325v154h114v-154h-114zM133 0v1184h109v-1184h-109z" />
    <glyph glyph-name="afii10105" unicode="&#x458;" horiz-adv-x="411" 
d="M165 1339v189h110v-189h-110zM-32 -313v87q8 -2 48 -2q41 0 70 11t44 25.5t23.5 41t10 47t1.5 52.5v1235h109v-1242q0 -137 -62.5 -198t-182.5 -61q-50 0 -61 4z" />
    <glyph glyph-name="afii10106" unicode="&#x459;" horiz-adv-x="1242" 
d="M783 74h65q56 0 98 7.5t68.5 24.5t43.5 36t25 50t10.5 58t2.5 68q0 50 -3.5 81t-17 67.5t-39.5 56.5t-73 34t-115 14h-65v-497zM8 -10v83q78 0 121.5 41.5t69.5 147t43 312.5l49 610h492v-539h71q90 0 154.5 -18.5t100.5 -46.5t56.5 -73.5t26.5 -88t6 -101.5
q0 -57 -6 -97.5t-27 -84.5t-58 -71t-103 -45t-157 -19h-172v1099h-288l-46 -538q-9 -111 -22 -196t-28.5 -145.5t-37.5 -102.5t-44 -67t-54.5 -38.5t-62 -17.5t-72.5 -4h-12z" />
    <glyph glyph-name="afii10107" unicode="&#x45a;" horiz-adv-x="1186" 
d="M701 74h87q56 0 98 8t68.5 25t43.5 36t25 49.5t10.5 57.5t2.5 68q0 50 -3.5 81t-17 67t-39.5 56.5t-73 34t-115 14.5h-87v-497zM116 0v1184h109v-536h367v536h109v-539h89q91 0 156.5 -18.5t102 -46.5t57 -73.5t26.5 -88t6 -101.5q0 -56 -6 -97t-27.5 -85t-58.5 -71.5
t-103 -45.5t-158 -18h-193v568h-367v-568h-109z" />
    <glyph glyph-name="afii10108" unicode="&#x45b;" horiz-adv-x="832" 
d="M-8 1281v70h145v307h109v-307h255v-70h-255v-378q107 90 261 90q94 0 155 -52.5t61 -162.5v-778h-109v768q0 84 -35.5 118.5t-98.5 34.5t-127 -24.5t-107 -65.5v-831h-109v1281h-145z" />
    <glyph glyph-name="afii10109" unicode="&#x45c;" horiz-adv-x="762" 
d="M403 1325l132 397h110l-185 -397h-57zM116 0v1184h109v-534h99l296 534h114l-312 -571l324 -613h-114l-308 578h-99v-578h-109z" />
    <glyph glyph-name="uni045d" unicode="&#x45d;" horiz-adv-x="834" 
d="M389 1325l-165 397h110l112 -397h-57zM116 0v1184h94v-982l418 981l91 1v-1184h-94v973l-417 -973h-92z" />
    <glyph glyph-name="afii10110" unicode="&#x45e;" horiz-adv-x="764" 
d="M386 1325q-106 0 -169 57t-67 170h75q3 -82 47 -119.5t114 -37.5t115 37.5t51 119.5h76q-5 -113 -70 -170t-172 -57zM79 -299v92q140 1 198.5 50t58.5 137q0 45 -15 108l-261 1096h106l138 -626l93 -430l85 424l130 632h106l-281 -1240q-17 -73 -45 -119t-75.5 -71.5
t-100 -36t-137.5 -16.5z" />
    <glyph glyph-name="afii10193" unicode="&#x45f;" horiz-adv-x="826" 
d="M381 -275l-12 275h-253v1184h109v-1102h376v1102h109v-1184h-245l-10 -275h-74z" />
    <glyph glyph-name="uni0490" unicode="&#x490;" horiz-adv-x="763" 
d="M152 0v1658h500v179h76l-1 -265h-463v-1572h-112z" />
    <glyph glyph-name="afii10098" unicode="&#x491;" horiz-adv-x="591" 
d="M129 0v1184h345v149h68v-235h-305v-1098h-108z" />
    <glyph glyph-name="uni04AF" unicode="&#x4af;" horiz-adv-x="765" 
d="M331 -310v343l-282 1151h107l230 -971l228 971h109l-289 -1151v-343h-103z" />
    <glyph glyph-name="uni04B0" unicode="&#x4b0;" horiz-adv-x="872" 
d="M55 654v82h327l-378 922h115l213 -539l112 -284l106 282l204 541h114l-360 -922h326v-82h-334v-654h-110v654h-335z" />
    <glyph glyph-name="uni04B1" unicode="&#x4b1;" horiz-adv-x="768" 
d="M109 -8v75h214l-274 1117h107l230 -971l228 971h109l-280 -1117h215v-75h-224v-302h-103v302h-222z" />
    <glyph glyph-name="uni04E8" unicode="&#x4e8;" horiz-adv-x="1056" 
d="M231 885h594v327q0 90 -13 154.5t-45.5 116t-92 77.5t-146.5 26t-146.5 -26t-92 -77.5t-45.5 -116t-13 -154.5v-327zM528 70q87 0 146.5 26.5t91.5 78.5t45.5 117t13.5 155v356h-594v-356q0 -90 13 -155t45.5 -117t92 -78.5t146.5 -26.5zM528 -22q-95 0 -167 24.5
t-117.5 67t-74 106.5t-40 135.5t-11.5 160.5v724q0 88 12 158.5t41.5 132t76 102.5t117 64.5t163.5 23.5q115 0 196 -35t127 -101t66.5 -150.5t20.5 -194.5v-727q0 -89 -11.5 -160t-40 -134.5t-74.5 -105.5t-117.5 -66.5t-166.5 -24.5z" />
    <glyph glyph-name="uni04E9" unicode="&#x4e9;" horiz-adv-x="784" 
d="M203 655h378v101q0 77 -3 126.5t-14 99t-31 77.5t-55 45t-86 17t-86 -17t-55 -45t-31 -77.5t-14 -99t-3 -126.5v-101zM392 63q42 0 73.5 10.5t52 34t33.5 51.5t19.5 73.5t8.5 88.5t2 107v151h-378v-151q0 -64 2 -107t8.5 -88.5t19.5 -73.5t33.5 -51.5t52 -34t73.5 -10.5z
M392 -19q-170 0 -234 108t-64 343v320q0 234 64.5 342.5t233.5 108.5q87 0 145.5 -28t92 -87.5t47 -139.5t13.5 -196v-320q0 -235 -64 -343t-234 -108z" />
    <glyph glyph-name="uni1E02" unicode="&#x1e02;" horiz-adv-x="1000" 
d="M473 1799v213h122v-213h-122zM265 931h279q67 0 113.5 24.5t71.5 69.5t35.5 98t10.5 122q0 60 -6.5 105t-26 88.5t-53 70.5t-88.5 43.5t-131 16.5h-205v-638zM265 88h266q158 0 216.5 91.5t58.5 302.5q0 361 -260 361h-281v-755zM153 0v1658h342q89 0 157 -21.5
t110.5 -57.5t69 -89.5t37 -112.5t10.5 -132q0 -56 -8.5 -106.5t-28.5 -102.5t-60.5 -90t-97.5 -52q69 -20 117 -66t71.5 -107t33 -118.5t9.5 -119.5q0 -68 -5.5 -123t-19.5 -112.5t-40.5 -100t-66.5 -77t-100 -52.5t-138 -18h-392z" />
    <glyph glyph-name="uni1E03" unicode="&#x1e03;" horiz-adv-x="814" 
d="M358 1780v213h122v-213h-122zM429 66q107 0 144.5 95.5t37.5 322.5v231q0 224 -35.5 313.5t-144.5 89.5q-105 0 -205 -110v-835q88 -107 203 -107zM442 -19q-123 0 -216 117v-98h-109v1658h109v-574q91 119 227 119q64 0 111.5 -23t77 -63t47.5 -103t24.5 -134.5
t6.5 -165.5v-227q0 -260 -62 -383t-216 -123z" />
    <glyph glyph-name="uni1E0A" unicode="&#x1e0a;" horiz-adv-x="1059" 
d="M486 1799v213h122v-213h-122zM153 0v1658h364q120 0 204.5 -36t131.5 -103t67.5 -149.5t20.5 -187.5v-688q0 -113 -20.5 -199t-66.5 -154.5t-128.5 -104.5t-199.5 -36h-373zM265 88h256q78 0 134.5 22.5t89.5 58.5t52 93t25 113t6 131v667q0 77 -8 135t-28.5 109
t-55.5 83t-90 50.5t-130 18.5h-251v-1481z" />
    <glyph glyph-name="uni1E0B" unicode="&#x1e0b;" horiz-adv-x="808" 
d="M332 1780v213h122v-213h-122zM388 66q105 0 194 100v849q-101 103 -198 103q-109 0 -145 -88t-36 -307v-246q0 -224 38.5 -317.5t146.5 -93.5zM372 -19q-152 0 -215 116.5t-63 388.5v211q0 264 58.5 385t214.5 121q125 -1 215 -110v565h109v-1658h-109v90
q-90 -109 -210 -109z" />
    <glyph glyph-name="uni1E1E" unicode="&#x1e1e;" horiz-adv-x="784" 
d="M378 1799v213h122v-213h-122zM153 0v1658h571v-88h-459v-666h397v-87h-397v-817h-112z" />
    <glyph glyph-name="uni1E1F" unicode="&#x1e1f;" horiz-adv-x="525" 
d="M207 1734v213h122v-213h-122zM195 0v1107h-160v77h160v160q0 53 2.5 86.5t13.5 71.5t31 59.5t56.5 36t88.5 14.5q58 0 109 -14v-83q-65 12 -87 12q-66 0 -86 -39t-20 -142v-162h198v-77h-198v-1107h-108z" />
    <glyph glyph-name="uni1E40" unicode="&#x1e40;" horiz-adv-x="1294" 
d="M586 1799v213h122v-213h-122zM133 0l49 1658h110l352 -1496l355 1496h115l48 -1658h-97l-41 1391l-338 -1391h-81l-334 1388l-41 -1388h-97z" />
    <glyph glyph-name="uni1E41" unicode="&#x1e41;" horiz-adv-x="1275" 
d="M580 1326v213h122v-213h-122zM116 0v1184h104v-125q57 69 128.5 107t149.5 38q148 0 184 -158q58 76 133 117t156 41q85 0 140.5 -61t55.5 -207v-936h-105v939q0 107 -33 147.5t-93 40.5q-124 0 -245 -139q3 -24 3 -52v-936h-105v939q0 107 -33 147.5t-93 40.5
q-61 0 -124 -36.5t-119 -100.5v-990h-104z" />
    <glyph glyph-name="uni1E56" unicode="&#x1e56;" horiz-adv-x="994" 
d="M480 1799v213h122v-213h-122zM265 879h255q153 0 223.5 80.5t70.5 270.5q0 197 -65 269.5t-227 72.5h-257v-693zM153 0v1658h389q109 0 186 -31.5t119.5 -91t61.5 -134t19 -171.5q0 -69 -11 -130t-39 -118.5t-70.5 -99t-109.5 -66t-153 -24.5h-280v-792h-112z" />
    <glyph glyph-name="uni1E57" unicode="&#x1e57;" horiz-adv-x="819" 
d="M358 1325v213h122v-213h-122zM430 66q107 0 144.5 95.5t37.5 322.5v231q0 224 -35.5 313.5t-145.5 89.5q-105 0 -205 -110v-835q90 -107 204 -107zM117 -390v1574h109v-101q93 120 227 120q80 0 133.5 -33.5t82 -101t40 -151.5t11.5 -203v-227q0 -260 -61.5 -383
t-215.5 -123q-122 0 -217 117v-488h-109z" />
    <glyph glyph-name="uni1E60" unicode="&#x1e60;" horiz-adv-x="926" 
d="M410 1799v213h122v-213h-122zM486 -21q-365 0 -401 430l98 31q9 -71 21.5 -123t35.5 -100.5t55 -79t80.5 -48.5t111.5 -18q265 0 265 267q0 102 -51.5 186t-164.5 196l-303 302q-144 144 -144 315q0 162 98.5 250.5t264.5 89.5h3q177 0 273 -95.5t110 -320.5l-94 -22
q-16 180 -78.5 264t-200.5 84h-10q-121 -2 -193 -61.5t-72 -180.5q0 -65 28 -124.5t94 -126.5l299 -295q115 -114 180.5 -223.5t65.5 -231.5q0 -180 -100.5 -272.5t-270.5 -92.5z" />
    <glyph glyph-name="uni1E61" unicode="&#x1e61;" horiz-adv-x="730" 
d="M310 1325v213h122v-213h-122zM384 -19q-138 0 -220 90t-95 248l92 27q21 -283 228 -283q88 0 138 49.5t50 139.5q0 135 -173 281l-137 116q-91 76 -131 144t-40 154q0 121 72.5 188.5t196.5 67.5q128 0 195.5 -82t72.5 -229l-81 -24q-8 253 -182 253q-79 0 -126.5 -41
t-47.5 -116q0 -70 24.5 -118t96.5 -109l141 -125q51 -44 80.5 -73t65 -75t52.5 -98t18 -113q0 -128 -78 -200t-212 -72z" />
    <glyph glyph-name="uni1E6A" unicode="&#x1e6a;" horiz-adv-x="779" 
d="M328 1799v213h122v-213h-122zM337 0v1569h-351v89h807v-89h-344v-1569h-112z" />
    <glyph glyph-name="uni1E6B" unicode="&#x1e6b;" horiz-adv-x="538" 
d="M204 1684v213h122v-213h-122zM376 -13q-48 0 -82.5 13t-55 33.5t-32 54t-15 67t-3.5 79.5v878h-155v72h155v378h108v-378h201v-72h-201v-865q0 -101 20 -137.5t84 -36.5q31 0 87 10v-82q-51 -14 -111 -14z" />
    <glyph glyph-name="Wgrave" unicode="&#x1e80;" horiz-adv-x="1446" 
d="M695 1799l-165 397h110l112 -397h-57zM358 0l-289 1657l99 1l243 -1438l266 1401h108l273 -1402l222 1439h97l-270 -1658h-93l-282 1453l-277 -1453h-97z" />
    <glyph glyph-name="wgrave" unicode="&#x1e81;" horiz-adv-x="1160" 
d="M551 1325l-165 397h110l112 -397h-57zM263 0l-196 1184h96l165 -1060l202 1060h106l207 -1055l154 1055h96l-189 -1184h-113l-206 1039l-199 -1039h-123z" />
    <glyph glyph-name="Wacute" unicode="&#x1e82;" horiz-adv-x="1446" 
d="M695 1799l132 397h110l-185 -397h-57zM358 0l-289 1657l99 1l243 -1438l266 1401h108l273 -1402l222 1439h97l-270 -1658h-93l-282 1453l-277 -1453h-97z" />
    <glyph glyph-name="wacute" unicode="&#x1e83;" horiz-adv-x="1160" 
d="M551 1325l132 397h110l-185 -397h-57zM263 0l-196 1184h96l165 -1060l202 1060h106l207 -1055l154 1055h96l-189 -1184h-113l-206 1039l-199 -1039h-123z" />
    <glyph glyph-name="Wdieresis" unicode="&#x1e84;" horiz-adv-x="1446" 
d="M830 1799v154h114v-154h-114zM503 1799v154h114v-154h-114zM358 0l-289 1657l99 1l243 -1438l266 1401h108l273 -1402l222 1439h97l-270 -1658h-93l-282 1453l-277 -1453h-97z" />
    <glyph glyph-name="wdieresis" unicode="&#x1e85;" horiz-adv-x="1160" 
d="M686 1325v154h114v-154h-114zM359 1325v154h114v-154h-114zM263 0l-196 1184h96l165 -1060l202 1060h106l207 -1055l154 1055h96l-189 -1184h-113l-206 1039l-199 -1039h-123z" />
    <glyph glyph-name="Ygrave" unicode="&#x1ef2;" horiz-adv-x="946" 
d="M445 1799l-165 397h110l112 -397h-57zM424 0v530l-383 1128h115l325 -995l310 995h114l-370 -1128v-530h-111z" />
    <glyph glyph-name="ygrave" unicode="&#x1ef3;" horiz-adv-x="767" 
d="M357 1325l-165 397h110l112 -397h-57zM76 -295v88q104 0 161.5 17t76 45t18.5 76q0 16 -1 25q-3 31 -34 164l-248 1064h107l234 -1081l224 1081h109l-289 -1281q-24 -105 -97 -151.5t-216 -46.5h-45z" />
    <glyph glyph-name="endash" unicode="&#x2013;" horiz-adv-x="935" 
d="M122 438v97h708v-97h-708z" />
    <glyph glyph-name="emdash" unicode="&#x2014;" horiz-adv-x="1529" 
d="M122 476v95h1302v-95h-1302z" />
    <glyph glyph-name="quoteleft" unicode="&#x2018;" horiz-adv-x="464" 
d="M106 1288v154q0 114 24.5 175t93.5 94l32 -36q-52 -34 -67.5 -75.5t-15.5 -127.5h66v-184h-133z" />
    <glyph glyph-name="quoteright" unicode="&#x2019;" horiz-adv-x="313" 
d="M128 1235l-33 36q52 33 67.5 75t15.5 128h-66v184h133v-154q0 -115 -24.5 -176t-92.5 -93z" />
    <glyph glyph-name="quotesinglbase" unicode="&#x201a;" horiz-adv-x="572" 
d="M253 -226l-32 36q52 33 67.5 75t15.5 128h-66v184h133v-154q0 -115 -24.5 -176t-93.5 -93z" />
    <glyph glyph-name="quotedblleft" unicode="&#x201c;" horiz-adv-x="681" 
d="M403 1288v154q0 114 24.5 175t93.5 94l32 -36q-52 -34 -67.5 -75.5t-15.5 -127.5h67v-184h-134zM133 1288v154q0 115 24.5 175.5t92.5 93.5l33 -36q-52 -34 -67.5 -75.5t-15.5 -127.5h66v-184h-133z" />
    <glyph glyph-name="quotedblright" unicode="&#x201d;" horiz-adv-x="970" 
d="M571 1235l-32 35q52 34 67.5 75.5t15.5 127.5h-66v185h133v-154q0 -115 -24.5 -176t-93.5 -93zM331 1235l-32 35q52 34 67.5 75.5t15.5 127.5h-66v185h133v-154q0 -115 -24.5 -176t-93.5 -93z" />
    <glyph glyph-name="quotedblbase" unicode="&#x201e;" horiz-adv-x="730" 
d="M473 -227l-32 36q52 33 67.5 75t15.5 128h-67v184h134v-154q0 -115 -24.5 -176t-93.5 -93zM200 -227l-32 36q52 33 67.5 75t15.5 128h-67v184h134v-154q0 -115 -24.5 -176t-93.5 -93z" />
    <glyph glyph-name="dagger" unicode="&#x2020;" horiz-adv-x="682" 
d="M291 0v1139h-256v86h256v385h104v-385h253v-86h-253v-1139h-104z" />
    <glyph glyph-name="daggerdbl" unicode="&#x2021;" horiz-adv-x="744" 
d="M322 0v533h-262v79h262v492h-262v80h262v426h103v-426h260v-80h-260v-492h260v-79h-260v-533h-103z" />
    <glyph glyph-name="bullet" unicode="&#x2022;" horiz-adv-x="543" 
d="M271 639q-73 0 -113.5 45t-40.5 113t40.5 113t113.5 45q74 0 115 -45t41 -113t-41 -113t-115 -45z" />
    <glyph glyph-name="ellipsis" unicode="&#x2026;" horiz-adv-x="1061" 
d="M838 0v213h122v-213h-122zM484 0v213h122v-213h-122zM129 0v213h122v-213h-122z" />
    <glyph glyph-name="perthousand" unicode="&#x2030;" horiz-adv-x="1858" 
d="M334 0l567 1680h100l-566 -1680h-101zM1547 -14q-208 0 -208 279v291q0 274 208 274q209 0 209 -271v-296q0 -277 -209 -277zM1547 71q60 0 85 48.5t25 140.5v302q0 183 -110 183q-60 0 -84.5 -48t-24.5 -137v-301q0 -92 25 -140t84 -48zM1022 -13q-209 0 -209 279v291
q0 274 209 274q208 0 208 -271v-296q0 -277 -208 -277zM1022 72q110 0 110 188v302q0 184 -110 184q-60 0 -85 -48t-25 -137v-301q0 -92 25 -140t85 -48zM310 855q-208 0 -208 279v291q0 274 208 274q209 0 209 -271v-296q0 -277 -209 -277zM310 940q60 0 85 48.5t25 139.5
v302q0 89 -25 136.5t-85 47.5t-84.5 -48t-24.5 -137v-301q0 -92 25 -140t84 -48z" />
    <glyph glyph-name="guilsinglleft" unicode="&#x2039;" horiz-adv-x="730" 
d="M637 232l-365 426v43l365 425v-140l-265 -306l265 -308v-140z" />
    <glyph glyph-name="guilsinglright" unicode="&#x203a;" horiz-adv-x="677" 
d="M170 263v140l265 306l-265 308v140l365 -426v-43z" />
    <glyph glyph-name="fraction" unicode="&#x2044;" horiz-adv-x="429" 
d="M0 0l337 1658h92l-335 -1658h-94z" />
    <glyph glyph-name="uni2074" unicode="&#x2074;" horiz-adv-x="739" 
d="M193 918h242v581zM435 532v314h-328v69l327 743h92v-740h130v-72h-130v-314h-91z" />
    <glyph glyph-name="Euro" unicode="&#x20ac;" horiz-adv-x="985" 
d="M523 -22q-96 0 -168 26t-116.5 69.5t-72 109t-38 136t-10.5 159.5v156h-138v66h138v304h-138v66h138v111q0 90 11.5 162t39.5 136t73.5 106.5t116 67t164.5 24.5q106 0 180.5 -32.5t117 -96t61.5 -146t19 -192.5v-71h-106v72q0 190 -59 282.5t-213 92.5q-88 0 -147 -27.5
t-90 -82.5t-43 -121.5t-12 -160.5v-124h293v-66h-293v-304h293v-66h-293v-174q0 -77 8 -135t28 -107.5t53 -81t84 -49t119 -17.5q81 0 135.5 26t83.5 78t41 116.5t12 155.5v87h106v-69q0 -89 -10.5 -159.5t-37 -133t-68.5 -104t-108.5 -65.5t-153.5 -24z" />
    <glyph glyph-name="afii61289" unicode="&#x2113;" horiz-adv-x="1024" 
d="M583 975q280 417 280 661q0 77 -27.5 117t-68.5 40q-40 0 -74.5 -37.5t-44.5 -102.5l-113 -749zM410 596l-200 -294l-50 43l273 407l134 901q15 103 76 163t134 60q70 0 117 -58t47 -168q0 -278 -304 -721l-126 -185l-62 -414q-8 -61 -8 -101q0 -91 29 -135.5t78 -44.5
q48 0 104.5 40.5t104.5 109.5l49 -51q-61 -82 -134 -128t-139 -46q-76 0 -123 63t-47 187q0 52 9 115z" />
    <glyph glyph-name="afii61352" unicode="&#x2116;" horiz-adv-x="1839" 
d="M1447 -19q-170 0 -234 108t-64 343v320q0 234 64.5 342.5t233.5 108.5q87 0 145.5 -28t92 -87.5t47 -139.5t13.5 -196v-320q0 -235 -64 -343t-234 -108zM1447 63q42 0 73.5 10.5t52 34t33.5 51.5t19.5 73.5t8.5 88.5t2 107v328q0 77 -3 126.5t-14 99t-31 77.5t-55 45
t-86 17t-86 -17t-55 -45t-31 -77.5t-14 -99t-3 -126.5v-328q0 -64 2 -107t8.5 -88.5t19.5 -73.5t33.5 -51.5t52 -34t73.5 -10.5zM153 0v1658h89l562 -1400v1400h99v-1658h-88l-563 1403v-1403h-99z" />
    <glyph glyph-name="trademark" unicode="&#x2122;" horiz-adv-x="1409" 
d="M244 764v816h-192v78h463v-78h-178v-816h-93zM619 764v894h99l242 -734l246 734h97v-894h-80v717l-242 -717h-40l-241 704v-704h-81z" />
    <glyph glyph-name="estimated" unicode="&#x212e;" horiz-adv-x="800" 
d="M234 662h351v128v60.5t-1.5 54t-3.5 50t-6.5 42.5t-11 38t-15.5 29.5t-21.5 24.5t-28.5 16.5t-37 11.5t-46 3q-73 0 -109.5 -24.5t-53.5 -95t-17 -212.5v-126zM417 -19q-60 0 -105 11t-85 41t-65.5 79.5t-40 128.5t-14.5 187v313q0 109 14.5 188t39 127t65 75.5
t84.5 37.5t104 10q164 0 226 -101.5t62 -359.5l-2 -108h-466v-231q0 -149 17.5 -221t55.5 -96.5t117 -24.5q36 0 61.5 4t55 19.5t47.5 43t30.5 78.5t12.5 122v96h70v-92q0 -80 -13 -137.5t-44 -101.5t-87.5 -66t-139.5 -22z" />
    <glyph glyph-name="partialdiff" unicode="&#x2202;" horiz-adv-x="865" 
d="M408 61q193 0 214 268l39 594q-121 116 -227 116q-113 0 -154 -78t-53 -294l-15 -208q-3 -38 -3 -106q0 -154 47 -223t152 -69zM404 -22q-149 4 -223 98t-74 295q0 47 3 99l15 205q14 241 82 344t220 103q146 -1 243 -122q1 7 6 89.5t5 99.5q0 93 -18.5 163t-51.5 116
t-85.5 76.5t-113 45t-140.5 19.5l27 76q50 0 95.5 -6t94.5 -22t89.5 -41t77 -65.5t62 -92.5t40.5 -124.5t15 -160.5l-47 -820q-15 -200 -102 -287.5t-220 -87.5z" />
    <glyph glyph-name="product" unicode="&#x220f;" horiz-adv-x="1148" 
d="M152 -390v2048h845v-2048h-110v1963h-626v-1963h-109z" />
    <glyph glyph-name="summation" unicode="&#x2211;" horiz-adv-x="783" 
d="M73 -390l359 1052l-359 996h590v-89h-451l325 -907l-328 -964h466v-88h-602z" />
    <glyph glyph-name="minus" unicode="&#x2212;" horiz-adv-x="706" 
d="M69 739v76h568v-76h-568z" />
    <glyph glyph-name="uni2215" unicode="&#x2215;" horiz-adv-x="674" 
d="M44 0l488 1658h97l-487 -1658h-98z" />
    <glyph glyph-name="uni2219" unicode="&#x2219;" horiz-adv-x="399" 
d="M166 697v153h112v-153h-112z" />
    <glyph glyph-name="radical" unicode="&#x221a;" horiz-adv-x="949" 
d="M430 0l-261 1107l-178 -1v78h271q19 -78 66 -289t53 -236q18 -74 57.5 -258t52.5 -240l66.5 314.5t77.5 359.5l85.5 400.5t91.5 422.5h112l-373 -1658h-121z" />
    <glyph glyph-name="infinity" unicode="&#x221e;" horiz-adv-x="1233" 
d="M948 561h2q76 0 116.5 47.5t40.5 126.5t-40.5 126t-116.5 47h-2q-62 0 -116.5 -38t-144.5 -135q90 -97 144.5 -135.5t116.5 -38.5zM288 556q64 0 120.5 39.5t149.5 139.5q-93 99 -149.5 138.5t-120.5 39.5h-5q-77 0 -116.5 -46.5t-39.5 -132.5t39.5 -132t116.5 -46h5z
M293 464q-122 0 -185.5 72.5t-63.5 197.5t64 198t185 73q86 0 158 -46.5t171 -153.5q102 107 168.5 151.5t148.5 44.5h3q119 -1 183 -72t64 -194q-1 -124 -64.5 -195t-182.5 -72h-3q-82 0 -148.5 44.5t-168.5 151.5q-99 -107 -171 -153.5t-158 -46.5z" />
    <glyph glyph-name="integral" unicode="&#x222b;" horiz-adv-x="547" 
d="M119 -389q-58 0 -109 14v83q54 -12 87 -12q66 0 86 39t20 142v1538q0 52 2.5 85.5t13.5 71t31 59t56.5 35.5t88.5 14q57 0 108 -14v-83q-65 12 -86 12q-66 0 -86.5 -39t-20.5 -142v-1538q0 -43 -2 -72t-8 -62.5t-18.5 -54.5t-33 -40t-53 -27.5t-76.5 -8.5z" />
    <glyph glyph-name="approxequal" unicode="&#x2248;" horiz-adv-x="802" 
d="M536 844q-41 0 -139.5 56t-128.5 56q-47 0 -135 -85l-41 50q105 117 182 117q40 0 138 -55t127 -55q27 0 52 15t79 58l40 -50q-109 -107 -174 -107zM536 572q-41 0 -139.5 55.5t-128.5 55.5q-47 0 -135 -84l-41 49q104 117 182 117q40 0 138 -54.5t127 -54.5
q27 0 51.5 14.5t79.5 57.5l40 -49q-107 -107 -174 -107z" />
    <glyph glyph-name="notequal" unicode="&#x2260;" horiz-adv-x="831" 
d="M139 0l174 590h-213v92h239l71 241h-310v91h336l190 644h98l-190 -644h167v-91h-193l-72 -241h265v-92h-291l-173 -590h-98z" />
    <glyph glyph-name="lessequal" unicode="&#x2264;" horiz-adv-x="741" 
d="M62 0v76h567v-76h-567zM621 199l-556 420v106l556 437v-117l-470 -373l470 -359v-114z" />
    <glyph glyph-name="greaterequal" unicode="&#x2265;" horiz-adv-x="707" 
d="M77 0v76h567v-76h-567zM77 203v116l470 374l-470 358v115l556 -421v-106z" />
    <glyph glyph-name="lozenge" unicode="&#x25ca;" horiz-adv-x="845" 
d="M428 78l247 514l-258 510l-245 -510zM395 0l-311 592l297 592h69l311 -592l-297 -592h-69z" />
    <glyph glyph-name="uniFB00" unicode="&#xfb00;" horiz-adv-x="969" 
d="M640 0v1107h-160v77h160v160q0 53 2.5 86.5t13.5 71.5t31 59.5t56.5 36t88.5 14.5q58 0 109 -14v-83q-65 12 -87 12q-66 0 -86 -39t-20 -142v-162h198v-77h-198v-1107h-108zM195 0v1107h-160v77h160v160q0 53 2.5 86.5t13.5 71.5t31 59.5t56.5 36t88.5 14.5q58 0 109 -14
v-83q-65 12 -87 12q-66 0 -86 -39t-20 -142v-162h198v-77h-198v-1107h-108z" />
    <glyph glyph-name="uniFB01" unicode="&#xfb01;" horiz-adv-x="879" 
d="M631 1339v189h103v-189h-103zM195 0v1107h-160v77h160v160q0 66 6.5 108.5t26 82t61 58.5t105.5 19q51 0 102 -14v-83q-51 11 -86 11q-67 0 -87 -37.5t-20 -142.5v-162h431v-1184h-109v1107h-322v-1107h-108z" />
    <glyph glyph-name="uniFB02" unicode="&#xfb02;" horiz-adv-x="910" 
d="M303 1107v-1107h-108v1107h-160v77h160v160q0 34 1.5 58t8.5 56t19.5 54.5t35.5 46t54.5 38t79.5 24t109 9.5q111 0 272 -32v-1598h-109v1535q-93 12 -154 12q-50 0 -86 -6.5t-58.5 -22t-36 -31.5t-19.5 -44t-7.5 -49t-1.5 -57v-153h198v-77h-198z" />
    <glyph glyph-name="uniFB03" unicode="&#xfb03;" horiz-adv-x="1396" 
d="M195 0v1107h-160v77h160v160q0 53 2.5 86.5t13.5 71.5t31 59.5t56.5 36t88.5 14.5q58 0 109 -14v-83q-65 12 -87 12q-66 0 -86 -39t-20 -142v-162h369v160q0 53 2.5 86.5t13.5 71.5t31 59.5t56.5 36t88.5 14.5q58 0 109 -14v-83q-65 12 -87 12q-66 0 -86 -39t-20 -142
v-162h471v-1184h-109v1107h-362v-1107h-108v1107h-369v-1107h-108zM1142 1339v189h109v-189h-109z" />
    <glyph glyph-name="uniFB04" unicode="&#xfb04;" horiz-adv-x="1589" 
d="M195 0v1107h-160v77h160v160q0 53 2.5 86.5t13.5 71.5t31 59.5t56.5 36t88.5 14.5q58 0 109 -14v-83q-65 12 -87 12q-66 0 -86 -39t-20 -142v-162h198v-77h-198v-1107h-108zM680 0v1107h-160v77h160v160q0 53 2.5 86.5t13.5 71.5t31 59.5t56.5 36t88.5 14.5q58 0 109 -14
v-83q-65 12 -87 12q-66 0 -86 -39t-20 -142v-162h198v-77h-198v-1107h-108zM1178 1339v189h109v-189h-109zM1178 0v1184h109v-1184h-109z" />
    <glyph glyph-name="foundryicon" horiz-adv-x="1481" 
d="M285 272l165 531l-450 342h561l174 532l185 -532h561l-452 -342l166 -531l-460 320z" />
    <glyph glyph-name="uni04AE" horiz-adv-x="872" 
d="M390 0v716l-386 942h115l213 -539l112 -284l106 282l204 541h114l-368 -942v-716h-110z" />
    </font>
</defs>
</svg>
